<svg xmlns="http://www.w3.org/2000/svg" viewBox="0 0 48 48"><path d="M28 38c0 2.211-1.789 4-4 4-2.211 0-4-1.789-4-4 0-2.207 1.789-4 4-4 2.211 0 4 1.793 4 4zM26 11c0 1.1055-.8945 2-2 2-1.1055 0-2-.8945-2-2V7c0-1.1055.8945-2 2-2 1.1055 0 2 .8945 2 2z" fill="#db8509"/><path d="M27.8867 38.9102c.0664-.293.1133-.5977.1133-.9102 0-.3828-.0703-.746-.1719-1.0977A74.753 74.753 0 0 1 24 37a74.753 74.753 0 0 1-3.8281-.0977C20.0703 37.254 20 37.6172 20 38c0 .3125.0469.6172.1133.9102C21.5859 38.9805 22.9258 39 24 39c1.0742 0 2.414-.0195 3.8867-.0898z" fill="#bc6f0a"/><path d="M33 33V16.8008c0-4.9688-4.0273-9-9-9s-9 4.0312-9 9V33z" fill="#ffc107"/><path d="M41 33c0 2.211-7.0586 4-17 4S7 35.211 7 33c0-2.211 7.0586-4 17-4s17 1.789 17 4z" fill="#ffc107"/><path d="M7 33c0-2 8-9 8-12s18-3 18 0 8 10 8 12-34 2-34 0z" fill="#ffc107"/><path d="M9.2734 29.4258c-.4882.5898-.9257 1.1445-1.293 1.6484 1.6212.6563 8.1485 3.0625 16.5626 3.0625 4.746 0 10.0898-.7812 15.4765-3.0664-.3633-.496-.7968-1.043-1.2812-1.6289-13.039 5.2813-26.039 1.2383-29.4649-.0156z" fill="#ffe082"/></svg>
