<svg xmlns="http://www.w3.org/2000/svg" xmlns:xlink="http://www.w3.org/1999/xlink" viewBox="0 0 50 50" version="1.1"><path d="M 25 8 C 13.953125 8 12.128906 9.804688 11.199219 11.667969 L 11.152344 11.765625 C 10.082031 14 9.074219 16.109375 8.078125 18.5 C 7.96875 18.761719 7.976563 19.054688 8.097656 19.3125 C 8.21875 19.570313 8.441406 19.761719 8.710938 19.84375 C 10.5 20.382813 11.359375 19.402344 11.894531 18.53125 C 13.097656 16.125 14.722656 15 17 15 L 18.609375 15 C 17.324219 29.242188 14.171875 31.535156 12.269531 32.921875 C 11.101563 33.773438 10 34.574219 10 37 C 10 40.261719 12.789063 42 14.800781 42 C 21.460938 42 22.117188 35.300781 23.871094 17.394531 L 24.109375 15 L 28.792969 15 C 28.546875 17.351563 28.296875 19.519531 28.066406 21.535156 C 27.46875 26.730469 27 30.835938 27 34.402344 C 27 37.511719 28.089844 39.839844 30.058594 41.058594 C 30.589844 46.066406 34.855469 50 40 50 C 45.5 50 50 45.5 50 40 C 50 34.5 45.5 30 40 30 C 37.816406 30 35.796875 30.71875 34.148438 31.917969 C 33.859375 29.320313 34.089844 24.34375 34.914063 15 L 41 15 C 41.550781 15 42 14.550781 42 14 L 42 9 C 42 8.449219 41.550781 8 41 8 Z M 40 32 C 44.398438 32 48 35.601563 48 40 C 48 44.398438 44.398438 48 40 48 C 35.601563 48 32 44.398438 32 40 C 32 35.601563 35.601563 32 40 32 Z M 40 34.097656 C 39.398438 34.097656 39 34.5 39 35.097656 L 39 39 L 35.097656 39 C 34.5 39 34.097656 39.398438 34.097656 40 C 34.097656 40.601563 34.5 41 35.097656 41 L 39 41 L 39 44.902344 C 39 45.5 39.398438 45.902344 40 45.902344 C 40.601563 45.902344 41 45.5 41 44.902344 L 41 41 L 44.902344 41 C 45.5 41 45.902344 40.601563 45.902344 40 C 45.902344 39.398438 45.5 39 44.902344 39 L 41 39 L 41 35.097656 C 41 34.5 40.601563 34.097656 40 34.097656 Z "></path></svg>
