<svg xmlns="http://www.w3.org/2000/svg" viewBox="0 0 50 50"><path d="M19.875.4063c-3.6797.0664-6.3672 1.1953-8 3.3437-1.9336 2.5469-2.2852 6.3945-1.0625 11.4688-.4492.5507-.789 1.3867-.6563 2.5.2657 2.203 1.1211 3.1093 1.8438 3.4687.3438 1.7305 1.2969 3.6758 2.2188 4.5938v.4687c.0078 1.0156.0039 1.8945-.0938 3.0313-.6133 1.4062-2.6484 2.2304-5 3.1562-3.9063 1.5352-8.7617 3.4336-9.125 9.5L-.0625 43h27.1563c1.9023 4.121 6.078 7 10.9062 7 6.6172 0 12-5.3828 12-12s-5.3828-12-12-12c-4.1094 0-7.7422 2.0586-9.9063 5.2188-.7148-.3633-1.2968-.7579-1.7187-1.2188-.1797-.1953-.3477-.4297-.4688-.7188-.0976-1.1367-.0703-2.0195-.0624-3.0312v-.4688c.8945-.914 1.8164-2.8632 2.1562-4.5937.7227-.3633 1.5781-1.2656 1.8438-3.4688.1328-1.0898-.1876-1.918-.625-2.4687.582-1.9805 1.7695-7.1055-.2813-10.4063-.8594-1.3828-2.1602-2.2539-3.875-2.5937C24.1172 1.0586 22.3047.4062 19.875.4062zM38 28c5.5156 0 10 4.4844 10 10s-4.4844 10-10 10-10-4.4844-10-10 4.4844-10 10-10zm-1 4v5h-5v2h5v5h2v-5h5v-2h-5v-5zm-10.5625 2.8438c-.0664.2382-.1367.4765-.1875.7187.0508-.246.121-.4805.1875-.7188zm-.375 2.0312C26.0273 37.246 26 37.6172 26 38c0-.379.0273-.754.0625-1.125z"/></svg>
