<svg xmlns="http://www.w3.org/2000/svg" viewBox="0 0 400.99 262.05"><defs><style>.cls-1{fill:#8e501f;}.cls-2{fill:#dfb28b;}.cls-3{fill:#925a3b;}.cls-4{fill:#e1b9a9;}.cls-5{fill:#6e442c;}.cls-6{fill:#8e572a;}.cls-7{fill:#a57955;}.cls-8{fill:#543e36;}.cls-9{fill:#dabca3;}.cls-10{fill:#fff;}.cls-11{fill:#4a3222;}.cls-12{fill:#3f2f29;}.cls-13{opacity:0.1;}</style></defs><title>Asset 6</title><g id="Layer_2" data-name="Layer 2"><g id="Foreground"><path class="cls-1" d="M401,122v5.76c0,11.9-18.11,21.58-40.47,21.59S320,139.74,320,127.84v-5.76Z"/><path class="cls-2" d="M395.09,111l1,5.76c2.05,11.94-14.15,24.7-36.2,28.49s-41.57-2.83-43.62-14.76l-1-5.77Z"/><path class="cls-1" d="M385.17,96.12l2.82,5c5.85,10.38-5.19,27.69-24.67,38.68s-40,11.47-45.87,1.1l-2.82-5Z"/><path class="cls-3" d="M367.83,173.75v18.54A69.63,69.63,0,0,1,344,244.7l-.06,0a69.32,69.32,0,0,1-45.85,17.31H141a69.71,69.71,0,0,1-69.74-68.3c0-.48,0-1,0-1.46V173.75a70.16,70.16,0,0,1,49.28-66.67A69,69,0,0,1,141,104H298.07a69.42,69.42,0,0,1,44.43,16.08l.08.07c.75.62,1.49,1.27,2.21,1.92a70.52,70.52,0,0,1,15.13,19.54q.88,1.67,1.65,3.36c.66,1.42,1.26,2.88,1.81,4.35A69,69,0,0,1,367.83,173.75Z"/><path class="cls-4" d="M319.9,258.53a69.24,69.24,0,0,1-21.83,3.52H141a70.38,70.38,0,0,1-12-1A31.25,31.25,0,0,0,143,252.88a31.58,31.58,0,0,0,6.72-9.93,31,31,0,0,0,2.45-12.12,30.34,30.34,0,0,1,30.25-30.25H279a30.35,30.35,0,0,1,30.25,30.25v9.76A20.56,20.56,0,0,0,319.9,258.53Z"/><path class="cls-5" d="M120.5,107.08c-1.5,13.51-6.24,31.87-12.38,47.06-7.28,18.06-19.6,39.59-36.88,39.61,0-.48,0-1,0-1.46V173.75A70,70,0,0,1,120.5,107.08Z"/><path class="cls-6" d="M93.66,100.09a12.31,12.31,0,0,0,1.27,5.37c2.47,5.09,8.37,9.25,16,11.46a7.06,7.06,0,0,0,3.23.17c15.07-3,26.71-10,30.68-18.68a15.92,15.92,0,0,0,1.48-6.61A6.49,6.49,0,0,0,143,86.11a41.43,41.43,0,0,0-19.54-4.56C107,81.55,93.66,89.85,93.66,100.09Z"/><path class="cls-7" d="M94.93,105.46c2.47,5.09,8.37,9.25,16,11.46a7.06,7.06,0,0,0,3.23.17c15.07-3,26.71-10,30.68-18.68A6.61,6.61,0,0,0,143,96.84a41.43,41.43,0,0,0-19.54-4.56C110,92.28,98.63,97.84,94.93,105.46Z"/><path class="cls-8" d="M101.66,81.55c0-26.27,1.28-58.56,21.66-78.09a2,2,0,0,0-2.2-3.28C89.32,13.81,80,44.5,81.06,81.1Z"/><path class="cls-8" d="M37.9,81.55C37.9,55.28,36.63,23,16.25,3.46A2,2,0,0,1,18.45.18C50.25,13.81,59.59,44.5,58.5,81.1Z"/><path class="cls-6" d="M113.18,99.11c0,23.17-18.79,86.84-42,86.84S29.27,122.28,29.27,99.11a42,42,0,0,1,83.91,0Z"/><path class="cls-6" d="M52.69,104a12.28,12.28,0,0,1-1.27,5.37c-2.47,5.09-8.37,9.26-16,11.46a7.06,7.06,0,0,1-3.23.17c-15.07-3-26.71-10-30.68-18.68A15.89,15.89,0,0,1,0,95.7,6.47,6.47,0,0,1,3.4,90a41.36,41.36,0,0,1,19.53-4.56C39.36,85.45,52.69,93.76,52.69,104Z"/><path class="cls-7" d="M51.42,109.36c-2.47,5.09-8.37,9.26-16,11.46a7.06,7.06,0,0,1-3.23.17c-15.07-3-26.71-10-30.68-18.68a6.52,6.52,0,0,1,1.92-1.57,41.36,41.36,0,0,1,19.53-4.55C36.36,96.19,47.72,101.74,51.42,109.36Z"/><path class="cls-9" d="M97.38,159.24C90.21,174.35,81.12,186,71.22,186S52.31,174.43,45.13,159.4c10.42-9.91,17.31-27.09,17.31-46.63S55.58,76.13,45.19,66.2A42,42,0,0,1,95,64.55c-10.21,10-17,27-17,46.27C78.05,131.58,85.84,149.69,97.38,159.24Z"/><path class="cls-3" d="M45.19,66.2c10.39,9.93,17.25,27.08,17.25,46.57s-6.89,36.72-17.31,46.63c-9.66-20.29-15.86-47-15.86-60.29A41.91,41.91,0,0,1,45.19,66.2Z"/><path class="cls-3" d="M113.18,99.11c0,13.28-6.17,39.86-15.8,60.13-11.54-9.55-19.33-27.66-19.33-48.42,0-19.31,6.74-36.31,17-46.27A41.86,41.86,0,0,1,113.18,99.11Z"/><circle class="cls-10" cx="45.86" cy="103.99" r="8.78"/><circle class="cls-11" cx="45.86" cy="103.99" r="4.88"/><path class="cls-12" d="M81.1,172.29a1.48,1.48,0,0,0-2.07-.12,18.88,18.88,0,0,1-5.11,3.11.54.54,0,0,1-.74-.5v-9.94a2.31,2.31,0,0,1,1-2c.13-.09.27-.18.4-.29a5.08,5.08,0,0,1-1.16-.48.56.56,0,0,1-.27-.48h0a2,2,0,0,0-2-2h-.12a.55.55,0,0,1-.4-.18l-6.6-7.31A5.45,5.45,0,0,1,65,144H63.22a5.45,5.45,0,0,0-4,9.11l8,8.86.19.19a3.11,3.11,0,0,1,.94,2.23v10.4a.55.55,0,0,1-.75.5,19.08,19.08,0,0,1-5.11-3.11,1.46,1.46,0,0,0-1.95,2.18c.21.19,5.11,4.52,10.25,4.52s10-4.33,10.24-4.52A1.47,1.47,0,0,0,81.1,172.29Z"/><path class="cls-8" d="M83.27,153.1l-8,8.86a4.19,4.19,0,0,1-.66.61A5.4,5.4,0,0,1,72.05,161l-8-8.86A5.45,5.45,0,0,1,65,144H79.22A5.45,5.45,0,0,1,83.27,153.1Z"/><circle class="cls-10" cx="97.57" cy="103.99" r="8.78"/><circle class="cls-11" cx="97.57" cy="103.99" r="4.88"/><path class="cls-13" d="M369.45,148.84c-2,.24-4,.39-6.07.47-.55-1.47-1.15-2.93-1.81-4.35q-.76-1.69-1.65-3.36a70.52,70.52,0,0,0-15.13-19.54c-.72-.65-1.46-1.3-2.21-1.92l.2-.12,5.49-3.09q1,.87,2,1.8,1.75,1.6,3.36,3.33a69.58,69.58,0,0,1,11.65,16.59q1.21,2.4,2.23,4.9C368.24,145.27,368.88,147,369.45,148.84Z"/></g></g></svg>
