<svg preserveAspectRatio="xMinYMax meet" xmlns="http://www.w3.org/2000/svg" viewBox="0 0 1920 585"><defs><style>.cls-1{fill:#7995a3;}.cls-2{fill:#7d778d;}.cls-3{fill:#b29788;}.cls-4{fill:#996;}</style></defs><title>Light Mountains_1</title><g id="Layer_2" data-name="Layer 2"><g id="Background_2" data-name="Background 2"><polygon class="cls-1" points="0 133.59 34.2 142.49 90.68 85.28 190.37 56 293 102 362 86 413 57 449 165 0 174 0 133.59"/><polygon class="cls-1" points="387 111 483 72 567 91 594 48 641 41 686 0 738 55 758 45 807 72 843 134 387 134 387 111"/><polygon class="cls-1" points="800 102 914 67 933 33 978 11 1013 67 1035 113 1074 134 816.1 134 800 102"/><polygon class="cls-1" points="999 77 1074 87 1191 56 1209 79 1220 120 1245 134 1012.59 134 999 77"/><path class="cls-1" d="M1196,89l108,13,57-46s56,33,60,33,67-17,67-17l71,62H1224.08Z"/><polygon class="cls-1" points="1493 95 1551 95 1586 67 1641 50 1686 11 1761 67 1785 95 1814 134 1509.06 134 1493 95"/><polygon class="cls-1" points="1727 56 1831.49 103.8 1863.05 79.59 1920 134 1920 134 1727 134 1727 56"/><polygon class="cls-1" points="1920 181 416 164.78 416 134 1920 134 1920 181"/><path class="cls-2" d="M0,174s95-49,182-52,161,40,183,26,76.12-26.15,76.12-26.15S510.22,165,535.61,165,679,119,702,122s79.19-20.82,121.6-13.91S921.09,134,921.09,134,1012,128,1035,113s45-16,69-11,64,24,64,24l50,30,275-19.35L1590,186l49,85.09L0,254Z"/><path class="cls-2" d="M859.6,135.09C872,135,955,97,968,102s120,41,120,41,97.15-9,136.08-9S1365,175,1377,174s155,0,155,0l59.56-40L1691,149l165-24,64,49v80H1629Z"/><path class="cls-3" d="M0,217s160-45,222-28,79,42,194,56,196-38,260-30,144,70,167,87v62H0Z"/><path class="cls-3" d="M747,267s39-40,85-67,99,2,146,0,78-39,144-12,83,48,127,57,128.13-33.82,213.57-22.41S1669,281,1676,287c0,25,3,77,3,77H730.6Z"/><path class="cls-3" d="M1517,263s95-1,193-42,210-4,210-4V364H1573.56Z"/><path class="cls-4" d="M0,274.35c149,0,277,77.65,371,79.65s286.21,10,346.1,10S1098,352,1131,347s71-18,104-12,106,22.68,176,25.84c47,2.12,138.77-.16,242.5-3.23,56.4-1.66,102.48,9.57,139.61-32.93,17.14-19.62,52.05-50.33,126.89-50.33V585H0Z"/></g></g></svg>
