<svg preserveAspectRatio="xMinYMax meet" version="1.1" id="Layer_1" xmlns="http://www.w3.org/2000/svg" xmlns:xlink="http://www.w3.org/1999/xlink" x="0px" y="0px" viewBox="0 0 126 23.6" style="enable-background:new 0 0 126 23.6;" xml:space="preserve"><path fill="#61559F" d="M5.6,2.5c1-0.4,2.2-0.4,3.3-0.1l6.9,1.9c0.7,0.2,1.5,0,2.1-0.5l3.9-3.3c0.7-0.5,1.5-0.7,2.3-0.4l14.4,6c0.7,0.3,1.6,0.2,2.2-0.3l4.8-3.5c0.7-0.5,1.6-0.6,2.4-0.2l8,4c0.5,0.2,1,0.3,1.5,0.2L70,3.7c0.3-0.1,0.6-0.1,0.9,0l5.3,0.9h0.5l12.1-1c0.3,0,0.6,0.1,0.9,0.2l11.7,4.5l0,0c0.7,0.2,1.4,0.1,2-0.2l10.8-6.6c0.7-0.5,1.6-0.5,2.4-0.3l9.3,3.4l0.1,0V22c0,0.4-0.2,0.9-0.5,1.2c-0.4,0.3-0.9,0.5-1.4,0.5H1.4c0,0,0,0,0,0c-0.8,0-1.4-0.7-1.4-1.5V4.6C2,4.5,4.2,3.1,5.6,2.5z"/><path fill="#7A79B9" d="M126,6.6v17H0v-17c2.1,0.5,4.1,1,6.1,1.8c0.8,0.1,1.6,0.2,2.5,0.1l12.8-3.7c0.3-0.1,0.7-0.1,1.1,0l11.1,2.8l0.4,0.1L48,12.4c0.4,0.1,0.7,0.1,1.1,0L61,9.7l1-0.1l16-0.9c0.2,0,0.4,0,0.6,0.1l9.3,2.3c1.5,0.4,3.1,0.2,4.5-0.5l1-0.5c0.5-0.2,1-0.3,1.6-0.1l12.6,4.2c1.1,0.4,2.4,0.3,3.5-0.2c0.7-0.4,1.3-0.8,1.5-0.8l11.1-6C124.4,6.7,125.2,6.5,126,6.6z"/></svg>
