<svg version="1" xmlns="http://www.w3.org/2000/svg" viewBox="0 0 100 120.8"><path d="M85 0H15C6.7 0 0 6.7 0 15v70c0 8.3 6.7 15 15 15h44.5v20.8L80.3 100H85c8.3 0 15-6.7 15-15V15c0-8.3-6.7-15-15-15z" fill="#62b0df"/><path d="M35.2 44.7c0 2.5-.8 4.5-2.4 6.1-1.7 1.7-4 2.6-6.8 2.6h-5.4V64h-5.5V36H26c2.8 0 5.1.9 6.8 2.6 1.6 1.6 2.4 3.7 2.4 6.1zm-5.5 0c0-1.2-.4-2.1-1.1-2.8-.7-.7-1.7-1.1-3-1.1h-5.1v7.7h5.1c1.2 0 2.2-.3 3-1 .8-.7 1.1-1.6 1.1-2.8zm29.8 10.7c-.5 2.9-1.7 5.1-3.6 6.6-1.8 1.5-4.1 2.2-6.7 2.2-3 0-5.5-1-7.6-3.1-1.3-1.3-2.1-2.9-2.4-4.8-.2-1.2-.3-3.3-.3-6.3 0-3.1.1-5.2.3-6.3.4-2 1.2-3.6 2.4-4.8 2-2 4.6-3.1 7.6-3.1 2.7 0 5 .8 6.8 2.3 1.8 1.5 3 3.7 3.5 6.6H54c-.7-2.6-2.2-4-4.7-4-1.7 0-2.9.6-3.8 1.8-.7 1-1.1 3.5-1.1 7.5 0 2.2 0 3.5.1 4.1.2 1.8.6 3 1.3 3.8.9 1 2 1.5 3.5 1.5 2.5 0 4.1-1.3 4.7-4h5.5zm24.7-2.9c0 3.8-.9 6.7-2.7 8.6-2 2.1-4.7 3.2-7.9 3.2-3 0-5.5-1-7.6-3.1-1.3-1.3-2.1-2.9-2.4-4.8-.2-1.2-.3-3.3-.3-6.3 0-3.1.1-5.2.3-6.3.4-2 1.2-3.6 2.4-4.8 2-2 4.6-3.1 7.6-3.1s5.5.9 7.5 2.7c1.7 1.6 2.7 3.7 3.1 6.3h-5.5c-.7-2.7-2.3-4.1-5.1-4.1-1.4 0-2.6.5-3.5 1.5-.7.8-1.1 2-1.3 3.8-.1.5-.1 1.8-.1 4.1s0 3.6.1 4.1c.2 1.8.6 3 1.3 3.8.9 1 2 1.5 3.5 1.5 1.7 0 3-.5 3.9-1.6.8-.9 1.3-2.2 1.3-3.7V53h-5.2v-4.6h10.6v4.1z" fill="#fff"/></svg>
