<svg xmlns="http://www.w3.org/2000/svg" viewBox="0 0 120.8 38.6"><defs><style>.cls-1{isolation:isolate;}.cls-2{mix-blend-mode:overlay;}.cls-3{fill:none;}.cls-4{fill:#fff;}</style></defs><title>Asset 9</title><g class="cls-1"><g id="Layer_2" data-name="Layer 2"><g id="Layer_2-2" data-name="Layer 2"><g class="cls-2"><rect class="cls-3" x="106.15" y="19.41" width="0.42" height="0.42"/><circle class="cls-4" cx="106.36" cy="19.62" r="0.21"/><rect class="cls-3" x="100.12" y="19.37" width="0.54" height="0.54"/><circle class="cls-4" cx="100.39" cy="19.64" r="0.27"/><rect class="cls-3" x="93.42" y="19.66" width="0.6" height="0.6"/><circle class="cls-4" cx="93.72" cy="19.96" r="0.3"/><rect class="cls-3" x="88.71" y="20.67" width="0.58" height="0.58"/><circle class="cls-4" cx="89" cy="20.97" r="0.29"/><rect class="cls-3" x="84.48" y="21.84" width="0.3" height="0.3"/><circle class="cls-4" cx="84.63" cy="21.99" r="0.15"/><rect class="cls-3" x="78.96" y="21.5" width="0.53" height="0.53"/><circle class="cls-4" cx="79.22" cy="21.76" r="0.27"/><rect class="cls-3" x="73.25" y="22.99" width="0.62" height="0.62"/><circle class="cls-4" cx="73.56" cy="23.3" r="0.31"/><rect class="cls-3" x="68.46" y="23.76" width="0.62" height="0.62"/><circle class="cls-4" cx="68.77" cy="24.07" r="0.31"/><rect class="cls-3" x="61.99" y="21.94" width="0.36" height="0.36"/><circle class="cls-4" cx="62.17" cy="22.12" r="0.18"/><rect class="cls-3" x="57.26" y="23.73" width="0.51" height="0.51"/><circle class="cls-4" cx="57.52" cy="23.98" r="0.25"/><rect class="cls-3" x="61.26" y="35.43" width="0.41" height="0.41"/><circle class="cls-4" cx="61.47" cy="35.64" r="0.2"/><rect class="cls-3" x="66.89" y="32.47" width="0.38" height="0.38"/><circle class="cls-4" cx="67.08" cy="32.66" r="0.19"/><rect class="cls-3" x="72.26" y="28.66" width="0.53" height="0.53"/><circle class="cls-4" cx="72.53" cy="28.93" r="0.27"/><rect class="cls-3" x="78.83" y="26.79" width="0.54" height="0.54"/><circle class="cls-4" cx="79.1" cy="27.06" r="0.27"/><rect class="cls-3" x="84.19" y="23.83" width="0.35" height="0.35"/><circle class="cls-4" cx="84.37" cy="24.01" r="0.18"/><rect class="cls-3" x="88.97" y="17.75" width="0.38" height="0.38"/><circle class="cls-4" cx="89.16" cy="17.94" r="0.19"/><rect class="cls-3" x="78.83" y="9.5" width="0.51" height="0.51"/><circle class="cls-4" cx="79.08" cy="9.76" r="0.26"/><rect class="cls-3" x="74.61" y="11.82" width="0.49" height="0.49"/><circle class="cls-4" cx="74.85" cy="12.07" r="0.24"/><rect class="cls-3" x="70.08" y="12.73" width="0.55" height="0.55"/><circle class="cls-4" cx="70.35" cy="13" r="0.28"/><rect class="cls-3" x="63.87" y="14.44" width="0.48" height="0.48"/><circle class="cls-4" cx="64.12" cy="14.68" r="0.24"/><rect class="cls-3" x="58.57" y="16.43" width="0.59" height="0.59"/><circle class="cls-4" cx="58.87" cy="16.73" r="0.29"/><rect class="cls-3" x="53.6" y="16.4" width="0.47" height="0.47"/><circle class="cls-4" cx="53.83" cy="16.63" r="0.23"/><rect class="cls-3" x="49.38" y="20.14" width="0.38" height="0.38"/><circle class="cls-4" cx="49.57" cy="20.34" r="0.19"/><rect class="cls-3" x="53.23" y="28.72" width="0.34" height="0.34"/><circle class="cls-4" cx="53.4" cy="28.89" r="0.17"/><rect class="cls-3" x="58.61" y="24.49" width="0.31" height="0.31"/><circle class="cls-4" cx="58.77" cy="24.65" r="0.16"/><rect class="cls-3" x="62.27" y="20.88" width="0.31" height="0.31"/><circle class="cls-4" cx="62.43" cy="21.03" r="0.15"/><rect class="cls-3" x="65.92" y="15.71" width="0.37" height="0.37"/><circle class="cls-4" cx="66.11" cy="15.9" r="0.19"/><rect class="cls-3" x="70.32" y="11.05" width="0.57" height="0.57"/><circle class="cls-4" cx="70.6" cy="11.34" r="0.28"/><rect class="cls-3" x="60.94" width="0.39" height="0.39"/><circle class="cls-4" cx="61.14" cy="0.2" r="0.2"/><rect class="cls-3" x="57.53" y="3.49" width="0.35" height="0.35"/><circle class="cls-4" cx="57.7" cy="3.67" r="0.18"/><rect class="cls-3" x="52.1" y="5.19" width="0.4" height="0.4"/><circle class="cls-4" cx="52.3" cy="5.39" r="0.2"/><rect class="cls-3" x="45.76" y="7.79" width="0.61" height="0.61"/><circle class="cls-4" cx="46.07" cy="8.1" r="0.31"/><rect class="cls-3" x="40.59" y="9.97" width="0.58" height="0.58"/><circle class="cls-4" cx="40.88" cy="10.27" r="0.29"/><rect class="cls-3" x="46.81" y="18.62" width="0.32" height="0.32"/><circle class="cls-4" cx="46.97" cy="18.78" r="0.16"/><rect class="cls-3" x="48.05" y="12.42" width="0.31" height="0.31"/><circle class="cls-4" cx="48.21" cy="12.58" r="0.16"/><rect class="cls-3" x="52.78" y="7.86" width="0.52" height="0.52"/><circle class="cls-4" cx="53.04" cy="8.12" r="0.26"/><rect class="cls-3" x="20.06" y="12.67" width="0.58" height="0.58"/><circle class="cls-4" cx="20.35" cy="12.96" r="0.29"/><rect class="cls-3" x="26.78" y="13.23" width="0.48" height="0.48"/><circle class="cls-4" cx="27.02" cy="13.47" r="0.24"/><rect class="cls-3" x="31.81" y="15.09" width="0.37" height="0.37"/><circle class="cls-4" cx="31.99" cy="15.27" r="0.18"/><rect class="cls-3" x="37.24" y="15.35" width="0.51" height="0.51"/><circle class="cls-4" cx="37.49" cy="15.6" r="0.25"/><rect class="cls-3" x="42.29" y="14.79" width="0.34" height="0.34"/><circle class="cls-4" cx="42.46" cy="14.96" r="0.17"/><rect class="cls-3" x="47.94" y="14.77" width="0.58" height="0.58"/><circle class="cls-4" cx="48.22" cy="15.06" r="0.29"/><rect class="cls-3" x="52.67" y="15.85" width="0.62" height="0.62"/><circle class="cls-4" cx="52.98" cy="16.16" r="0.31"/><rect class="cls-3" x="57.71" y="15.61" width="0.54" height="0.54"/><circle class="cls-4" cx="57.98" cy="15.89" r="0.27"/><rect class="cls-3" x="64.12" y="16.23" width="0.57" height="0.57"/><circle class="cls-4" cx="64.4" cy="16.52" r="0.28"/><rect class="cls-3" x="69.42" y="17.87" width="0.51" height="0.51"/><circle class="cls-4" cx="69.67" cy="18.12" r="0.25"/><rect class="cls-3" x="75.57" y="17.2" width="0.56" height="0.56"/><circle class="cls-4" cx="75.85" cy="17.48" r="0.28"/><rect class="cls-3" x="79.9" y="19.19" width="0.37" height="0.37"/><circle class="cls-4" cx="80.08" cy="19.37" r="0.18"/><rect class="cls-3" x="85.61" y="18.97" width="0.31" height="0.31"/><circle class="cls-4" cx="85.76" cy="19.13" r="0.15"/><rect class="cls-3" x="90.96" y="19.38" width="0.31" height="0.31"/><circle class="cls-4" cx="91.12" cy="19.53" r="0.16"/><rect class="cls-3" x="97.5" y="19.88" width="0.58" height="0.58"/><circle class="cls-4" cx="97.79" cy="20.17" r="0.29"/><rect class="cls-3" x="102.55" y="21.28" width="0.58" height="0.58"/><circle class="cls-4" cx="102.84" cy="21.57" r="0.29"/><rect class="cls-3" x="109.13" y="23.34" width="0.34" height="0.34"/><circle class="cls-4" cx="109.3" cy="23.5" r="0.17"/><rect class="cls-3" x="115.84" y="23.2" width="0.33" height="0.33"/><circle class="cls-4" cx="116.01" cy="23.37" r="0.17"/><rect class="cls-3" x="120.35" y="8.05" width="0.45" height="0.45"/><circle class="cls-4" cx="120.58" cy="8.27" r="0.22"/><rect class="cls-3" x="115.4" y="8.6" width="0.4" height="0.4"/><circle class="cls-4" cx="115.6" cy="8.8" r="0.2"/><rect class="cls-3" x="109.4" y="10.45" width="0.42" height="0.42"/><circle class="cls-4" cx="109.61" cy="10.66" r="0.21"/><rect class="cls-3" x="103.37" y="10.95" width="0.37" height="0.37"/><circle class="cls-4" cx="103.56" cy="11.14" r="0.19"/><rect class="cls-3" x="96.97" y="9.63" width="0.38" height="0.38"/><circle class="cls-4" cx="97.16" cy="9.82" r="0.19"/><rect class="cls-3" x="92.67" y="11.17" width="0.43" height="0.43"/><circle class="cls-4" cx="92.88" cy="11.39" r="0.22"/><rect class="cls-3" x="88.23" y="11.89" width="0.41" height="0.41"/><circle class="cls-4" cx="88.44" cy="12.09" r="0.2"/><rect class="cls-3" x="80.56" y="13.1" width="0.62" height="0.62"/><circle class="cls-4" cx="80.87" cy="13.41" r="0.31"/><rect class="cls-3" x="75.17" y="16.82" width="0.42" height="0.42"/><circle class="cls-4" cx="75.37" cy="17.03" r="0.21"/><rect class="cls-3" x="69.96" y="16.48" width="0.54" height="0.54"/><circle class="cls-4" cx="70.23" cy="16.75" r="0.27"/><rect class="cls-3" x="64.33" y="19.41" width="0.63" height="0.63"/><circle class="cls-4" cx="64.65" cy="19.73" r="0.32"/><rect class="cls-3" x="60.32" y="23.26" width="0.42" height="0.42"/><circle class="cls-4" cx="60.53" cy="23.47" r="0.21"/><rect class="cls-3" x="55.99" y="23.25" width="0.4" height="0.4"/><circle class="cls-4" cx="56.2" cy="23.45" r="0.2"/><rect class="cls-3" x="58.31" y="26.32" width="0.43" height="0.43"/><circle class="cls-4" cx="58.52" cy="26.53" r="0.21"/><rect class="cls-3" x="57.26" y="23.84" width="0.33" height="0.33"/><circle class="cls-4" cx="57.42" cy="24.01" r="0.17"/><rect class="cls-3" x="54.51" y="18.03" width="0.58" height="0.58"/><circle class="cls-4" cx="54.8" cy="18.32" r="0.29"/><rect class="cls-3" x="53.16" y="11.47" width="0.36" height="0.36"/><circle class="cls-4" cx="53.34" cy="11.66" r="0.18"/><rect class="cls-3" x="50.31" y="5.4" width="0.47" height="0.47"/><circle class="cls-4" cx="50.54" cy="5.63" r="0.23"/><rect class="cls-3" x="36.83" y="2.58" width="0.5" height="0.5"/><circle class="cls-4" cx="37.08" cy="2.83" r="0.25"/><rect class="cls-3" x="34.31" y="7.37" width="0.57" height="0.57"/><circle class="cls-4" cx="34.6" cy="7.65" r="0.29"/><rect class="cls-3" x="31.04" y="13.06" width="0.55" height="0.55"/><circle class="cls-4" cx="31.32" cy="13.34" r="0.28"/><rect class="cls-3" x="26.72" y="16.14" width="0.51" height="0.51"/><circle class="cls-4" cx="26.97" cy="16.39" r="0.25"/><rect class="cls-3" x="24.61" y="20.59" width="0.35" height="0.35"/><circle class="cls-4" cx="24.79" cy="20.77" r="0.18"/><rect class="cls-3" x="19.4" y="24.29" width="0.44" height="0.44"/><circle class="cls-4" cx="19.62" cy="24.51" r="0.22"/><rect class="cls-3" x="17.23" y="26.06" width="0.55" height="0.55"/><circle class="cls-4" cx="17.51" cy="26.34" r="0.28"/><rect class="cls-3" x="24.53" y="29.96" width="0.47" height="0.47"/><circle class="cls-4" cx="24.77" cy="30.2" r="0.24"/><rect class="cls-3" x="23.83" y="23.86" width="0.64" height="0.64"/><circle class="cls-4" cx="24.14" cy="24.18" r="0.32"/><rect class="cls-3" x="23.45" y="17.36" width="0.5" height="0.5"/><circle class="cls-4" cx="23.69" cy="17.61" r="0.25"/><rect class="cls-3" x="24.21" y="13.03" width="0.48" height="0.48"/><circle class="cls-4" cx="24.45" cy="13.27" r="0.24"/><rect class="cls-3" x="25.22" y="6.49" width="0.33" height="0.33"/><circle class="cls-4" cx="25.38" cy="6.65" r="0.16"/><rect class="cls-3" x="41.46" y="15.79" width="0.56" height="0.56"/><circle class="cls-4" cx="41.74" cy="16.07" r="0.28"/><rect class="cls-3" x="36.09" y="16.81" width="0.42" height="0.42"/><circle class="cls-4" cx="36.3" cy="17.01" r="0.21"/><rect class="cls-3" x="31.71" y="19.31" width="0.57" height="0.57"/><circle class="cls-4" cx="32" cy="19.6" r="0.29"/><rect class="cls-3" x="26.05" y="24.27" width="0.4" height="0.4"/><circle class="cls-4" cx="26.24" cy="24.46" r="0.2"/><rect class="cls-3" x="99.8" y="3.92" width="0.44" height="0.44"/><circle class="cls-4" cx="100.02" cy="4.15" r="0.22"/><rect class="cls-3" x="94.49" y="4.81" width="0.51" height="0.51"/><circle class="cls-4" cx="94.74" cy="5.06" r="0.26"/><rect class="cls-3" x="88" y="2.87" width="0.51" height="0.51"/><circle class="cls-4" cx="88.26" cy="3.12" r="0.26"/><rect class="cls-3" x="81.21" y="3.08" width="0.61" height="0.61"/><circle class="cls-4" cx="81.52" cy="3.39" r="0.3"/><rect class="cls-3" x="75.19" y="2.73" width="0.54" height="0.54"/><circle class="cls-4" cx="75.46" cy="3" r="0.27"/><rect class="cls-3" x="69.05" y="2.57" width="0.33" height="0.33"/><circle class="cls-4" cx="69.22" cy="2.73" r="0.16"/><rect class="cls-3" x="64.49" y="3.35" width="0.34" height="0.34"/><circle class="cls-4" cx="64.66" cy="3.52" r="0.17"/><rect class="cls-3" x="57.69" y="4.79" width="0.52" height="0.52"/><circle class="cls-4" cx="57.95" cy="5.05" r="0.26"/><rect class="cls-3" x="52.66" y="6.47" width="0.44" height="0.44"/><circle class="cls-4" cx="52.88" cy="6.69" r="0.22"/><rect class="cls-3" x="47.75" y="6.58" width="0.45" height="0.45"/><circle class="cls-4" cx="47.98" cy="6.8" r="0.22"/><rect class="cls-3" x="43.17" y="8.03" width="0.39" height="0.39"/><circle class="cls-4" cx="43.37" cy="8.23" r="0.2"/><rect class="cls-3" x="38.23" y="8.41" width="0.47" height="0.47"/><circle class="cls-4" cx="38.46" cy="8.65" r="0.23"/><rect class="cls-3" x="33.81" y="10.76" width="0.5" height="0.5"/><circle class="cls-4" cx="34.06" cy="11.01" r="0.25"/><rect class="cls-3" x="28.94" y="11.39" width="0.61" height="0.61"/><circle class="cls-4" cx="29.25" cy="11.69" r="0.31"/><rect class="cls-3" x="24.46" y="12.28" width="0.45" height="0.45"/><circle class="cls-4" cx="24.69" cy="12.51" r="0.23"/><rect class="cls-3" x="19.07" y="12.91" width="0.55" height="0.55"/><circle class="cls-4" cx="19.34" cy="13.19" r="0.28"/><rect class="cls-3" x="12.91" y="13.46" width="0.47" height="0.47"/><circle class="cls-4" cx="13.15" cy="13.7" r="0.24"/><rect class="cls-3" x="5.59" y="12.89" width="0.32" height="0.32"/><circle class="cls-4" cx="5.75" cy="13.05" r="0.16"/><rect class="cls-3" y="15.18" width="0.3" height="0.3"/><circle class="cls-4" cx="0.15" cy="15.33" r="0.15"/><rect class="cls-3" x="6.87" y="28.21" width="0.56" height="0.56"/><circle class="cls-4" cx="7.15" cy="28.48" r="0.28"/><rect class="cls-3" x="11.96" y="30.59" width="0.45" height="0.45"/><circle class="cls-4" cx="12.19" cy="30.81" r="0.23"/><rect class="cls-3" x="17.25" y="29.02" width="0.47" height="0.47"/><circle class="cls-4" cx="17.49" cy="29.25" r="0.23"/><rect class="cls-3" x="22.7" y="30.05" width="0.32" height="0.32"/><circle class="cls-4" cx="22.86" cy="30.21" r="0.16"/><rect class="cls-3" x="27.51" y="30.18" width="0.32" height="0.32"/><circle class="cls-4" cx="27.67" cy="30.34" r="0.16"/><rect class="cls-3" x="32.64" y="30.76" width="0.37" height="0.37"/><circle class="cls-4" cx="32.83" cy="30.95" r="0.19"/><rect class="cls-3" x="38.29" y="31.65" width="0.35" height="0.35"/><circle class="cls-4" cx="38.47" cy="31.82" r="0.18"/><rect class="cls-3" x="43" y="33.92" width="0.35" height="0.35"/><circle class="cls-4" cx="43.17" cy="34.09" r="0.17"/><rect class="cls-3" x="48.41" y="34.13" width="0.48" height="0.48"/><circle class="cls-4" cx="48.64" cy="34.36" r="0.24"/><rect class="cls-3" x="55.25" y="33.3" width="0.39" height="0.39"/><circle class="cls-4" cx="55.45" cy="33.5" r="0.2"/><rect class="cls-3" x="61.16" y="35.42" width="0.57" height="0.57"/><circle class="cls-4" cx="61.44" cy="35.7" r="0.29"/><rect class="cls-3" x="66.91" y="36.4" width="0.39" height="0.39"/><circle class="cls-4" cx="67.11" cy="36.59" r="0.19"/><rect class="cls-3" x="71.38" y="35.68" width="0.63" height="0.63"/><circle class="cls-4" cx="71.7" cy="36" r="0.32"/><rect class="cls-3" x="76.08" y="36.82" width="0.63" height="0.63"/><circle class="cls-4" cx="76.39" cy="37.14" r="0.32"/><rect class="cls-3" x="81.5" y="35.79" width="0.44" height="0.44"/><circle class="cls-4" cx="81.72" cy="36.01" r="0.22"/><rect class="cls-3" x="85.93" y="36.85" width="0.38" height="0.38"/><circle class="cls-4" cx="86.13" cy="37.04" r="0.19"/><rect class="cls-3" x="101.1" y="38.09" width="0.51" height="0.51"/><circle class="cls-4" cx="101.36" cy="38.35" r="0.26"/><rect class="cls-3" x="94.75" y="37.95" width="0.35" height="0.35"/><circle class="cls-4" cx="94.92" cy="38.13" r="0.18"/><rect class="cls-3" x="90.1" y="36.7" width="0.51" height="0.51"/><circle class="cls-4" cx="90.35" cy="36.95" r="0.25"/><rect class="cls-3" x="85.66" y="36.87" width="0.6" height="0.6"/><circle class="cls-4" cx="85.96" cy="37.17" r="0.3"/><rect class="cls-3" x="81.9" y="37.5" width="0.47" height="0.47"/><circle class="cls-4" cx="82.13" cy="37.73" r="0.23"/><rect class="cls-3" x="77.38" y="36.81" width="0.3" height="0.3"/><circle class="cls-4" cx="77.53" cy="36.96" r="0.15"/><rect class="cls-3" x="73.49" y="34.18" width="0.31" height="0.31"/><circle class="cls-4" cx="73.65" cy="34.33" r="0.15"/><rect class="cls-3" x="66.92" y="32.42" width="0.41" height="0.41"/><circle class="cls-4" cx="67.13" cy="32.62" r="0.2"/><rect class="cls-3" x="61.21" y="30.46" width="0.52" height="0.52"/><circle class="cls-4" cx="61.47" cy="30.72" r="0.26"/><rect class="cls-3" x="56.05" y="27.87" width="0.62" height="0.62"/><circle class="cls-4" cx="56.35" cy="28.18" r="0.31"/><rect class="cls-3" x="52.37" y="24.34" width="0.53" height="0.53"/><circle class="cls-4" cx="52.64" cy="24.61" r="0.27"/><rect class="cls-3" x="47.25" y="21.99" width="0.34" height="0.34"/><circle class="cls-4" cx="47.42" cy="22.16" r="0.17"/><rect class="cls-3" x="41.21" y="19.88" width="0.49" height="0.49"/><circle class="cls-4" cx="41.45" cy="20.13" r="0.25"/><rect class="cls-3" x="35.44" y="18.93" width="0.38" height="0.38"/><circle class="cls-4" cx="35.63" cy="19.12" r="0.19"/><rect class="cls-3" x="29.95" y="19.1" width="0.38" height="0.38"/><circle class="cls-4" cx="30.14" cy="19.29" r="0.19"/><rect class="cls-3" x="24.2" y="17.53" width="0.39" height="0.39"/><circle class="cls-4" cx="24.39" cy="17.72" r="0.2"/><rect class="cls-3" x="19.41" y="14.67" width="0.45" height="0.45"/><circle class="cls-4" cx="19.63" cy="14.9" r="0.22"/><rect class="cls-3" x="14.35" y="12.92" width="0.57" height="0.57"/><circle class="cls-4" cx="14.63" cy="13.2" r="0.29"/><rect class="cls-3" x="52.73" y="20.78" width="0.49" height="0.49"/><circle class="cls-4" cx="52.97" cy="21.02" r="0.25"/><rect class="cls-3" x="49.02" y="15.19" width="0.48" height="0.48"/><circle class="cls-4" cx="49.26" cy="15.43" r="0.24"/><rect class="cls-3" x="42.99" y="10.99" width="0.31" height="0.31"/><circle class="cls-4" cx="43.14" cy="11.14" r="0.16"/><rect class="cls-3" x="38.93" y="8.43" width="0.6" height="0.6"/><circle class="cls-4" cx="39.23" cy="8.73" r="0.3"/></g></g></g></g></svg>
