<svg xmlns="http://www.w3.org/2000/svg" xmlns:xlink="http://www.w3.org/1999/xlink" viewBox="0 0 26 26" version="1.1"><path fill="white" d="M 6 3 L 6 7.34375 L 6.78125 7.34375 C 6.847656 7.097656 6.980469 6.785156 7.15625 6.40625 C 7.332031 6.027344 7.523438 5.652344 7.75 5.3125 C 7.976563 4.972656 8.230469 4.671875 8.5 4.40625 C 8.765625 4.140625 9.03125 4 9.28125 3.96875 C 9.597656 3.929688 9.933594 3.917969 10.28125 3.90625 C 10.628906 3.894531 10.890625 3.875 11.125 3.875 L 11.78125 3.875 L 11.78125 12 L 6 12 L 6 14 L 11.78125 14 L 11.78125 16.78125 C 11.78125 17.089844 11.742188 17.347656 11.625 17.53125 C 11.507813 17.714844 11.3125 17.839844 11.0625 17.9375 C 10.894531 18.003906 10.589844 18.078125 10.15625 18.125 C 9.722656 18.171875 9.398438 18.171875 9.1875 18.1875 L 9.1875 19 L 16.78125 19 L 16.78125 18.1875 C 16.539063 18.179688 16.214844 18.152344 15.78125 18.0625 C 15.347656 17.972656 15.042969 17.898438 14.90625 17.84375 C 14.640625 17.730469 14.480469 17.582031 14.375 17.375 C 14.269531 17.167969 14.21875 16.933594 14.21875 16.6875 L 14.21875 14 L 20 14 L 20 12 L 14.21875 12 L 14.21875 3.875 L 14.875 3.875 C 15.175781 3.875 15.488281 3.890625 15.84375 3.90625 C 16.199219 3.921875 16.515625 3.9375 16.75 3.96875 C 17 4.003906 17.230469 4.148438 17.5 4.40625 C 17.769531 4.664063 18.023438 4.964844 18.25 5.3125 C 18.46875 5.644531 18.664063 6.003906 18.84375 6.375 C 19.019531 6.746094 19.152344 7.074219 19.21875 7.34375 L 20 7.34375 L 20 3 Z "></path></svg>
