<?xml version="1.0" encoding="utf-8"?>
<!-- Generator: Adobe Illustrator 19.1.0, SVG Export Plug-In . SVG Version: 6.00 Build 0)  -->
<svg version="1.1" id="Layer_1" xmlns="http://www.w3.org/2000/svg" xmlns:xlink="http://www.w3.org/1999/xlink" x="0px" y="0px"
	 width="350px" height="350px" viewBox="0 0 350 350" style="enable-background:new 0 0 350 350;" xml:space="preserve">
<style type="text/css">
	.st0{fill:#231F20;}
	.st1{fill:#FDE428;}
	.st2{fill:#EEA603;}
</style>
<path class="st0" d="M300,350H50.9c-27.5,0-50-22.5-50-50V50c0-27.5,22.5-50,50-50H300c27.5,0,50,22.5,50,50v250
	C350,327.5,327.5,350,300,350z"/>
<path class="st1" d="M49.2,109l116.2,6.8L302,169c0,37.1,0,74.4,0,111.5c0,0.7,0,1.1-0.6,1.5c-1.7,1.1-3.6,1.2-5.4,0.8
	c-2.9-0.5-5.8-1.3-8.7-2c-13.7-3.3-27.5-6.6-41.2-9.9c-10.1-2.4-20.1-4.8-30.2-7.3c-15.1-3.7-30.3-7.4-45.4-11
	c-9.4-2.3-18.8-4.6-28.2-6.9c-12.2-3-24.3-6-36.5-9c-9.3-2.3-18.6-4.6-27.9-6.8c-9.2-2.2-18.3-4.5-27.5-6.7
	c-0.3-0.1-0.8-0.1-1.2-0.3c-0.8-0.2-1.4-0.9-1.4-1.7c0-0.4,0-0.8,0-1.3c0-3.4,0-6.8,0-10.3c0-4.7,0-9.5,0.1-14.2
	c0.1-10.3,0.1-20.6,0.2-30.9c0.1-8.5,0-17,0.2-25.4c0.1-9.7,0.1-20.3,0.1-30L49.2,109z"/>
<path class="st2" d="M296.1,168.4c-3.2-0.3-6.3-1.2-9.4-1.9c-4.4-1.1-8.8-2.2-13.2-3.2c-4.1-1-8.1-2-12.2-2.9c-4.3-1-8.6-2.1-13-3.2
	c-4.1-1-8.2-2-12.3-3c-4-1-8.1-1.9-12.1-2.9c-3.9-0.9-7.8-1.9-11.6-2.8c-3.5-0.8-6.9-1.7-10.4-2.5c-5.2-1.3-10.4-2.5-15.7-3.8
	c-4.6-1.1-9.2-2.2-13.9-3.3c-4.6-1.1-9.3-2.2-13.9-3.3c-4.4-1.1-8.8-2.1-13.2-3.2c-4.1-1-8.2-2-12.4-2.9c-4.1-1-8.3-2-12.4-3
	c-4.1-1-8.2-2-12.4-2.9c-3.9-0.9-7.8-1.9-11.7-2.8c-4.1-1-8.2-1.9-12.3-2.9c-3.9-0.9-7.9-1.9-11.8-2.8c-4.1-1-8.1-1.9-12.2-2.9
	c-3.7-0.9-7.4-1.8-11.1-2.7c-0.2-0.1-0.6-0.2-0.8-0.4c0.1-0.4,0.2-0.5,0.5-0.7c0.5-0.4,1-0.8,1.5-1.2c17.7-12.8,37-22.5,57.8-29.4
	c10.7-3.5,21.6-6.3,32.6-8.4c4.4-0.8,8.8-1.6,13.3-2.1c6.8-0.8,13.2,0.5,19.2,3.9c2.1,1.2,4.1,2.7,6,4.1
	c12.8,9.9,25.7,19.5,38.7,29.2c16.1,12,32.2,23.9,48.2,36c5.8,4.4,11.8,8.5,17.7,12.8c5.8,4.3,12.8,10.7,18.1,15.8"/>
</svg>
