<svg xmlns="http://www.w3.org/2000/svg" width="642.52" height="453.543" viewBox="0 0 481.8897 340.1574"><defs><clipPath id="a"><path d="M0 340.156h481.89V0H0v340.156zm0 0"/></clipPath></defs><g clip-path="url(#a)"><path d="M0 340.156l113.387-170.078L0 0h85.04l113.386 170.078L85.039 340.156H0zm0 0" fill="#666"/><path d="M113.387 340.156l113.386-170.078L113.387 0h85.039l226.77 340.156h-85.04L269.293 233.86l-70.867 106.297h-85.04zm0 0" fill="#999"/><path d="M387.402 240.945l-37.793-56.691 132.282-.004v56.695h-94.489zm0 0M330.71 155.906l-37.796-56.691 188.977-.004v56.695H330.71zm0 0" fill="#666"/></g></svg>
