<svg xmlns="http://www.w3.org/2000/svg" width="235.1" height="235.5" viewBox="0 0 235.1 235.5"><style>.st0{fill:url(#SVGID_1_)}.st1{fill:url(#SVGID_2_)}</style><linearGradient id="SVGID_1_" gradientUnits="userSpaceOnUse" x1="174.518" y1="86.364" x2="-.499" y2="87.755"><stop offset="0" stop-color="#366a96"/><stop offset="1" stop-color="#3679b0"/></linearGradient><path class="st0" d="M145.7 2.3C126.2-.9 105.3-.6 89 2.3c-24 4.2-28.4 13-28.4 29.2v21.4h56.7V60H39.4C22.9 60.1 8.5 69.9 4 88.6c-5.2 21.4-5.4 34.7 0 57.1 4 16.6 13.6 28.5 30.1 28.5h19.5v-25.7c0-18.5 16.2-34.9 35.4-34.9h56.7c15.8 0 28.4-12.9 28.4-28.5V31.5c0-15.2-13-26.7-28.4-29.2zM85.5 38.7c-5.9 0-10.6-4.8-10.6-10.7 0-5.9 4.7-10.7 10.6-10.7 5.9 0 10.6 4.8 10.6 10.7 0 5.9-4.7 10.7-10.6 10.7z"/><linearGradient id="SVGID_2_" gradientUnits="userSpaceOnUse" x1="235.132" y1="147.773" x2="-109.466" y2="147.773"><stop offset="0" stop-color="#ffc836"/><stop offset="1" stop-color="#ffe873"/></linearGradient><path class="st1" d="M230.8 88.6c-4.1-16.3-11.8-28.5-28.4-28.5h-21.3V85c0 19.3-16.6 35.7-35.4 35.7H89c-15.5 0-28.4 13.1-28.4 28.5v53.5c0 15.2 13.4 24.2 28.4 28.5 18 5.2 35.2 6.2 56.7 0 14.3-4.1 28.4-12.3 28.4-28.5v-21.4h-56.7v-7.1h85.1c16.5 0 22.6-11.4 28.4-28.5 5.8-17.7 5.6-34.6-.1-57.1zm-81.5 107c5.9 0 10.6 4.8 10.6 10.7 0 5.9-4.7 10.7-10.6 10.7-5.9 0-10.6-4.8-10.6-10.7 0-6 4.7-10.7 10.6-10.7z"/></svg>
