<?xml version="1.0" encoding="UTF-8" standalone="no"?>
<svg
   xmlns:svg="http://www.w3.org/2000/svg"
   xmlns="http://www.w3.org/2000/svg"
   xmlns:xlink="http://www.w3.org/1999/xlink"
   version="1.1"
   width="315"
   height="299.9986"
   id="svg2816">
  <defs
     id="defs3">
    <linearGradient
       id="linearGradient4097">
      <stop
         id="stop4099"
         style="stop-color:#33bdf2;stop-opacity:0.69803923"
         offset="0" />
      <stop
         id="stop4101"
         style="stop-color:#1dacd8;stop-opacity:1"
         offset="1" />
    </linearGradient>
    <linearGradient
       id="linearGradient4062">
      <stop
         id="stop4064"
         style="stop-color:#05a1e6;stop-opacity:0.24705882"
         offset="0" />
      <stop
         id="stop4066"
         style="stop-color:#05a1e6;stop-opacity:1"
         offset="1" />
    </linearGradient>
    <radialGradient
       cx="0"
       cy="0"
       r="1"
       fx="0"
       fy="0"
       id="radialGradient4775"
       gradientUnits="userSpaceOnUse"
       gradientTransform="matrix(-368.83783,3054.2361,3027.4705,178.24222,-35.956055,775.32812)"
       spreadMethod="pad">
      <stop
         id="stop4777"
         style="stop-color:#ffffff;stop-opacity:1"
         offset="0" />
      <stop
         id="stop4779"
         style="stop-color:#9ca6b0;stop-opacity:1"
         offset="0.90658599" />
      <stop
         id="stop4781"
         style="stop-color:#9ca6b0;stop-opacity:1"
         offset="0.90658599" />
      <stop
         id="stop4783"
         style="stop-color:#c2c6cc;stop-opacity:1"
         offset="1" />
    </radialGradient>
    <linearGradient
       x1="0"
       y1="0"
       x2="1"
       y2="0"
       id="linearGradient12325"
       gradientUnits="userSpaceOnUse"
       gradientTransform="matrix(0,-29.661301,-29.661301,0,2008.5107,86.026367)"
       spreadMethod="pad">
      <stop
         id="stop12327"
         style="stop-color:#0994dc;stop-opacity:1"
         offset="0" />
      <stop
         id="stop12329"
         style="stop-color:#66cef5;stop-opacity:1"
         offset="0.35000601" />
      <stop
         id="stop12331"
         style="stop-color:#66cef5;stop-opacity:1"
         offset="0.35000601" />
      <stop
         id="stop12333"
         style="stop-color:#127bca;stop-opacity:1"
         offset="0.84616101" />
      <stop
         id="stop12335"
         style="stop-color:#127bca;stop-opacity:1"
         offset="0.84616101" />
      <stop
         id="stop12337"
         style="stop-color:#127bca;stop-opacity:1"
         offset="1" />
    </linearGradient>
    <linearGradient
       x1="0"
       y1="0"
       x2="1"
       y2="0"
       id="linearGradient12353"
       gradientUnits="userSpaceOnUse"
       gradientTransform="matrix(0,-30.417221,-30.417221,0,2009.6416,86.777344)"
       spreadMethod="pad">
      <stop
         id="stop12355"
         style="stop-color:#0e76bc;stop-opacity:1"
         offset="0" />
      <stop
         id="stop12357"
         style="stop-color:#36aee8;stop-opacity:1"
         offset="0.360001" />
      <stop
         id="stop12359"
         style="stop-color:#36aee8;stop-opacity:1"
         offset="0.360001" />
      <stop
         id="stop12361"
         style="stop-color:#00adef;stop-opacity:1"
         offset="0.84616101" />
      <stop
         id="stop12363"
         style="stop-color:#00adef;stop-opacity:1"
         offset="0.84616101" />
      <stop
         id="stop12365"
         style="stop-color:#00adef;stop-opacity:1"
         offset="1" />
    </linearGradient>
    <linearGradient
       x1="0"
       y1="0"
       x2="1"
       y2="0"
       id="linearGradient12439"
       gradientUnits="userSpaceOnUse"
       gradientTransform="matrix(0,24.20256,24.20256,0,2015.7549,62.94043)"
       spreadMethod="pad">
      <stop
         id="stop12441"
         style="stop-color:#1c63b7;stop-opacity:1"
         offset="0" />
      <stop
         id="stop12443"
         style="stop-color:#33bdf2;stop-opacity:1"
         offset="0.5" />
      <stop
         id="stop12445"
         style="stop-color:#33bdf2;stop-opacity:0.41960785"
         offset="1" />
    </linearGradient>
    <linearGradient
       x1="0"
       y1="0"
       x2="1"
       y2="0"
       id="linearGradient12539"
       gradientUnits="userSpaceOnUse"
       gradientTransform="matrix(0,-31.580948,-31.580948,0,2014.1641,89.859375)"
       spreadMethod="pad">
      <stop
         id="stop12541"
         style="stop-color:#166ab8;stop-opacity:1"
         offset="0" />
      <stop
         id="stop12543"
         style="stop-color:#36aee8;stop-opacity:1"
         offset="0.39999399" />
      <stop
         id="stop12545"
         style="stop-color:#36aee8;stop-opacity:1"
         offset="0.39999399" />
      <stop
         id="stop12547"
         style="stop-color:#0798dd;stop-opacity:1"
         offset="0.84616101" />
      <stop
         id="stop12549"
         style="stop-color:#0798dd;stop-opacity:1"
         offset="0.84616101" />
      <stop
         id="stop12551"
         style="stop-color:#0798dd;stop-opacity:1"
         offset="1" />
    </linearGradient>
    <linearGradient
       x1="0"
       y1="0"
       x2="1"
       y2="0"
       id="linearGradient12567"
       gradientUnits="userSpaceOnUse"
       gradientTransform="matrix(0,-33.582153,-33.582153,0,2011.6748,89.693359)"
       spreadMethod="pad">
      <stop
         id="stop12569"
         style="stop-color:#124379;stop-opacity:1"
         offset="0" />
      <stop
         id="stop12571"
         style="stop-color:#1487cb;stop-opacity:1"
         offset="0.389999" />
      <stop
         id="stop12573"
         style="stop-color:#1487cb;stop-opacity:1"
         offset="0.389999" />
      <stop
         id="stop12575"
         style="stop-color:#165197;stop-opacity:1"
         offset="0.78022802" />
      <stop
         id="stop12577"
         style="stop-color:#165197;stop-opacity:1"
         offset="0.78022802" />
      <stop
         id="stop12579"
         style="stop-color:#165197;stop-opacity:1"
         offset="1" />
    </linearGradient>
    <linearGradient
       x1="0"
       y1="0"
       x2="1"
       y2="0"
       id="linearGradient12721"
       gradientUnits="userSpaceOnUse"
       gradientTransform="matrix(0,23.576645,23.576645,0,2033.8457,63.546875)"
       spreadMethod="pad">
      <stop
         id="stop12723"
         style="stop-color:#136ab4;stop-opacity:1"
         offset="0" />
      <stop
         id="stop12725"
         style="stop-color:#59caf5;stop-opacity:0.54901963"
         offset="0.60000002" />
      <stop
         id="stop12727"
         style="stop-color:#59caf5;stop-opacity:0.23529412"
         offset="1" />
    </linearGradient>
    <linearGradient
       x1="0"
       y1="0"
       x2="1"
       y2="0"
       id="linearGradient12825"
       gradientUnits="userSpaceOnUse"
       gradientTransform="matrix(0,24.140579,24.140579,0,1991.0918,62.953125)"
       spreadMethod="pad">
      <stop
         id="stop12827"
         style="stop-color:#318ed5;stop-opacity:1"
         offset="0" />
      <stop
         id="stop12829"
         style="stop-color:#38a7e4;stop-opacity:1"
         offset="1" />
    </linearGradient>
    <linearGradient
       x1="0"
       y1="0"
       x2="1"
       y2="0"
       id="linearGradient12905"
       gradientUnits="userSpaceOnUse"
       gradientTransform="matrix(0,23.465958,23.465958,0,1992.6113,62.868164)"
       spreadMethod="pad">
      <stop
         id="stop12907"
         style="stop-color:#05a1e6;stop-opacity:1"
         offset="0" />
      <stop
         id="stop12909"
         style="stop-color:#05a1e6;stop-opacity:0.54901963"
         offset="1" />
    </linearGradient>
    <linearGradient
       x1="0"
       y1="0"
       x2="1"
       y2="0"
       id="linearGradient12937"
       gradientUnits="userSpaceOnUse"
       gradientTransform="matrix(0,19.829102,19.829102,0,1993.873,61.670898)"
       spreadMethod="pad">
      <stop
         id="stop12939"
         style="stop-color:#1959a6;stop-opacity:1"
         offset="0" />
      <stop
         id="stop12941"
         style="stop-color:#05a1e6;stop-opacity:1"
         offset="0.5" />
      <stop
         id="stop12943"
         style="stop-color:#05a1e6;stop-opacity:1"
         offset="0.5" />
      <stop
         id="stop12945"
         style="stop-color:#7ec5ea;stop-opacity:1"
         offset="0.91758698" />
      <stop
         id="stop12947"
         style="stop-color:#7ec5ea;stop-opacity:1"
         offset="1" />
    </linearGradient>
    <linearGradient
       x1="0"
       y1="0"
       x2="1"
       y2="0"
       id="linearGradient12975"
       gradientUnits="userSpaceOnUse"
       gradientTransform="matrix(-3.7910919,21.500351,21.500351,3.7910919,1994.6328,62.9375)"
       spreadMethod="pad">
      <stop
         id="stop12977"
         style="stop-color:#165096;stop-opacity:1"
         offset="0" />
      <stop
         id="stop12979"
         style="stop-color:#0d82ca;stop-opacity:1"
         offset="1" />
    </linearGradient>
    <linearGradient
       x1="0"
       y1="0"
       x2="1"
       y2="0"
       id="linearGradient12995"
       gradientUnits="userSpaceOnUse"
       gradientTransform="matrix(0,11.235931,11.235931,0,2029.8086,75.09668)"
       spreadMethod="pad">
      <stop
         id="stop12997"
         style="stop-color:#05a1e6;stop-opacity:1"
         offset="0" />
      <stop
         id="stop12999"
         style="stop-color:#0495d6;stop-opacity:1"
         offset="0.87362701" />
      <stop
         id="stop13001"
         style="stop-color:#0495d6;stop-opacity:1"
         offset="1" />
    </linearGradient>
    <linearGradient
       x1="0"
       y1="0"
       x2="1"
       y2="0"
       id="linearGradient13071"
       gradientUnits="userSpaceOnUse"
       gradientTransform="matrix(-4.5685425,-25.909454,-25.909454,4.5685425,2035.0898,87.371094)"
       spreadMethod="pad">
      <stop
         id="stop13073"
         style="stop-color:#38a7e4;stop-opacity:0.32941177"
         offset="0" />
      <stop
         id="stop13075"
         style="stop-color:#0e88d3;stop-opacity:1"
         offset="0.96153301" />
      <stop
         id="stop13077"
         style="stop-color:#0e88d3;stop-opacity:1"
         offset="0.96153301" />
      <stop
         id="stop13079"
         style="stop-color:#0e88d3;stop-opacity:1"
         offset="1" />
    </linearGradient>
    <linearGradient
       x1="0"
       y1="0"
       x2="1"
       y2="0"
       id="linearGradient13131"
       gradientUnits="userSpaceOnUse"
       gradientTransform="matrix(0,-24.512451,-24.512451,0,2031,86.461914)"
       spreadMethod="pad">
      <stop
         id="stop13133"
         style="stop-color:#168cd4;stop-opacity:1"
         offset="0" />
      <stop
         id="stop13135"
         style="stop-color:#1c87cc;stop-opacity:1"
         offset="0.5" />
      <stop
         id="stop13137"
         style="stop-color:#154b8d;stop-opacity:1"
         offset="1" />
    </linearGradient>
    <linearGradient
       x1="0"
       y1="0"
       x2="1"
       y2="0"
       id="linearGradient13207"
       gradientUnits="userSpaceOnUse"
       gradientTransform="matrix(5.646286,-2.3419189,-2.3419189,-5.646286,1999.7344,86.96582)"
       spreadMethod="pad">
      <stop
         id="stop13209"
         style="stop-color:#97d6ee;stop-opacity:1"
         offset="0" />
      <stop
         id="stop13211"
         style="stop-color:#55c1ea;stop-opacity:1"
         offset="0.70329303" />
      <stop
         id="stop13213"
         style="stop-color:#55c1ea;stop-opacity:1"
         offset="1" />
    </linearGradient>
    <linearGradient
       x1="0"
       y1="0"
       x2="1"
       y2="0"
       id="linearGradient13219"
       gradientUnits="userSpaceOnUse"
       gradientTransform="matrix(4.4594269,2.0216064,2.0216064,-4.4594269,2002.999,84.154297)"
       spreadMethod="pad">
      <stop
         id="stop13221"
         style="stop-color:#7accec;stop-opacity:1"
         offset="0" />
      <stop
         id="stop13223"
         style="stop-color:#3fb7ed;stop-opacity:1"
         offset="1" />
    </linearGradient>
    <linearGradient
       x1="0"
       y1="0"
       x2="1"
       y2="0"
       id="linearGradient13315"
       gradientUnits="userSpaceOnUse"
       gradientTransform="matrix(0,-23.975632,-23.975632,0,2027.6816,85.106445)"
       spreadMethod="pad">
      <stop
         id="stop13317"
         style="stop-color:#1da7e7;stop-opacity:1"
         offset="0" />
      <stop
         id="stop13319"
         style="stop-color:#37abe7;stop-opacity:0"
         offset="1" />
    </linearGradient>
    <radialGradient
       cx="0"
       cy="0"
       r="1"
       fx="0"
       fy="0"
       id="radialGradient8648"
       xlink:href="#radialGradient4775"
       gradientUnits="userSpaceOnUse"
       gradientTransform="matrix(-461.04729,-3817.7951,3784.3381,-222.80277,-1583.9571,1199.0277)"
       spreadMethod="pad" />
    <linearGradient
       x1="0"
       y1="0"
       x2="1"
       y2="0"
       id="linearGradient8651"
       xlink:href="#linearGradient12325"
       gradientUnits="userSpaceOnUse"
       gradientTransform="matrix(0,149.73457,-149.73457,0,1074.9953,1836.3358)"
       spreadMethod="pad" />
    <linearGradient
       x1="0"
       y1="0"
       x2="1"
       y2="0"
       id="linearGradient8654"
       xlink:href="#linearGradient12353"
       gradientUnits="userSpaceOnUse"
       gradientTransform="matrix(0,153.55057,-153.55057,0,1080.7042,1832.5448)"
       spreadMethod="pad" />
    <linearGradient
       x1="0"
       y1="0"
       x2="1"
       y2="0"
       id="linearGradient8670"
       xlink:href="#linearGradient12539"
       gradientUnits="userSpaceOnUse"
       gradientTransform="matrix(0,159.42523,-159.42523,0,1103.5345,1816.9865)"
       spreadMethod="pad" />
    <linearGradient
       x1="0"
       y1="0"
       x2="1"
       y2="0"
       id="linearGradient8673"
       xlink:href="#linearGradient12567"
       gradientUnits="userSpaceOnUse"
       gradientTransform="matrix(0,169.52761,-169.52761,0,1090.9681,1817.8244)"
       spreadMethod="pad" />
    <linearGradient
       x1="0"
       y1="0"
       x2="1"
       y2="0"
       id="linearGradient8692"
       xlink:href="#linearGradient12825"
       gradientUnits="userSpaceOnUse"
       gradientTransform="matrix(0,-121.86516,121.86516,0,987.06215,1952.8131)"
       spreadMethod="pad" />
    <linearGradient
       x1="0"
       y1="0"
       x2="1"
       y2="0"
       id="linearGradient8703"
       xlink:href="#linearGradient12937"
       gradientUnits="userSpaceOnUse"
       gradientTransform="matrix(0,-100.1002,100.1002,0,1001.1021,1959.286)"
       spreadMethod="pad" />
    <linearGradient
       x1="0"
       y1="0"
       x2="1"
       y2="0"
       id="linearGradient8706"
       xlink:href="#linearGradient12975"
       gradientUnits="userSpaceOnUse"
       gradientTransform="matrix(-19.137985,-108.53691,108.53691,-19.137985,1004.9376,1952.8918)"
       spreadMethod="pad" />
    <linearGradient
       x1="0"
       y1="0"
       x2="1"
       y2="0"
       id="linearGradient8709"
       xlink:href="#linearGradient12995"
       gradientUnits="userSpaceOnUse"
       gradientTransform="matrix(0,-56.720619,56.720619,0,1182.5102,1891.5108)"
       spreadMethod="pad" />
    <linearGradient
       x1="0"
       y1="0"
       x2="1"
       y2="0"
       id="linearGradient8720"
       xlink:href="#linearGradient13131"
       gradientUnits="userSpaceOnUse"
       gradientTransform="matrix(0,123.74243,-123.74243,0,1188.5246,1834.1372)"
       spreadMethod="pad" />
    <linearGradient
       x1="0"
       y1="0"
       x2="1"
       y2="0"
       id="linearGradient8939"
       xlink:href="#linearGradient13219"
       gradientUnits="userSpaceOnUse"
       gradientTransform="matrix(4.4594269,2.0216064,2.0216064,-4.4594269,2002.999,84.154297)"
       spreadMethod="pad" />
    <linearGradient
       x1="0"
       y1="0"
       x2="1"
       y2="0"
       id="linearGradient8943"
       xlink:href="#linearGradient13207"
       gradientUnits="userSpaceOnUse"
       gradientTransform="matrix(5.646286,-2.3419189,-2.3419189,-5.646286,1999.7344,86.96582)"
       spreadMethod="pad" />
    <linearGradient
       x1="0"
       y1="0"
       x2="1"
       y2="0"
       id="linearGradient8947"
       xlink:href="#linearGradient13071"
       gradientUnits="userSpaceOnUse"
       gradientTransform="matrix(-4.5685425,-25.909454,-25.909454,4.5685425,2035.0898,87.371094)"
       spreadMethod="pad" />
    <linearGradient
       x1="0"
       y1="0"
       x2="1"
       y2="0"
       id="linearGradient8954"
       xlink:href="#linearGradient12905"
       gradientUnits="userSpaceOnUse"
       gradientTransform="matrix(0,-118.45958,118.45958,0,994.73283,1953.242)"
       spreadMethod="pad" />
    <linearGradient
       x1="0"
       y1="0"
       x2="1"
       y2="0"
       id="linearGradient8956"
       xlink:href="#linearGradient12721"
       gradientUnits="userSpaceOnUse"
       gradientTransform="matrix(0,23.576645,23.576645,0,2033.8457,63.546875)"
       spreadMethod="pad" />
    <linearGradient
       x1="937.66064"
       y1="2075.9995"
       x2="959.67438"
       y2="2075.9995"
       id="linearGradient4068"
       xlink:href="#linearGradient4062"
       gradientUnits="userSpaceOnUse"
       gradientTransform="matrix(4.0385167,0,0,4.0385167,-2848.934,-6485.6534)" />
    <linearGradient
       x1="958.72162"
       y1="2068.9573"
       x2="964.65662"
       y2="2068.9573"
       id="linearGradient4095"
       xlink:href="#linearGradient4097"
       gradientUnits="userSpaceOnUse"
       gradientTransform="matrix(4.0385167,0,0,4.0385167,-2848.934,-6485.6534)" />
    <linearGradient
       x1="0"
       y1="0"
       x2="1"
       y2="0"
       id="linearGradient3748"
       xlink:href="#linearGradient12439"
       gradientUnits="userSpaceOnUse"
       gradientTransform="matrix(0,-122.17805,122.17805,0,1111.5651,1952.8773)"
       spreadMethod="pad" />
    <linearGradient
       x1="0"
       y1="0"
       x2="1"
       y2="0"
       id="linearGradient3751"
       xlink:href="#linearGradient13315"
       gradientUnits="userSpaceOnUse"
       gradientTransform="matrix(0,121.03249,-121.03249,0,1171.7728,1840.9797)"
       spreadMethod="pad" />
    <linearGradient
       x1="0"
       y1="0"
       x2="1"
       y2="0"
       id="linearGradient3754"
       xlink:href="#linearGradient13071"
       gradientUnits="userSpaceOnUse"
       gradientTransform="matrix(-23.062669,130.7947,-130.7947,-23.062669,1209.1707,1829.5475)"
       spreadMethod="pad" />
    <linearGradient
       x1="0"
       y1="0"
       x2="1"
       y2="0"
       id="linearGradient3757"
       xlink:href="#linearGradient12721"
       gradientUnits="userSpaceOnUse"
       gradientTransform="matrix(0,-119.01834,119.01834,0,1202.89,1949.8157)"
       spreadMethod="pad" />
  </defs>
  <g
     transform="translate(-937.60684,-1834.4815)"
     id="layer1">
    <path
       d="m 1198.4977,1947.6813 -2.7967,0 0,8.6929 -1.1409,0 0,-8.6929 -2.8067,0 0,-1.0346 6.7443,0 0,1.0346 z"
       id="path12245"
       style="fill:#000000;fill-opacity:1;fill-rule:nonzero;stroke:none" />
    <path
       d="m 1209.9493,1956.3726 -1.1356,0 0,-6.5323 c 0,-0.5149 0.04,-1.1457 0.093,-1.888 l 0,0 c -0.1172,0.4443 -0.2141,0.7524 -0.3029,0.9491 l -3.3116,7.4712 -0.5553,0 -3.3217,-7.4155 c -0.097,-0.206 -0.1938,-0.5403 -0.2988,-1.0048 l -0.04,0 c 0.04,0.3918 0.053,1.025 0.053,1.9034 l 0,6.5169 -1.0904,0 0,-9.7275 1.5043,0 2.9833,6.7895 c 0.2261,0.5101 0.3675,0.9038 0.4394,1.1663 l 0.044,0 c 0.1979,-0.5351 0.3594,-0.9341 0.4697,-1.1966 l 3.0438,-6.7592 1.4337,0 0,9.7275 z"
       id="path12257"
       style="fill:#000000;fill-opacity:1;fill-rule:nonzero;stroke:none" />
    <path
       d="m 1201.0953,1992.4883 c 0,-0.5299 -0.1454,-0.9087 -0.4443,-1.1563 -0.3311,-0.2665 -0.9038,-0.4086 -1.701,-0.4086 l -1.1461,0 0,3.15 1.3832,0 c 1.2773,0 1.9082,-0.5299 1.9082,-1.5851 m 1.787,6.5678 -1.575,0 -1.0044,-2.2163 c -0.5101,-1.1106 -1.0553,-1.6659 -1.6509,-1.6659 l -0.8481,0 0,3.8822 -1.2976,0 0,-9.2385 2.6,0 c 1.1562,0 2.0241,0.2504 2.6202,0.7726 0.5048,0.4491 0.7572,1.0249 0.7572,1.7418 0,0.6361 -0.206,1.1712 -0.6211,1.615 -0.4039,0.4495 -0.9846,0.7524 -1.7265,0.9091 l 0,0.04 c 0.5149,0.1212 1.0298,0.6866 1.5294,1.7063 l 1.2168,2.4587 z m 2.8774,-4.5284 c 0,-1.8173 -0.6207,-3.3519 -1.8577,-4.5687 -1.2418,-1.2164 -2.7563,-1.8271 -4.5433,-1.8271 -1.8428,0 -3.377,0.6107 -4.5938,1.8376 -1.2168,1.2317 -1.8222,2.7558 -1.8222,4.5582 0,1.8428 0.6308,3.3823 1.8828,4.6092 1.237,1.2265 2.7514,1.8323 4.5332,1.8323 1.7717,0 3.2861,-0.6107 4.5332,-1.8529 1.2471,-1.2217 1.8678,-2.7559 1.8678,-4.5886 m 0.8732,-0.04 c 0,2.0399 -0.7015,3.751 -2.1098,5.129 -1.4086,1.3884 -3.1351,2.0798 -5.1999,2.0798 -2.0795,0 -3.8059,-0.6813 -5.1794,-2.0193 -1.3727,-1.3577 -2.0544,-3.064 -2.0544,-5.1337 0,-2.0245 0.6966,-3.7256 2.0899,-5.1237 1.3933,-1.3933 3.1298,-2.0899 5.2048,-2.0899 2.0342,0 3.7405,0.6663 5.1237,1.9938 1.4183,1.363 2.1251,3.0794 2.1251,5.164"
       id="path12261"
       style="fill:#000000;fill-opacity:1;fill-rule:nonzero;stroke:none" />
    <path
       d="m 1009.1871,2020.2482 -4.4775,0 0,-25.6244 c 0,-2.0241 0.1333,-4.4876 0.3716,-7.3953 l -0.101,0 c -0.4192,1.701 -0.8029,2.9328 -1.1409,3.6953 l -13.0141,29.3244 -2.1808,0 -13.03956,-29.1124 c -0.36751,-0.813 -0.75197,-2.1206 -1.14088,-3.9073 l -0.0969,0 c 0.13731,1.5294 0.21405,4.0082 0.21405,7.4458 l 0,25.5739 -4.31637,0 0,-38.1587 5.90633,0 11.70685,26.6086 c 0.88323,2.0043 1.45387,3.5288 1.73131,4.5687 l 0.18578,0 c 0.76206,-2.085 1.36784,-3.65 1.82742,-4.6798 l 11.95887,-26.4975 5.6034,0 0,38.1587 z"
       id="path12265"
       style="fill:#000000;fill-opacity:1;fill-rule:nonzero;stroke:none" />
    <path
       d="m 1022.9605,2020.247 -4.3511,0 0,-27.2499 4.3511,0 0,27.2499 z m 0.7524,-37.0182 c 0,0.8028 -0.2827,1.474 -0.8433,2.0245 -0.55,0.55 -1.2313,0.8279 -2.0293,0.8279 -0.7774,0 -1.4539,-0.2666 -2.0088,-0.7976 -0.5553,-0.5351 -0.8283,-1.2168 -0.8283,-2.0548 0,-0.7875 0.2746,-1.4587 0.8283,-2.0039 0.5549,-0.5452 1.2314,-0.8077 2.0088,-0.8077 0.7976,0 1.4793,0.2625 2.0293,0.8077 0.5606,0.5452 0.8433,1.2164 0.8433,2.0039"
       id="path12267"
       style="fill:#000000;fill-opacity:1;fill-rule:nonzero;stroke:none" />
    <path
       d="m 1050.1542,2018.9862 c -2.0899,1.2822 -4.5837,1.9183 -7.4664,1.9183 -3.9068,0 -7.052,-1.2972 -9.4549,-3.8871 -2.3323,-2.514 -3.5083,-5.7597 -3.5083,-9.7377 0,-4.4629 1.277,-8.077 3.8515,-10.8232 2.5596,-2.7514 6.0025,-4.1245 10.3338,-4.1245 2.3674,0 4.4674,0.4644 6.3049,1.3832 l 0,4.4779 c -2.0342,-1.4288 -4.1847,-2.1356 -6.4919,-2.1356 -2.7765,0 -5.0328,0.9693 -6.7847,2.9029 -1.8226,1.9789 -2.7462,4.6241 -2.7462,7.9256 0,3.1702 0.8432,5.679 2.5192,7.5318 1.6809,1.8424 3.9174,2.7664 6.7391,2.7664 2.3827,0 4.614,-0.7827 6.7039,-2.3423 l 0,4.1443 z"
       id="path12271"
       style="fill:#000000;fill-opacity:1;fill-rule:nonzero;stroke:none" />
    <path
       d="m 1070.9679,1997.4181 c -0.7673,-0.5904 -1.8726,-0.8784 -3.3317,-0.8784 -1.7717,0 -3.2611,0.7928 -4.4674,2.3928 -1.3683,1.7871 -2.0496,4.2607 -2.0496,7.4208 l 0,13.8925 -4.3616,0 0,-27.2499 4.3616,0 0,5.6188 0.105,0 c 0.6413,-1.989 1.6308,-3.5188 2.9534,-4.6039 1.2366,-0.9894 2.6351,-1.4894 4.1746,-1.4894 1.1611,0 2.0245,0.1252 2.6149,0.3715 l 0,4.5232 z"
       id="path12275"
       style="fill:#000000;fill-opacity:1;fill-rule:nonzero;stroke:none" />
    <path
       d="m 1095.277,2006.6715 c 0,-3.488 -0.7875,-6.1534 -2.3625,-7.9809 -1.5294,-1.7567 -3.665,-2.6351 -6.416,-2.6351 -2.7111,0 -4.8866,0.8885 -6.5125,2.6654 -1.7213,1.8981 -2.5794,4.5785 -2.5794,8.0569 0,3.2611 0.8178,5.8203 2.4687,7.6477 1.6404,1.8375 3.8515,2.7563 6.6232,2.7563 2.8673,0 5.0631,-0.9337 6.5674,-2.7914 1.4741,-1.8174 2.2111,-4.3871 2.2111,-7.7189 m 4.4727,-0.1534 c 0,4.3414 -1.2265,7.8299 -3.6699,10.4448 -2.4533,2.625 -5.7548,3.9376 -9.9044,3.9376 -4.089,0 -7.3453,-1.3126 -9.7328,-3.9376 -2.3375,-2.5293 -3.5135,-5.8712 -3.5135,-10.0256 0,-4.7404 1.3274,-8.3953 3.9928,-10.99 2.4635,-2.4078 5.7598,-3.6194 9.8896,-3.6194 4.0635,0 7.239,1.2669 9.5256,3.7761 2.2668,2.524 3.4126,5.9972 3.4126,10.4141"
       id="path12279"
       style="fill:#000000;fill-opacity:1;fill-rule:nonzero;stroke:none" />
    <path
       d="m 1121.3803,2012.9567 c 0,2.2313 -0.8327,4.0789 -2.5038,5.553 -1.8222,1.5952 -4.3261,2.3928 -7.4761,2.3928 -2.5798,0 -4.8414,-0.54 -6.7597,-1.6405 l 0,-4.6899 c 2.1356,1.7366 4.4928,2.6101 7.0827,2.6101 3.453,0 5.1843,-1.2721 5.1843,-3.8063 0,-1.0654 -0.3796,-1.9486 -1.1457,-2.6303 -0.7674,-0.6966 -2.2568,-1.5294 -4.4727,-2.5039 -2.2818,-0.9995 -3.9073,-2.0241 -4.8664,-3.0894 -1.151,-1.2621 -1.7317,-2.9025 -1.7317,-4.9218 0,-2.2616 0.9038,-4.1447 2.6908,-5.6438 1.7919,-1.5044 4.0939,-2.2567 6.9208,-2.2567 2.1659,0 4.1044,0.424 5.8256,1.2773 l 0,4.3919 c -1.7971,-1.2975 -3.8515,-1.9437 -6.1838,-1.9437 -1.4437,0 -2.6048,0.3594 -3.4682,1.0601 -0.8732,0.7168 -1.3126,1.6308 -1.3126,2.7462 0,1.2067 0.3675,2.1457 1.0957,2.8169 0.6461,0.6211 2.0192,1.3783 4.089,2.2615 2.327,0.9745 4.0082,1.9842 5.0328,3.0188 1.3278,1.3077 1.999,2.9736 1.999,4.9977"
       id="path12283"
       style="fill:#000000;fill-opacity:1;fill-rule:nonzero;stroke:none" />
    <path
       d="m 1148.0362,2006.6715 c 0,-3.488 -0.7875,-6.1534 -2.3674,-7.9809 -1.5245,-1.7567 -3.665,-2.6351 -6.4111,-2.6351 -2.7111,0 -4.8867,0.8885 -6.5223,2.6654 -1.7163,1.8981 -2.5697,4.5785 -2.5697,8.0569 0,3.2611 0.8178,5.8203 2.4534,7.6477 1.6611,1.8375 3.8722,2.7563 6.6386,2.7563 2.8721,0 5.063,-0.9337 6.5674,-2.7914 1.474,-1.8174 2.2111,-4.3871 2.2111,-7.7189 m 4.4827,-0.1534 c 0,4.3414 -1.2366,7.8299 -3.6851,10.4448 -2.4433,2.625 -5.7448,3.9376 -9.8944,3.9376 -4.0938,0 -7.3501,-1.3126 -9.7377,-3.9376 -2.3374,-2.5293 -3.5135,-5.8712 -3.5135,-10.0256 0,-4.7404 1.3376,-8.3953 3.9881,-10.99 2.4635,-2.4078 5.765,-3.6194 9.8992,-3.6194 4.0639,0 7.2342,1.2669 9.5159,3.7761 2.2717,2.524 3.4275,5.9972 3.4275,10.4141"
       id="path12287"
       style="fill:#000000;fill-opacity:1;fill-rule:nonzero;stroke:none" />
    <path
       d="m 1171.7386,1983.738 c -0.8582,-0.4745 -1.812,-0.7168 -2.8976,-0.7168 -3.0543,0 -4.5688,1.9231 -4.5688,5.7751 l 0,4.2 6.3861,0 0,3.6953 -6.3861,0 0,23.5546 -4.3664,0 0,-23.5546 -4.6342,0 0,-3.6953 4.6342,0 0,-4.4169 c 0,-2.999 0.9187,-5.3514 2.7866,-7.0476 1.6004,-1.4741 3.5587,-2.2059 5.8861,-2.2059 1.3481,0 2.3981,0.1616 3.1601,0.4746 l 0,3.9375 z"
       id="path12291"
       style="fill:#000000;fill-opacity:1;fill-rule:nonzero;stroke:none" />
    <path
       d="m 1188.9536,2019.9724 c -1.0298,0.5908 -2.4029,0.8836 -4.0991,0.8836 -4.7553,0 -7.1328,-2.6807 -7.1328,-8.0419 l 0,-16.1185 -4.6746,0 0,-3.7005 4.6746,0 0,-6.6482 c 1.3933,-0.4394 2.8419,-0.9188 4.3717,-1.4135 l 0,8.0617 6.8602,0 0,3.7005 -6.8602,0 0,15.3767 c 0,1.8274 0.2988,3.1347 0.9236,3.8919 0.6312,0.7826 1.661,1.1663 3.1149,1.1663 1.0852,0 2.0241,-0.2908 2.8217,-0.8784 l 0,3.7203 z"
       id="path12295"
       style="fill:#000000;fill-opacity:1;fill-rule:nonzero;stroke:none" />
    <path
       d="m 953.16523,2126.5997 c 0,2.1352 -0.76207,3.9828 -2.30196,5.5429 -1.53464,1.5548 -3.3976,2.3375 -5.58325,2.3375 -2.13557,0 -3.9529,-0.7827 -5.4419,-2.3375 -1.4894,-1.5601 -2.23128,-3.4077 -2.23128,-5.5429 0,-2.1957 0.74188,-4.0486 2.23128,-5.5832 1.489,-1.5399 3.30633,-2.302 5.4419,-2.302 2.18565,0 4.04861,0.7726 5.58325,2.3323 1.53989,1.5601 2.30196,3.4125 2.30196,5.5529"
       id="path12299"
       style="fill:#000000;fill-opacity:1;fill-rule:nonzero;stroke:none" />
    <path
       d="m 1050.825,2132.8752 -14.2256,0 -51.63732,-79.7454 c -1.20671,-1.9183 -2.24662,-4.0033 -3.12985,-6.2799 l -0.42445,0 c 0.36751,2.1352 0.5557,6.7189 0.5557,13.7411 l 0,72.2842 -11.72704,0 0,-100.049 15.22036,0 50.0926,78.4886 c 1.9942,3.1145 3.3568,5.3457 4.0486,6.6886 l 0.2786,0 c -0.4644,-2.8775 -0.7063,-7.7843 -0.7063,-14.7103 l 0,-70.4669 11.656,0 0,100.049 z"
       id="path12303"
       style="fill:#000000;fill-opacity:1;fill-rule:nonzero;stroke:none" />
    <path
       d="m 1126.0045,2132.8752 -53.0258,0 0,-100.049 50.7238,0 0,10.6011 -39.0068,0 0,33.2822 36.1447,0 0,10.6064 -36.1447,0 0,34.9533 41.3088,0 0,10.606 z"
       id="path12307"
       style="fill:#000000;fill-opacity:1;fill-rule:nonzero;stroke:none" />
    <path
       d="m 1206.435,2043.4285 -28.8195,0 0,89.4483 -11.7218,0 0,-89.4483 -28.8754,0 0,-10.6059 69.4167,0 0,10.6059 z"
       id="path12311"
       style="fill:#000000;fill-opacity:1;fill-rule:nonzero;stroke:none" />
    <path
       d="m 1046.8484,1860.0189 c 11.3128,34.5947 15.5987,96.3085 48.6792,96.3085 l 0,0 c 2.519,0 5.0633,-0.2464 7.6177,-0.7322 l 0,0 c -30.0718,-7.0117 -33.6358,-68.0542 -51.9858,-99.6657 l 0,0 c -1.4388,1.3076 -2.8674,2.6706 -4.3111,4.0894"
       id="path12339"
       style="fill:url(#linearGradient8651);stroke:none" />
    <path
       d="m 1051.1595,1855.9295 c 18.35,31.6115 21.914,92.654 51.9858,99.6657 l 0,0 c 2.3625,-0.4341 4.7301,-1.0904 7.1027,-1.9183 l 0,0 c -26.9924,-13.2261 -34.4536,-72.5015 -55.2923,-101.0388 l 0,0 c -1.2621,1.0504 -2.5291,2.1509 -3.7962,3.2914"
       id="path12367"
       style="fill:url(#linearGradient8654);stroke:none" />
    <path
       d="m 1077.5988,1837.1298 c -2.514,0 -5.0635,0.2463 -7.6227,0.7322 -6.6939,1.262 -13.4935,4.1443 -20.3489,8.5059 1.8727,1.8476 3.6545,3.9626 5.3305,6.2698 6.9716,-5.7852 13.8977,-10.0608 20.7987,-12.6305 2.5895,-0.9591 5.1693,-1.6808 7.7588,-2.1553 -1.8678,-0.475 -3.8366,-0.7221 -5.9164,-0.7221"
       id="path12379"
       style="fill:#14559a;fill-opacity:1;fill-rule:nonzero;stroke:none" />
    <path
       d="m 1131.319,1941.4854 c 2.7613,-2.1957 5.5277,-4.6241 8.2991,-7.2741 -11.4946,-34.4336 -15.6088,-97.0306 -48.9216,-97.0306 -2.3827,0 -4.7856,0.2221 -7.1835,0.6663 30.3444,7.5472 34.2315,73.5668 47.806,103.6384"
       id="path12459"
       style="fill:url(#linearGradient3748);stroke:none" />
    <path
       d="m 1083.514,1837.8494 c -1.8678,-0.4745 -3.8365,-0.7216 -5.9164,-0.7216 l 13.1,0.048 c -2.3828,0 -4.7857,0.2221 -7.1836,0.6716"
       id="path12521"
       style="fill:#3092c4;fill-opacity:1;fill-rule:nonzero;stroke:none" />
    <path
       d="m 1130.7372,1948.8004 c -1.3024,-1.2418 -2.539,-2.6048 -3.7558,-4.0587 -5.6035,3.9678 -11.1867,6.9765 -16.7344,8.9352 1.9736,0.9644 4.0433,1.6813 6.2395,2.1255 1.701,0.3473 3.463,0.525 5.3155,0.525 6.2245,0 11.1463,-0.737 15.3362,-2.7462 -2.3068,-1.2471 -4.4221,-2.8625 -6.401,-4.7808"
       id="path12525"
       style="fill:#1969bc;fill-opacity:1;fill-rule:nonzero;stroke:none" />
    <path
       d="m 1075.754,1840.0129 c 27.1793,14.2155 29.5418,78.5895 51.2286,104.7288 l 0,0 c 1.4539,-1.0246 2.8926,-2.1101 4.3313,-3.2563 l 0,0 c -13.5744,-30.0716 -17.4565,-96.0965 -47.7958,-103.6384 l 0,0 c -2.5897,0.4846 -5.1744,1.2019 -7.7641,2.1659"
       id="path12553"
       style="fill:url(#linearGradient8670);stroke:none" />
    <path
       d="m 1054.9557,1852.6381 c 20.8387,28.5373 28.2999,87.8127 55.2923,101.0388 l 0,0 c 5.5479,-1.9587 11.1312,-4.9674 16.7346,-8.9352 l 0,0 c -21.6868,-26.1393 -24.0493,-90.5133 -51.2286,-104.7288 l 0,0 c -6.9008,2.5644 -13.8268,6.84 -20.7983,12.6252"
       id="path12581"
       style="fill:url(#linearGradient8673);stroke:none" />
    <path
       d="m 1033.5157,1859.1857 c -3.2662,7.3857 -6.603,17.093 -10.6365,29.7639 8.0215,-11.303 16.0178,-21.0407 23.9686,-28.9307 -1.0954,-3.3673 -2.2716,-6.4718 -3.5387,-9.2385 -3.251,2.4889 -6.5273,5.2908 -9.7934,8.4053"
       id="path12651"
       style="fill:url(#linearGradient4095);fill-opacity:1;fill-rule:nonzero;stroke:none" />
    <path
       d="m 1046.2054,1848.6509 c -0.9592,0.6865 -1.9232,1.3884 -2.8924,2.1303 1.2669,2.7664 2.438,5.8712 3.5337,9.2381 1.4434,-1.4135 2.877,-2.7814 4.3107,-4.089 -1.5395,-2.6453 -3.1751,-5.0886 -4.952,-7.2794"
       id="path12655"
       style="fill:#2b74b1;fill-opacity:1;fill-rule:nonzero;stroke:none" />
    <path
       d="m 1049.6272,1846.3679 c -1.1409,0.7221 -2.2765,1.4841 -3.4226,2.2817 1.7769,2.1909 3.4125,4.6342 4.9573,7.2847 1.2672,-1.1461 2.5341,-2.2515 3.7962,-3.2966 -1.676,-2.3068 -3.4578,-4.4222 -5.3309,-6.2698"
       id="path12659"
       style="fill:#125a9e;fill-opacity:1;fill-rule:nonzero;stroke:none" />
    <path
       d="m 1235.0131,1834.4954 c -15.3718,59.2802 -47.478,106.8943 -74.3947,118.8988 0,0 -0.051,0 -0.051,0 -0.4896,0.2221 -0.9743,0.4241 -1.4538,0.6207 -0.066,0.04 -0.126,0.045 -0.1769,0.069 -0.1414,0.057 -0.2726,0.101 -0.414,0.1575 -0.066,0.04 -0.126,0.053 -0.1865,0.077 -0.227,0.081 -0.4493,0.1495 -0.6714,0.2383 -0.096,0.04 -0.1866,0.065 -0.2779,0.097 -0.101,0.04 -0.2173,0.077 -0.3332,0.1091 -0.1009,0.04 -0.2067,0.069 -0.3231,0.113 -0.096,0.04 -0.197,0.057 -0.2875,0.097 -0.1971,0.057 -0.3784,0.105 -0.5755,0.1736 -0.081,0 -0.1563,0.044 -0.2423,0.065 -0.1212,0.04 -0.2577,0.069 -0.3889,0.105 -0.091,0.04 -0.1664,0.053 -0.2625,0.073 -0.1365,0.04 -0.288,0.077 -0.4241,0.1091 -0.1817,0.04 -0.3432,0.077 -0.5149,0.1131 1.2166,0.4494 2.4837,0.6764 3.8518,0.6764 25.5234,0 51.2584,-45.741 93.8397,-121.8065 l -16.7194,0 z"
       id="path12741"
       style="fill:url(#linearGradient3757);stroke:none" />
    <path
       d="m 1017.3364,1839.5355 c 0.016,0 0.036,-0.04 0.046,-0.04 0.02,0 0.051,0 0.061,-0.04 0,0 0.02,0 0.032,0 0.1413,-0.048 0.2726,-0.105 0.4139,-0.1575 0.036,0 0.055,0 0.081,-0.04 0.036,0 0.071,-0.04 0.1062,-0.045 0.1515,-0.048 0.3029,-0.105 0.4443,-0.1575 0,0 0.016,0 0.024,0 0.3384,-0.1009 0.6512,-0.2261 0.9793,-0.3432 0.046,0 0.091,-0.04 0.1462,-0.04 0.1365,-0.044 0.2779,-0.093 0.419,-0.1252 0.066,-0.04 0.1313,-0.04 0.1918,-0.061 0.1462,-0.044 0.288,-0.093 0.4241,-0.1252 0.061,0 0.1163,-0.04 0.1615,-0.044 0.4695,-0.1292 0.9339,-0.2504 1.4034,-0.3635 0.066,0 0.1212,-0.04 0.1918,-0.044 0.1361,-0.04 0.2626,-0.061 0.4089,-0.081 0.061,-0.04 0.1313,-0.04 0.202,-0.061 0.1361,-0.04 0.2673,-0.044 0.4139,-0.077 0.036,0 0.055,0 0.096,0 0.2827,-0.057 0.5705,-0.105 0.8532,-0.1575 0.051,0 0.1159,0 0.1716,0 0.1361,-0.04 0.2573,-0.044 0.3938,-0.069 0.075,0 0.1514,-0.04 0.2221,-0.04 0.126,0 0.2524,-0.04 0.3784,-0.057 0.066,0 0.1312,0 0.2072,-0.04 0.2976,-0.04 0.6057,-0.056 0.9187,-0.081 -0.8834,-0.085 -1.7921,-0.1414 -2.7159,-0.1414 -28.74412,0 -68.34682,53.3335 -86.18697,122.4022 0,0 1.30242,0 3.43779,0 5.70945,-10.1819 10.83837,-19.8138 15.5281,-28.8552 12.49416,-48.9214 37.94186,-82.2848 60.54748,-91.1239"
       id="path12803"
       style="fill:url(#linearGradient4068);fill-opacity:1;fill-rule:nonzero;stroke:none" />
    <path
       d="m 1033.516,1859.1857 c 3.2663,-3.1145 6.5424,-5.9164 9.7934,-8.4049 -0.7419,-1.6255 -1.5092,-3.1299 -2.3323,-4.5082 -2.6299,3.1904 -5.0328,7.4006 -7.4611,12.9131"
       id="path12807"
       style="fill:#0d82ca;fill-opacity:1;fill-rule:nonzero;stroke:none" />
    <path
       d="m 1035.8773,1839.9398 c 1.8779,1.575 3.5587,3.7408 5.0986,6.3356 0.4846,-0.5957 0.9745,-1.1461 1.4842,-1.661 -2.1352,-1.9939 -4.4424,-3.6295 -6.9463,-4.8612 0.101,0.056 0.2019,0.101 0.3069,0.1454 0,0 0.04,0.04 0.057,0.04"
       id="path12811"
       style="fill:#0d82ca;fill-opacity:1;fill-rule:nonzero;stroke:none" />
    <path
       d="m 956.78943,1930.6574 c 26.20997,-50.5069 38.62841,-82.4718 60.54747,-91.1243 l 0,0 c -22.60056,8.8447 -48.05331,42.2077 -60.54747,91.1243"
       id="path12831"
       style="fill:url(#linearGradient8692);stroke:none" />
    <path
       d="m 1042.4584,1844.6131 c -0.5096,0.5202 -0.9942,1.0654 -1.4841,1.6611 0.823,1.3779 1.59,2.8774 2.3375,4.5078 0.9692,-0.7419 1.9332,-1.4438 2.8924,-2.1303 -1.1861,-1.464 -2.4381,-2.8218 -3.7458,-4.0386"
       id="path12843"
       style="fill:#127bca;fill-opacity:1;fill-rule:nonzero;stroke:none" />
    <path
       d="m 968.68791,1959.2856 0,0 c -0.16154,0.04 -0.32308,0.04 -0.47453,0.057 -0.0505,0 -0.0606,0 -0.0909,0 -0.1365,0 -0.27785,0.04 -0.40385,0.04 0,0 -0.0505,0 -0.0658,0 -0.32793,0.04 -0.65121,0.04 -0.9642,0.065 l -0.10096,0 c 26.52801,-0.7423 38.65363,-14.0242 44.67103,-33.2879 4.5736,-14.6041 8.3295,-26.9066 11.6209,-37.2299 -11.111,15.6392 -22.2725,34.2818 -33.4945,55.1661 -5.41162,10.066 -13.64009,14.2709 -20.6974,15.1699"
       id="path12923"
       style="fill:url(#linearGradient8954);stroke:none" />
    <path
       d="m 968.68791,1959.2755 0,0 c 7.05731,-0.899 15.28579,-5.099 20.6974,-15.1699 l 0,0 c 11.22199,-20.8791 22.38849,-39.5269 33.48939,-55.1661 l 0,0 c 4.0385,-12.6761 7.3703,-22.3782 10.6415,-29.7639 l 0,0 c -22.126,21.0609 -44.33787,56.0801 -64.82829,100.0898"
       id="path12949"
       style="fill:url(#linearGradient8703);stroke:none" />
    <path
       d="m 956.78818,1930.6586 c -4.68953,9.0414 -9.81844,18.6733 -15.5281,28.8552 2.46875,0 6.04283,0 10.00058,0 1.32262,-10.1117 3.20053,-19.7536 5.52752,-28.8504"
       id="path12961"
       style="fill:#05a1e6;fill-opacity:1;fill-rule:nonzero;stroke:none" />
    <path
       d="m 1025.8077,1837.3527 c -0.081,0 -0.1414,0.04 -0.212,0.04 l 0,0 c -0.1212,0.04 -0.2476,0.04 -0.3736,0.053 l 0,0 c -0.075,0 -0.1462,0 -0.2221,0.04 l 0,0 c -0.1365,0.04 -0.2625,0.044 -0.3938,0.069 l 0,0 c -0.061,0 -0.1211,0 -0.1716,0.04 l 0,0 c -0.288,0.048 -0.5705,0.101 -0.8532,0.1494 l 0,0 c -0.05,0 -0.066,0 -0.096,0 l 0,0 c -0.1462,0.04 -0.2778,0.061 -0.4139,0.081 l 0,0 c -0.071,0.04 -0.1414,0.04 -0.2072,0.056 l 0,0 c -0.1361,0.04 -0.2726,0.057 -0.4038,0.081 l 0,0 c -0.071,0.04 -0.126,0.04 -0.1919,0.044 l 0,0 c -0.4694,0.1131 -0.9339,0.2343 -1.4034,0.3635 l 0,0 c -0.05,0 -0.1009,0.04 -0.1615,0.048 l 0,0 c -0.1413,0.04 -0.2778,0.081 -0.424,0.1252 l 0,0 c -0.061,0.04 -0.1313,0.04 -0.1919,0.056 l 0,0 c -0.1413,0.04 -0.2827,0.081 -0.419,0.1252 l 0,0 c -0.055,0 -0.1009,0.04 -0.1514,0.04 l 0,0 c -0.3231,0.1211 -0.6411,0.2423 -0.9743,0.3433 l 0,0 c 0,0 0,0 0,0 l 0,0 c -0.1413,0.044 -0.2928,0.1009 -0.4442,0.1534 l 0,0 c -0.061,0.04 -0.1163,0.049 -0.1866,0.077 l 0,0 c -0.1414,0.044 -0.2827,0.101 -0.414,0.1535 l 0,0 c -0.05,0.04 -0.1009,0.044 -0.1361,0.065 l 0,0 c -21.91901,8.6525 -34.33745,40.6174 -60.54742,91.1243 l 0,0 c -2.3272,9.0968 -4.21016,18.7387 -5.52772,28.85 l 0,0 1.40338,0 c 3.9527,0 5.06834,-0.04 9.61672,-0.04 l 0,0 0.23221,0 0.67645,0 0.23222,0 0.0658,0 0.23221,0 0.13125,0 0.0909,0 0.18173,0 0.5654,0 0.56539,0 0.47452,0 0.12601,0 c 0.2726,0 0.55024,0 0.83294,0 l 0,0 c 0.31298,-0.04 0.63607,-0.04 0.9642,-0.065 l 0,0 c 0,0 0.0505,0 0.0606,0 l 0,0 c 0.1365,0 0.2726,-0.04 0.40385,-0.04 l 0,0 c 0.0505,0 0.0553,0 0.0957,0 l 0,0 c 0.14619,0 0.31298,-0.04 0.47452,-0.057 l 0,0 0,0 c 20.49043,-44.0097 42.70224,-79.0289 64.82824,-100.0898 l 0,0 c 2.4332,-5.5125 4.8311,-9.7227 7.4562,-12.9079 l 0,0 c -1.5347,-2.5947 -3.2157,-4.7654 -5.0936,-6.3408 l 0,0 c 0,0 -0.051,0 -0.055,-0.04 l 0,0 c -0.1062,-0.044 -0.2067,-0.097 -0.3129,-0.1494 l 0,0 c -0.1063,-0.057 -0.1971,-0.101 -0.3078,-0.1575 l 0,0 c -0.096,-0.04 -0.2071,-0.093 -0.3029,-0.1454 l 0,0 c -0.1312,-0.04 -0.2374,-0.097 -0.3533,-0.1495 l 0,0 c -0.096,-0.04 -0.1818,-0.081 -0.2779,-0.1211 l 0,0 c -0.1971,-0.077 -0.3937,-0.1575 -0.5805,-0.2423 l 0,0 c -0.086,-0.04 -0.1664,-0.061 -0.2476,-0.093 l 0,0 c -0.1361,-0.049 -0.2928,-0.1131 -0.4341,-0.1737 l 0,0 c -0.071,-0.04 -0.1515,-0.048 -0.2322,-0.077 l 0,0 c -0.2068,-0.069 -0.4089,-0.1413 -0.6008,-0.206 l 0,0 c -0.05,0 -0.05,0 -0.05,0 l 0,0 c -0.2323,-0.077 -0.4594,-0.1332 -0.6967,-0.1979 l 0,0 c -0.055,-0.04 -0.101,-0.04 -0.1563,-0.048 l 0,0 c -0.2072,-0.057 -0.3889,-0.1131 -0.5856,-0.1656 l 0,0 c -0.05,0 -0.096,-0.04 -0.1361,-0.04 l 0,0 c -0.4745,-0.1252 -0.9642,-0.2261 -1.4589,-0.319 l 0,0 c -0.051,0 -0.1009,-0.04 -0.1514,-0.04 l 0,0 c -0.212,-0.04 -0.419,-0.077 -0.631,-0.101 l 0,0 c -0.051,-0.04 -0.081,-0.04 -0.126,-0.04 l 0,0 c -0.2524,-0.04 -0.4998,-0.069 -0.7472,-0.097 l 0,0 c -0.05,0 -0.086,0 -0.1312,0 l 0,0 c -0.2019,-0.04 -0.3885,-0.044 -0.5755,-0.065 l 0,0 c -0.3182,0.04 -0.6209,0.057 -0.9188,0.085"
       id="path12981"
       style="fill:url(#linearGradient8706);stroke:none" />
    <path
       d="m 1174.9703,1867.3132 c -5.0431,16.1541 -9.1271,29.4812 -12.6809,40.4458 l 0,0 c 13.8369,-19.0416 27.4669,-42.9953 40.4459,-70.6385 l 0,0 c -15.1396,4.7549 -23.2166,15.6391 -27.765,30.1927"
       id="path13003"
       style="fill:url(#linearGradient8709);stroke:none" />
    <path
       d="m 1162.7285,1952.3846 c -0.7067,0.3594 -1.4134,0.7015 -2.1101,1.0096 26.9167,-12.0045 59.0229,-59.6186 74.3947,-118.8988 l -3.1149,0 c -35.3168,63.0865 -46.6751,105.3193 -69.1697,117.8892"
       id="path13093"
       style="fill:url(#linearGradient3754);stroke:none" />
    <path
       d="m 1145.1523,1947.0844 c 5.8558,-7.1481 10.6261,-19.2988 17.1386,-39.325 -7.512,10.3184 -15.0737,19.1882 -22.6411,26.422 0,0.04 0,0.04 -0.04,0.065 1.651,4.9472 3.463,9.3136 5.5279,12.8372"
       id="path13097"
       style="fill:#079ae1;fill-opacity:1;fill-rule:nonzero;stroke:none" />
    <path
       d="m 1145.1523,1947.0844 c -1.9942,2.4333 -4.104,4.2861 -6.4516,5.6592 -0.5149,0.2989 -1.0346,0.5804 -1.5649,0.838 2.4789,1.3376 5.1843,2.2313 8.2131,2.5895 l 0,0 0,0 c 0.4439,0.044 0.8833,0.085 1.3429,0.1171 l 0.081,0 c 0.206,0 0.4241,0 0.6462,0.04 l 0.089,0 c 0.2222,0 0.4447,0 0.6615,0 0.2383,0 0.4746,0 0.712,0 0.077,0 0.1495,0 0.2222,0 0.1615,0 0.3351,0 0.5048,0 0.081,0 0.1655,0 0.2463,-0.04 0.1575,0 0.3231,0 0.4846,-0.04 0.04,0 0.04,0 0.057,0 0.065,0 0.1211,0 0.1817,0 0.1656,0 0.3473,-0.04 0.525,-0.057 0,0 0.04,0 0.04,0 0.053,0 0.109,-0.04 0.1615,-0.04 0.1858,-0.04 0.3797,-0.057 0.5606,-0.085 0.061,0 0.105,0 0.1656,0 0.2059,-0.04 0.4188,-0.065 0.6308,-0.105 l 0.04,0 c 0.04,0 0.044,0 0.061,0 0.4241,-0.081 0.838,-0.1615 1.2568,-0.2665 -3.4731,-1.2722 -6.3808,-4.2708 -8.8847,-8.5415"
       id="path13101"
       style="fill:#1969bc;fill-opacity:1;fill-rule:nonzero;stroke:none" />
    <path
       d="m 1095.5282,1956.3282 c 2.5192,0 5.0635,-0.2463 7.6178,-0.737 2.3626,-0.4289 4.73,-1.0856 7.1026,-1.9135 1.974,0.9644 4.0437,1.6813 6.2346,2.1255 1.7011,0.3473 3.4679,0.525 5.3208,0.525 l -26.2758,0 z"
       id="path13105"
       style="fill:#1e5cb3;fill-opacity:1;fill-rule:nonzero;stroke:none" />
    <path
       d="m 1121.8044,1956.3282 c 6.2193,0 11.1463,-0.737 15.3314,-2.7462 2.4785,1.3376 5.1843,2.2313 8.2131,2.5899 l 0,0 0,0 c 0.4443,0.044 0.8837,0.085 1.3429,0.1171 l 0.081,0 c 0.206,0 0.4241,0 0.6462,0.04 l 0.093,0 c 0.2221,0 0.4442,0 0.6615,0 l -26.3869,0 z"
       id="path13109"
       style="fill:#1e5cb3;fill-opacity:1;fill-rule:nonzero;stroke:none" />
    <path
       d="m 1148.1892,1956.3282 c 0.2423,0 0.4798,0 0.7169,0 0.069,0 0.1494,0 0.2221,0 0.1615,0 0.3271,0 0.5,0 0.085,0 0.1655,0 0.2463,-0.04 0.1575,0 0.3231,0 0.4899,-0.04 0.04,0 0.04,0 0.053,0 0.065,0 0.1252,0 0.1858,0 0.1655,0 0.3473,-0.04 0.5201,-0.056 0,0 0.04,0 0.044,0 0.053,0 0.105,-0.04 0.1575,-0.04 0.1858,-0.04 0.3797,-0.056 0.5602,-0.085 0.061,0 0.109,0 0.1736,-0.04 0.206,-0.04 0.4192,-0.061 0.6313,-0.1009 l 0.04,0 c 0.04,0 0.044,0 0.061,0 0.4241,-0.081 0.838,-0.1616 1.2568,-0.2666 l 0,0 c 1.2164,0.4491 2.4837,0.6765 3.8515,0.6765 l -9.7025,0.04 z"
       id="path13113"
       style="fill:#1d60b5;fill-opacity:1;fill-rule:nonzero;stroke:none" />
    <path
       d="m 1139.626,1934.2472 c 0,0 0,-0.04 0,-0.04 -2.7713,2.6501 -5.5377,5.0785 -8.2992,7.2742 -1.4438,1.1461 -2.8823,2.2313 -4.3361,3.2563 1.2164,1.4538 2.4534,2.8168 3.7558,4.0587 1.9789,1.9179 4.0938,3.5337 6.401,4.7804 0.525,-0.2585 1.05,-0.5404 1.5597,-0.838 2.3524,-1.3731 4.4626,-3.2256 6.4568,-5.6588 -2.0649,-3.5236 -3.877,-7.8905 -5.5279,-12.8376"
       id="path13117"
       style="fill:#175fab;fill-opacity:1;fill-rule:nonzero;stroke:none" />
    <path
       d="m 1222.0342,1834.4954 -13.0949,0 c -0.4394,0 -0.8736,0 -1.3025,0 l 0,0 c -0.4192,0 -0.823,0 -1.2317,0 l 0,0 -0.048,0 c -0.8481,0.04 -1.6707,0.069 -2.4837,0.1212 l 0,0 c -0.3836,0.8231 -0.7774,1.6461 -1.1562,2.474 l 0,0 c -12.9786,27.6432 -26.6086,51.5969 -40.4455,70.6385 l 0,0 c -6.5071,20.0258 -11.2826,32.1769 -17.1385,39.3251 l 0,0 c 2.5039,4.2707 5.4167,7.2741 8.8797,8.5463 l 0,0 c 0.101,-0.04 0.1817,-0.04 0.2726,-0.061 l 0,0 c 0,0 0.05,0 0.056,0 l 0,0 c 0.061,0 0.126,-0.04 0.1919,-0.04 l 0,0 c 0.1413,-0.04 0.2928,-0.065 0.4341,-0.109 l 0,0 c 0.091,-0.04 0.1664,-0.044 0.2577,-0.073 l 0,0 c 0.1312,-0.04 0.2673,-0.069 0.3885,-0.101 l 0,0 c 0.081,-0.04 0.1615,-0.053 0.2423,-0.069 l 0,0 c 0.2019,-0.065 0.3836,-0.1131 0.5755,-0.1737 l 0,0 c 0.091,-0.04 0.187,-0.073 0.2879,-0.097 l 0,0 c 0.1111,-0.04 0.2221,-0.069 0.3231,-0.1171 l 0,0 c 0.1163,-0.04 0.2322,-0.061 0.3332,-0.105 l 0,0 c 0.091,-0.04 0.1866,-0.065 0.2726,-0.101 l 0,0 c 0.2269,-0.081 0.4493,-0.1494 0.6764,-0.2383 l 0,0 c 0.061,0 0.1212,-0.056 0.187,-0.069 l 0,0 c 0.1361,-0.057 0.2775,-0.101 0.414,-0.1616 l 0,0 c 0.05,-0.04 0.111,-0.044 0.1764,-0.065 l 0,0 c 0.4746,-0.1979 0.9642,-0.3998 1.4539,-0.6207 l 0,0 c 0,0 0.051,0 0.051,0 l 0,0 c 0.6966,-0.3069 1.4034,-0.6514 2.1051,-1.0096 l 0,0 c 22.4996,-12.5699 33.8581,-54.8027 69.1749,-117.8892 l 0,0 -9.8641,0 z"
       id="path13139"
       style="fill:url(#linearGradient8720);stroke:none" />
    <path
       d="m 1026.7275,1837.2675 c 0.056,0 0.1062,0 0.1615,0.04 0.1361,0 0.2726,0 0.4089,0.044 0.051,0 0.096,0 0.1365,0 0.2472,0.04 0.4947,0.061 0.7471,0.097 0.046,0 0.086,0 0.126,0.04 0.2068,0.04 0.419,0.073 0.631,0.105 0.046,0 0.1063,0.04 0.1567,0.04 0.4847,0.097 0.9794,0.1979 1.4539,0.3231 0.045,0 0.091,0.04 0.1313,0.04 0.2019,0.048 0.3836,0.109 0.5855,0.1655 0.061,0 0.1058,0.04 0.1616,0.049 0.2374,0.061 0.4594,0.1212 0.6916,0.1979 0.01,0 0.024,0 0.051,0.04 0.1966,0.06 0.3986,0.1373 0.6057,0.2059 0.081,0.04 0.1563,0.057 0.2322,0.077 0.1414,0.061 0.2981,0.1211 0.4342,0.1777 0.081,0 0.1615,0.056 0.2471,0.085 0.1866,0.085 0.3837,0.1615 0.5755,0.2423 0.101,0.04 0.1866,0.085 0.2827,0.1211 0.1111,0.057 0.227,0.1091 0.3482,0.1495 0.1009,0.048 0.212,0.1009 0.3077,0.1453 0.1062,0.057 0.2068,0.101 0.3081,0.1575 2.5039,1.2318 4.8109,2.8726 6.9463,4.8616 0.7875,-0.8279 1.6103,-1.5702 2.4635,-2.2365 -4.6696,-3.3116 -9.96,-5.1996 -16.0632,-5.1996 -0.7068,0 -1.4135,0.04 -2.1303,0.093"
       id="path13231"
       style="fill:#7dcbec;fill-opacity:1;fill-rule:nonzero;stroke:none" />
    <path
       d="m 1042.4585,1844.6131 c 1.3075,1.2164 2.5594,2.5746 3.7457,4.0386 1.1459,-0.7976 2.2818,-1.565 3.4227,-2.2818 -1.4943,-1.4943 -3.0693,-2.8371 -4.71,-3.9933 -0.8531,0.6615 -1.6709,1.4086 -2.4584,2.2365"
       id="path13235"
       style="fill:#5ec5ed;fill-opacity:1;fill-rule:nonzero;stroke:none" />
    <g
       transform="matrix(5.0481458,0,0,-5.0481458,-9064.2597,2270.6096)"
       id="g13243">
      <path
         d="m 1998.949,85.842 c 0.142,0.012 0.282,0.017 0.422,0.017 1.209,0 2.257,-0.374 3.182,-1.029 0.976,0.77 2.156,1.039 3.795,1.039 l -7.937,0 c 0.183,0 0.362,-0.011 0.538,-0.027"
         id="path13245"
         style="fill:url(#linearGradient8943);stroke:none" />
    </g>
    <g
       transform="matrix(5.0481458,0,0,-5.0481458,-9064.2597,2270.6096)"
       id="g13253">
      <path
         d="m 2006.348,85.869 c -1.639,0 -2.819,-0.269 -3.795,-1.039 0.324,-0.229 0.636,-0.495 0.932,-0.791 1.359,0.864 2.705,1.436 4.032,1.686 0.506,0.095 1.011,0.144 1.509,0.144 l -2.678,0 z"
         id="path13255"
         style="fill:url(#linearGradient8939);stroke:none" />
    </g>
    <path
       d="m 1162.2894,1907.7691 c 3.5589,-10.9747 7.6327,-24.2965 12.6859,-40.4559 4.5535,-14.5588 12.6154,-25.4426 27.7547,-30.1927 0.3999,-0.813 0.7775,-1.651 1.1664,-2.474 -24.6806,1.4793 -36.2156,14.0338 -42.021,32.6264 -10.1518,32.4595 -16.3005,53.5002 -22.2219,66.9081 7.5621,-7.229 15.1242,-16.1036 22.6359,-26.4119"
       id="path13333"
       style="fill:url(#linearGradient3751);stroke:none" />
  </g>
</svg>
