<svg version="1" id="Layer_1" xmlns="http://www.w3.org/2000/svg" viewBox="0 0 361.3 359.3"><style></style><linearGradient id="SVGID_1_" gradientUnits="userSpaceOnUse" x1="180.9504" y1="359.3629" x2="180.9504" y2="-.7174"><stop offset="0" stop-color="#ea782f"/><stop offset="1" stop-color="#ea6539"/></linearGradient><path d="M301 359.4H61c-33.1 0-60-26.9-60-60V59.3c0-33.1 26.9-60 60-60h240c33.1 0 60 26.9 60 60v240.1c0 33.1-26.9 60-60 60z" fill="url(#SVGID_1_)"/><path d="M125 207.8c.4-1.3.8-2.1 1-2.9 4.9-18.7 10-37.4 14.5-56.2 1.4-5.8 2.7-11.5 6.2-16.4 5.6-7.8 13.7-12 22.8-13.6 6.9-1.2 14.1-1.6 21.1-1.5 5.5.1 11.1.9 16.3 2.4 12.3 3.7 19.7 12.3 22.3 24.8.9 4.1.5 8.5.5 12.7 0 6.2-.2 12.3-.2 18.5.1 14.4.2 28.8.4 43.2 0 .6.1 1.3.2 2.1 2.9.1 5.7.4 8.6.4h48.5c5.8 0 5.8-.1 5.8 5.8 0 3.8-.1 7.7 0 11.5 0 1.7-.4 2.5-2.4 2.5-35.9 0-71.8.1-107.7-.1-10.5-.1-20.4-3.1-28.8-9.7-3.8-3-7-6.4-8.9-10.9-.3-.7-.7-1.4-1.3-2.6-.5 1.3-1 2.2-1.3 3.1-1.9 5.9-3.8 11.9-5.6 17.8-.5 1.7-1.2 2.4-3.1 2.4-6.6-.1-13.2-.1-19.7 0-1.7 0-2.5-.6-3.1-2.1L67.9 119.6c-.2-.7-.5-1.4-.8-2.4.9-.1 1.6-.2 2.3-.2 7.3 0 14.7.1 22-.1 2 0 2.6.7 3.2 2.5 9.8 28.8 19.6 57.6 29.5 86.4.1.5.4 1 .9 2zm33.5-26.7c-.2 1.7-.4 3-.4 4.3.1 3.8.2 7.6.3 11.5.3 9.4 8.1 18.9 17.4 20.6 4.4.8 9 .9 13.5 1.2 5.8.3 11.2-.9 16.2-3.8 8.8-5.2 7.1-15.9-1-19.7-1.5-.7-3-1.6-4.5-2-13.6-4.2-27.4-8.1-41.5-12.1zm51.3-10.2c.2-1.5.4-2.8.4-4.1-.1-3.6-.3-7.1-.3-10.7-.2-7.3-6.1-15.2-13.1-17.5-6.4-2.1-13-2.1-19.4-1.2-3.5.5-7.1 1.9-10.2 3.7-6.3 3.8-6.2 12-.2 16.2 1.6 1.1 3.3 2.1 5.1 2.6 12.4 3.7 24.9 7.2 37.7 11z" fill="#fff"/></svg>