<svg xmlns="http://www.w3.org/2000/svg" viewBox="0 0 48 48"><path d="M38 17c0 7.7305-6.2695 14-14 14s-14-6.2695-14-14S16.2695 3 24 3s14 6.2695 14 14z" fill="#d6d1d0"/><path d="M19 30v1.9258c0 .6445.2656 1.2656.7383 1.7031.836.7617 2.0976 2.1016 2.2617 3.3711.25 1.918 1 8 1 8h2s.75-6.082 1-8c.164-1.2695 1.4258-2.6094 2.2617-3.371.4766-.4376.7383-1.0587.7383-1.7032V30z" fill="#ffba57"/><path d="M26 17c0 1.1055-.8945 2-2 2-1.1055 0-2-.8945-2-2 0-1.1055.8945-2 2-2 1.1055 0 2 .8945 2 2zm3-2c-1.1055 0-2 .8945-2 2 0 1.1055.8945 2 2 2 1.1055 0 2-.8945 2-2 0-1.1055-.8945-2-2-2zm8 1c-.5508 0-1 .4492-1 1s.4492 1 1 1 1-.4492 1-1-.4492-1-1-1zm-3.5-.5c-.8281 0-1.5.6719-1.5 1.5s.6719 1.5 1.5 1.5S35 17.8281 35 17s-.6719-1.5-1.5-1.5zM19 15c-1.1055 0-2 .8945-2 2 0 1.1055.8945 2 2 2 1.1055 0 2-.8945 2-2 0-1.1055-.8945-2-2-2zm-4.5.5c-.8281 0-1.5.6719-1.5 1.5s.6719 1.5 1.5 1.5S16 17.8281 16 17s-.6719-1.5-1.5-1.5zM11 16c-.5508 0-1 .4492-1 1s.4492 1 1 1 1-.4492 1-1-.4492-1-1-1zm10-6c-1.1055 0-2 .8945-2 2 0 1.1055.8945 2 2 2 1.1055 0 2-.8945 2-2 0-1.1055-.8945-2-2-2zm5 0c-1.1055 0-2 .8945-2 2 0 1.1055.8945 2 2 2 1.1055 0 2-.8945 2-2 0-1.1055-.8945-2-2-2zm8 1c-.5508 0-1 .4492-1 1s.4492 1 1 1 1-.4492 1-1-.4492-1-1-1zm-3.5-.5c-.8281 0-1.5.6719-1.5 1.5s.6719 1.5 1.5 1.5S32 12.8281 32 12s-.6719-1.5-1.5-1.5zm-14 0c-.8281 0-1.5.6719-1.5 1.5s.6719 1.5 1.5 1.5S18 12.8281 18 12s-.6719-1.5-1.5-1.5zM13 11c-.5508 0-1 .4492-1 1s.4492 1 1 1 1-.4492 1-1-.4492-1-1-1zm15.5-5.5c-.8281 0-1.5.6719-1.5 1.5s.6719 1.5 1.5 1.5S30 7.8281 30 7s-.6719-1.5-1.5-1.5zM32 6c-.5508 0-1 .4492-1 1s.4492 1 1 1 1-.4492 1-1-.4492-1-1-1zm-8-1c-1.1055 0-2 .8945-2 2 0 1.1055.8945 2 2 2 1.1055 0 2-.8945 2-2 0-1.1055-.8945-2-2-2zm-4.5.5c-.8281 0-1.5.6719-1.5 1.5s.6719 1.5 1.5 1.5S21 7.8281 21 7s-.6719-1.5-1.5-1.5zM16 6c-.5508 0-1 .4492-1 1s.4492 1 1 1 1-.4492 1-1-.4492-1-1-1zm5 14c-1.1055 0-2 .8945-2 2 0 1.1055.8945 2 2 2 1.1055 0 2-.8945 2-2 0-1.1055-.8945-2-2-2zm5 0c-1.1055 0-2 .8945-2 2 0 1.1055.8945 2 2 2 1.1055 0 2-.8945 2-2 0-1.1055-.8945-2-2-2zm8 1c-.5508 0-1 .4492-1 1s.4492 1 1 1 1-.4492 1-1-.4492-1-1-1zm-3.5-.5c-.8281 0-1.5.6719-1.5 1.5s.6719 1.5 1.5 1.5S32 22.8281 32 22s-.6719-1.5-1.5-1.5zm-14 0c-.8281 0-1.5.6719-1.5 1.5s.6719 1.5 1.5 1.5S18 22.8281 18 22s-.6719-1.5-1.5-1.5zM13 21c-.5508 0-1 .4492-1 1s.4492 1 1 1 1-.4492 1-1-.4492-1-1-1zm15.5 4.5c-.8281 0-1.5.6719-1.5 1.5s.6719 1.5 1.5 1.5S30 27.8281 30 27s-.6719-1.5-1.5-1.5zm3.5.5c-.5508 0-1 .4492-1 1s.4492 1 1 1 1-.4492 1-1-.4492-1-1-1zm-8-1c-1.1055 0-2 .8945-2 2 0 1.1055.8945 2 2 2 1.1055 0 2-.8945 2-2 0-1.1055-.8945-2-2-2zm-4.5.5c-.8281 0-1.5.6719-1.5 1.5s.6719 1.5 1.5 1.5S21 27.8281 21 27s-.6719-1.5-1.5-1.5zM16 26c-.5508 0-1 .4492-1 1s.4492 1 1 1 1-.4492 1-1-.4492-1-1-1z" fill="#b2aead"/><path d="M28.2617 33.629c.1953-.1798.3438-.3985.4649-.629h-9.4532c.1211.2305.2696.4492.4688.629.6133.5624 1.457 1.4413 1.9297 2.371h4.6601c.4688-.9297 1.3125-1.8086 1.9297-2.371z" fill="#f29b1c"/></svg>
