<svg xmlns="http://www.w3.org/2000/svg" viewBox="0 0 128 128"><path d="M79 9c24.9 0 45 20.1 45 45 0 12.3-4.9 23.4-12.9 31.5L124 99H79c-24.9 0-45-20.1-45-45S54.1 9 79 9z" fill="#444b54"/><path d="M124 102H79c-26.5 0-48-21.5-48-48S52.5 6 79 6s48 21.5 48 48c0 11.7-4.2 22.8-11.8 31.5l10.9 11.4c.8.9 1.1 2.1.6 3.3s-1.5 1.8-2.7 1.8zM79 12c-23.2 0-42 18.8-42 42s18.8 42 42 42h38l-8-8.4c-1.1-1.2-1.1-3 0-4.2 7.8-7.9 12-18.4 12-29.4 0-23.2-18.8-42-42-42z" fill="#444b54"/><path d="M54 29C29.1 29 9 49.1 9 74c0 12.3 4.9 23.4 12.9 31.5L9 119h45c24.9 0 45-20.1 45-45S78.9 29 54 29z" fill="#fff"/><path d="M54 122H9c-1.2 0-2.3-.7-2.8-1.8s-.2-2.4.6-3.3l10.9-11.4C10.2 96.8 6 85.7 6 74c0-26.5 21.5-48 48-48s48 21.5 48 48-21.5 48-48 48zm-38-6h38c23.2 0 42-18.8 42-42S77.2 32 54 32 12 50.8 12 74c0 11.1 4.3 21.5 12 29.4 1.1 1.2 1.1 3 0 4.2l-8 8.4z" fill="#444b54"/><circle cx="54" cy="74" r="28" fill="#fcca3d"/><path d="M69 77H39c-1.7 0-3-1.3-3-3s1.3-3 3-3h30c1.7 0 3 1.3 3 3s-1.3 3-3 3zM59 67H39c-1.7 0-3-1.3-3-3s1.3-3 3-3h20c1.7 0 3 1.3 3 3s-1.3 3-3 3zM69 87H54c-1.7 0-3-1.3-3-3s1.3-3 3-3h15c1.7 0 3 1.3 3 3s-1.3 3-3 3z" fill="#fff"/><circle cx="39" cy="84" r="3" fill="#fff"/><circle cx="69" cy="64" r="3" fill="#fff"/></svg>
