<svg xmlns="http://www.w3.org/2000/svg" width="1024" height="1024" viewBox="0 0 1024 1024"><path d="M511.953 1024l443.448-255.981V255.984L511.953 512.002V1024z" fill="#ea741b"/><path d="M68.6 255.984V768.02L511.952 1024V512.002L68.599 255.984z" fill="#f58221"/><path d="M68.6 255.984l443.353 256.018 443.446-256.018L511.953 0 68.599 255.984z" fill="#ffa336"/><g><path d="M454.196 380.635h39.338c21.129 0 40.192 1.222 57.19 3.644a237.788 237.788 0 0 1 22.285 4.285 152.588 152.588 0 0 0-25.254-12.756c-12.338-4.754-26.524-8.314-42.03-10.533-16.077-2.293-34.433-3.454-54.524-3.454H430.68v87.283h-65.705v18.815h89.222v-87.284zM773.805 470.78c-6.928-23.673-17.124-45.102-30.602-64.284-.734-1.042-1.515-2.054-2.268-3.082 3.251 7.923 6.146 16.064 8.6 24.455 7.383 25.273 11.124 52.968 11.124 82.31 0 27.66-3.134 54.031-9.317 78.385-6.283 24.74-16.01 47.689-28.89 68.203-12.983 20.661-29.53 39.089-49.179 54.771-19.549 15.629-42.92 28.554-69.442 38.439-21.755 8.195-46.707 14.414-74.11 18.466-26.98 3.995-57.683 6.025-91.261 6.025h-73.486v18.816h115.818c32.778 0 62.278-1.939 88.505-5.826 26.22-3.876 49.647-9.71 70.298-17.481 24.759-9.224 46.181-21.056 64.271-35.507 18.098-14.453 33.081-31.144 44.978-50.078 11.898-18.944 20.762-39.889 26.596-62.83 5.824-22.948 8.736-47.53 8.736-73.759 0-27.674-3.453-53.349-10.37-77.022" fill="#893d0a"/><path d="M731.473 433.151c-6.929-23.673-17.125-45.102-30.603-64.285-13.476-19.176-30.168-35.813-50.077-49.896-19.918-14.08-42.855-25.25-68.837-33.51-8.735-2.917-18.335-5.397-28.772-7.463a505.956 505.956 0 0 0-32.42-5.278 508.323 508.323 0 0 0-34.412-3.276 558.613 558.613 0 0 0-34.783-1.093H322.642v161.94h89.222v-87.283h39.337c21.13 0 40.193 1.222 57.19 3.642 16.985 2.43 32.418 6.321 46.254 11.655 14.8 5.827 28.103 13.237 39.879 22.217 11.768 8.985 21.792 19.73 30.05 32.235 8.25 12.505 14.571 26.768 18.935 42.793 4.371 16.027 6.559 33.995 6.559 53.904 0 38.119-6.688 69.436-20.037 93.967-13.349 24.528-33.025 43.215-58.998 56.084-29.386 14.332-70.178 21.488-122.375 21.488H322.642v74.663h115.817c32.779 0 62.277-1.94 88.506-5.826 26.22-3.876 49.646-9.709 70.297-17.482 24.759-9.224 46.182-21.056 64.271-35.507 18.098-14.451 33.081-31.144 44.979-50.078 11.897-18.944 20.761-39.888 26.595-62.829 5.824-22.947 8.737-47.53 8.737-73.755 0-27.678-3.454-53.351-10.371-77.027" fill="#fff"/></g></svg>