<svg xmlns="http://www.w3.org/2000/svg" viewBox="0 0 64 64"><style>.Drop_x0020_Shadow{fill:none}.Round_x0020_Corners_x0020_2_x0020_pt{fill:#fff;stroke:#1b1b1f;stroke-miterlimit:10}.Live_x0020_Reflect_x0020_X{fill:none}.Bevel_x0020_Soft{fill:url(#SVGID_1_)}.Dusk{fill:#fff}.Foliage_GS{fill:#ffdc00}.Pompadour_GS{fill-rule:evenodd;clip-rule:evenodd;fill:#58aee2}.st0{fill:none}.st1{fill:#fff}.st2{fill:#283037}.st3{fill:#4da825}</style><switch><g><linearGradient id="SVGID_1_" gradientUnits="userSpaceOnUse" x1="603.652" x2="604.359" y2=".707"><stop offset="0" stop-color="#e6e6ea"/><stop offset=".172" stop-color="#e2e2e6"/><stop offset=".348" stop-color="#d7d6da"/><stop offset=".526" stop-color="#c4c2c5"/><stop offset=".706" stop-color="#a9a7a8"/><stop offset=".885" stop-color="#878484"/><stop offset="1" stop-color="#6d6968"/></linearGradient><path class="st0" d="M.3 0h64v64H.3z"/><path class="st1" d="M56.4 13.1l-20.2-12c-2.4-1.4-5.4-1.4-7.8 0l-20.2 12c-2.4 1.4-3.9 4.1-3.9 6.9v24c0 2.9 1.5 5.5 3.9 6.9l20.2 12c1.2.7 2.6 1.1 3.9 1.1 1.3 0 2.7-.4 3.9-1.1l20.2-12c2.4-1.4 3.9-4.1 3.9-6.9V20c0-2.9-1.5-5.5-3.9-6.9z"/><path class="st2" d="M56.4 13.1l-20.2-12C35 .4 33.7 0 32.3 0c-1.3 0-2.7.4-3.9 1.1l-20.2 12c-2.4 1.4-3.9 4.1-3.9 6.9v24c0 2.9 1.5 5.5 3.9 6.9l20.2 12c1.2.7 2.6 1.1 3.9 1.1 1.3 0 2.7-.4 3.9-1.1l20.2-12c2.4-1.4 3.9-4.1 3.9-6.9V20c0-2.9-1.5-5.5-3.9-6.9zM29.1 61.7l-20.2-12c-2-1.2-3.2-3.4-3.2-5.7V20c0-2.4 1.2-4.5 3.2-5.7l20.2-12c1-.6 2.1-.9 3.2-.9s2.2.3 3.2.9l20.2 12c1.7 1 2.8 2.7 3.1 4.6-.7-1.4-2.2-1.8-3.9-.8L35.8 29.9c-2.4 1.4-4.1 3-4.1 5.8v23.6c0 1.7.7 2.8 1.8 3.2-.4.1-.7.1-1.1.1-1.2 0-2.3-.3-3.3-.9z"/><path class="st3" d="M51.1 46.3l-5 3c-.1.1-.2.2-.2.3V51c0 .2.1.2.2.1l5.1-3.1c.1-.1.2-.2.2-.4v-1.2c0-.1-.1-.2-.3-.1z"/><path class="st1" d="M40.4 35.2c.2-.1.3 0 .3.2v1.7c.7-.3 1.4-.4 1.9-.2.1 0 .2.2.1.4l-.4 1.5c0 .1-.1.2-.2.3l-.1.1h-.2c-.3-.1-.9-.2-1.9.3-1 .5-1.4 1.4-1.4 2.1 0 .8.4 1 1.8 1.1 1.9 0 2.7.8 2.7 2.7 0 1.8-1 3.8-2.5 5v1.7c0 .2-.1.4-.3.5l-1 .6c-.2.1-.3 0-.3-.2v-1.7c-.9.4-1.8.5-2.3.2-.1 0-.2-.2-.1-.4l.4-1.6c0-.1.1-.2.2-.3l.1-.1h.2c.6.2 1.4.1 2.1-.3 1-.5 1.6-1.5 1.6-2.4 0-.9-.5-1.2-1.6-1.2-1.5 0-2.8-.3-2.9-2.4 0-1.8.9-3.6 2.4-4.8v-1.7c0-.2.1-.4.3-.5l1.1-.6z"/></g></switch></svg>
