<svg xmlns="http://www.w3.org/2000/svg" width="1000" height="1000" viewBox="0 0 999.99998 1000"><text style="line-height:125%" x="856.458" y="221.685" font-weight="400" font-size="2.668" font-family="sans-serif" letter-spacing="0" word-spacing="0" transform="translate(-845.48 763.716)"/><path d="M494.906 38.554c-18.798 1.008-21.957 2.457-65.983 27.743-18.873 10.84-37.468 21.339-41.24 23.431-3.772 2.092-12.739 7.237-19.87 11.435-7.13 4.194-15.246 9.031-18.183 10.685-4.856 2.735-30.534 17.382-118.282 67.857-16.775 9.65-32.538 18.815-35.053 20.245a6693.081 6693.081 0 0 0-34.303 19.683c-16.357 9.453-32.335 18.647-35.617 20.432-9.721 5.278-24.146 20.57-29.617 31.491-10.097 20.08-9.377 7.4-9.377 227.38 0 193.871.089 206.04 4.31 217.068 7.16 18.705 16.236 30.64 30.742 40.49 4.886 3.312 9.176 6.181 9.56 6.181.383 0 8.244 4.3 17.62 9.748 9.386 5.451 17.332 9.935 17.62 9.935.288 0 4.98 2.774 10.31 5.998 5.326 3.225 12.724 7.62 16.496 9.748 8.695 4.914 35.952 20.452 41.989 23.993 2.514 1.479 11.481 6.613 19.87 11.435a2624.278 2624.278 0 0 1 19.682 11.434c5.404 3.177 42.812 24.604 52.674 30.18 3.772 2.13 11.169 6.526 16.496 9.748 5.326 3.225 10.021 5.807 10.31 5.807.287 0 6.17 3.416 13.121 7.495 6.949 4.08 15.724 9.137 19.495 11.248a3561.706 3561.706 0 0 1 39.74 22.68c39.27 22.775 42.57 24.39 57.923 27.931 10.825 2.515 14.332 2.678 25.306.768 8.56-1.507 24.046-6.699 27.367-9.185 1.603-1.2 15.565-9.338 29.43-17.058 4.52-2.515 22.449-12.802 39.74-22.87 17.292-10.066 34.468-19.998 38.24-22.119 6.056-3.407 60.462-34.617 72.544-41.614 8.609-4.99 35.016-20.155 41.802-23.994 3.733-2.111 10.192-5.921 14.434-8.436 9.05-5.374 15.871-9.194 25.305-14.434 3.772-2.092 12.74-7.226 19.87-11.434 7.131-4.194 16.754-9.848 21.37-12.372 4.617-2.524 11.884-6.757 16.308-9.56 4.415-2.802 8.427-5.057 8.81-5.057 2.822 0 18.44-12.013 25.12-19.308 9.625-10.513 15.716-23.067 18.932-38.427 3.503-16.708 3.685-394.012.191-410.894-2.956-14.298-9.67-27.795-18.557-37.678-9.502-10.571-14.514-13.908-56.986-37.866-3.771-2.13-15.052-8.58-25.118-14.433-15.316-8.907-90.023-51.992-105.349-60.735-2.514-1.43-12.804-7.266-22.869-13.122-10.065-5.855-21.346-12.52-25.118-14.621-3.772-2.102-23.358-13.164-43.489-24.743-20.13-11.579-47.051-26.99-59.797-34.304-28.53-16.374-36.988-19.118-57.922-17.995z" fill="none" stroke="#3c3c3c" stroke-width="76.780248" stroke-linecap="round" stroke-linejoin="round" stroke-opacity=".392"/><path d="M494.921 39.172c-18.798 1.008-21.957 2.457-65.983 27.743-18.872 10.84-37.468 21.339-41.24 23.431-3.771 2.093-12.738 7.237-19.87 11.435-7.13 4.194-15.246 9.031-18.183 10.685-4.856 2.735-30.533 17.382-118.282 67.857-16.775 9.65-32.538 18.815-35.053 20.245a6693.081 6693.081 0 0 0-34.303 19.683c-16.356 9.453-32.334 18.647-35.617 20.432-9.72 5.279-24.146 20.57-29.617 31.491-10.096 20.08-9.376 7.4-9.376 227.38 0 193.871.088 206.041 4.309 217.069 7.16 18.704 16.236 30.639 30.743 40.49 4.885 3.31 9.175 6.18 9.559 6.18.384 0 8.244 4.3 17.62 9.748 9.386 5.451 17.332 9.935 17.62 9.935.288 0 4.981 2.774 10.31 5.998 5.326 3.225 12.724 7.62 16.496 9.748 8.695 4.914 35.952 20.452 41.99 23.994 2.514 1.478 11.48 6.612 19.869 11.434a2624.278 2624.278 0 0 1 19.683 11.435c5.403 3.176 42.811 24.603 52.674 30.179 3.772 2.13 11.168 6.526 16.495 9.748 5.327 3.225 10.022 5.807 10.31 5.807.288 0 6.17 3.416 13.121 7.495 6.949 4.08 15.724 9.137 19.496 11.248a3561.706 3561.706 0 0 1 39.74 22.68c39.269 22.775 42.57 24.39 57.922 27.931 10.825 2.515 14.332 2.678 25.306.768 8.561-1.507 24.047-6.699 27.368-9.185 1.602-1.2 15.565-9.338 29.43-17.058 4.52-2.515 22.448-12.802 39.74-22.87 17.292-10.066 34.468-19.998 38.24-22.119 6.055-3.407 60.46-34.617 72.543-41.614 8.61-4.99 35.017-20.154 41.802-23.994 3.734-2.111 10.192-5.921 14.434-8.436 9.05-5.374 15.871-9.194 25.306-14.433 3.772-2.093 12.74-7.227 19.87-11.435 7.13-4.194 16.753-9.848 21.37-12.372 4.616-2.524 11.883-6.757 16.308-9.56 4.414-2.802 8.426-5.057 8.81-5.057 2.822 0 18.439-12.013 25.119-19.308 9.625-10.513 15.717-23.067 18.932-38.427 3.503-16.707 3.685-394.012.192-410.894-2.956-14.298-9.67-27.795-18.558-37.678-9.502-10.571-14.513-13.908-56.985-37.865-3.772-2.131-15.053-8.58-25.119-14.434-15.316-8.907-90.023-51.992-105.348-60.735-2.515-1.43-12.804-7.266-22.87-13.122-10.064-5.855-21.346-12.52-25.118-14.62-3.772-2.103-23.357-13.165-43.488-24.744s-47.052-26.99-59.798-34.304c-28.53-16.374-36.988-19.118-57.922-17.995z" fill="none" stroke="#fff" stroke-width="47.987655" stroke-linecap="round" stroke-linejoin="round"/><path d="M494.902 38.324c-18.798 1.008-21.957 2.457-65.983 27.742-18.873 10.84-37.468 21.34-41.24 23.432-3.771 2.092-12.738 7.236-19.87 11.434-7.13 4.194-15.246 9.032-18.183 10.685-4.856 2.736-30.533 17.382-118.282 67.858-16.775 9.65-32.538 18.815-35.053 20.245a6693.081 6693.081 0 0 0-34.303 19.682c-16.356 9.454-32.334 18.647-35.617 20.433-9.721 5.278-24.146 20.569-29.617 31.49-10.096 20.08-9.377 7.4-9.377 227.38 0 193.872.089 206.042 4.31 217.07 7.16 18.704 16.236 30.638 30.743 40.49 4.885 3.31 9.175 6.18 9.559 6.18.384 0 8.244 4.3 17.62 9.747 9.386 5.452 17.332 9.936 17.62 9.936.288 0 4.981 2.773 10.31 5.998 5.326 3.225 12.724 7.62 16.496 9.747 8.695 4.914 35.952 20.453 41.989 23.994 2.515 1.478 11.482 6.613 19.87 11.435a2624.278 2624.278 0 0 1 19.682 11.434c5.404 3.177 42.812 24.603 52.674 30.18 3.772 2.13 11.17 6.526 16.496 9.748 5.326 3.225 10.022 5.806 10.31 5.806.287 0 6.17 3.417 13.121 7.496 6.949 4.079 15.724 9.137 19.496 11.247a3561.706 3561.706 0 0 1 39.74 22.681c39.268 22.774 42.57 24.39 57.922 27.93 10.825 2.515 14.332 2.679 25.306.769 8.561-1.507 24.047-6.7 27.367-9.185 1.603-1.2 15.566-9.338 29.43-17.059 4.52-2.514 22.449-12.8 39.74-22.869 17.293-10.067 34.468-19.998 38.24-22.12 6.056-3.406 60.462-34.617 72.544-41.613 8.609-4.99 35.017-20.155 41.802-23.994 3.734-2.111 10.192-5.922 14.434-8.436 9.05-5.375 15.871-9.195 25.306-14.434 3.771-2.092 12.74-7.227 19.87-11.434 7.13-4.195 16.753-9.848 21.37-12.373 4.616-2.524 11.883-6.756 16.307-9.559 4.415-2.802 8.427-5.058 8.81-5.058 2.823 0 18.44-12.013 25.12-19.307 9.625-10.513 15.716-23.068 18.932-38.428 3.503-16.707 3.685-394.012.192-410.894-2.956-14.297-9.67-27.794-18.558-37.678-9.502-10.57-14.514-13.908-56.986-37.865-3.771-2.13-15.052-8.58-25.118-14.434-15.316-8.906-90.023-51.991-105.348-60.735-2.515-1.43-12.804-7.265-22.87-13.121-10.064-5.855-21.346-12.52-25.118-14.621-3.772-2.102-23.358-13.164-43.488-24.744-20.131-11.578-47.052-26.99-59.798-34.303-28.53-16.375-36.988-19.119-57.922-17.996z" fill="#9b4f96" fill-rule="evenodd"/><path d="M102.142 735.76c10.272 15.775 14.981 15.537 58.892 41.023 18.824 10.924 37.214 21.778 40.912 23.998 3.695 2.217 12.636 7.41 19.837 11.49 7.198 4.08 15.445 8.686 18.345 10.405 4.799 2.841 30.32 17.753 117.907 68.507 16.745 9.703 32.564 18.771 35.06 20.234 2.495 1.459 17.832 10.429 34.197 19.867 16.365 9.434 32.316 18.679 35.503 20.629 9.435 5.777 29.888 10.625 42.082 9.902 22.438-1.295 11.096 4.425 201.604-105.569C874.38 759.31 884.873 753.148 892.313 743.98c12.619-15.552 18.416-29.38 19.694-46.87.384-5.883.768-11.035.576-11.367-.192-.288-.384-9.29-.384-20.134.028-10.854-.062-19.977-.192-20.227-.096-.288-.088-5.7.04-11.928.096-6.229.192-14.83.192-19.16-.092-9.987-.288-41.36-.192-48.36.022-2.918-.014-13.25-.032-22.925-.023-9.673.038-19.846.06-22.762.05-6.268-.095-49.379-.191-60.708-.04-4.328.068-12.935.192-19.16.096-6.228.026-11.586-.096-11.836-.096-.288-.096-7.054-.07-15.111.06-8.053.052-18.186-.007-22.507-.057-4.32-.288-24.909-.192-45.757.089-45.395-.192-49.061-4.77-64.127-1.871-6.143-4.78-9.252-6.977-12.854L100.198 731.099c.96 1.574.96 2.956 2.034 4.664z" fill="#68217a" fill-rule="evenodd"/><path d="M902.96 727.514c8.523-16.783 8.85-20.243 8.964-71.014.048-21.765.288-43.118.288-47.43.074-4.31.096-14.65.033-22.925-.066-8.273-.192-17.72-.192-21.09.058-5.577.192-35.134.384-136.364.03-19.354-.025-37.587-.006-40.48.018-2.888.096-20.656.096-39.548-.009-18.892.018-37.326.096-41.061.288-10.522-6.334-28.838-12.66-39.415L500 500l399.853 231.616c.864-1.603 2.093-2.284 3.024-4.089z" fill="#813787" fill-rule="evenodd"/><path d="M482.005 226.564v.192c-36.226 2.534-71.743 11.694-102.723 27.555-107.664 55.124-166.59 168.071-149.4 286.426 5.346 36.794 20.123 76.004 40.114 106.473 3.926 5.98 7.486 11.238 7.87 11.622.384.384 3.916 4.895 7.688 9.935 9.434 12.588 33.296 36.488 47.988 47.988 41.348 32.363 95.715 53.142 149.587 57.172 11.514.864 47.344-.671 59.422-2.437 5.874-.864 12.996-2.045 15.933-2.812 2.937-.768 8.743-2.189 12.934-3.187 49.062-11.647 99.711-42.399 136.278-82.853 9.788-10.83 22.892-28.114 28.305-37.491l3.935-6.94-56.799-32.804c-31.192-17.997-57.76-32.986-59.046-33.178-1.363-.192-4.578 3.071-7.688 7.687-15.092 22.413-41.443 42.287-67.858 51.174-19.175 6.45-24.207 7.131-46.488 7.122-24.647-.016-38.121-2.764-57.548-11.623-14.51-6.612-23.91-13.057-38.24-26.43-24.773-23.122-39.964-55.5-42.364-90.352-4.616-67.016 38.298-126.12 104.224-143.963 16.017-4.357 51.118-4.904 65.983-.96 13.233 3.552 28.04 9.397 37.865 14.997 16.541 9.425 37.019 28.701 45.925 43.114 1.843 2.975 4.27 5.26 5.25 5.25.979-.01 5.183-1.939 9.377-4.31 8.196-4.645 35.233-20.15 42.738-24.556a2771.259 2771.259 0 0 1 19.683-11.434c8.388-4.818 18.01-10.386 21.37-12.372 3.36-1.987 10.169-5.797 14.996-8.437 4.828-2.639 8.619-5.24 8.619-5.816 0-.576-3.715-6.804-8.437-13.871-33.525-50.114-84.775-89.147-141.901-107.972-34.282-11.294-71.371-15.468-107.597-12.934zm256.433 206.571v17.433h-17.433v35.054h17.433v34.866h-17.433v35.053h17.433v17.433h35.054v-17.433h34.866v17.433h35.053v-17.433h17.434v-35.053h-17.434v-34.866h17.434v-35.054h-17.434v-17.433h-35.053v17.433h-34.866v-17.433h-35.054zm35.054 52.487h34.866v34.866h-34.866v-34.866z" fill="#fff" fill-rule="evenodd"/></svg>