<svg version="1" id="Layer_1" xmlns="http://www.w3.org/2000/svg" viewBox="0 0 35.3 50.9"><style>.st0{fill:none;stroke:#fff;stroke-miterlimit:10}.st1{fill:#fff}.st2{fill:#113540}.st7{fill:#f6d4c7}.st8{fill:#3caabb}</style><path class="st1" d="M12.7 15.8c0-.1 0-.1 0 0l-.1-.1c-.1 0-.1.1-.1.1l.1.1c0 .1.1 0 .1-.1zM21.1 15.8c0-.1-.1-.1 0 0l-.1-.1c-.1 0-.1.1-.1.1l.1.1s.1 0 .1-.1z"/><path class="st2" d="M17 8.4s-.8-.7-1.4-.8c.6.1 1 .2 1.3.3l.6.3-.5.2z"/><path class="st2" d="M17.2 8.1s.2-.6.5-.8c-.3.2-.5.4-.6.5-.2.2-.2.3-.2.3h.3zM27.9 19.5v23H7.3v-23c0-5.7 4.6-10.3 10.3-10.3 2.9 0 5.4 1.2 7.3 3 1.9 1.8 3 4.4 3 7.3z"/><path fill="#f7931e" d="M17.6 28H16l1.6 1.1 1.6-1.1z"/><path fill="#fbb03b" d="M18.9 28.1h-2.5l1.2.8z"/><path opacity=".28" fill="#fff" d="M17.3 28.6l.3.1h.1z"/><circle class="st1" cx="13.5" cy="22.6" r="3.4"/><circle class="st1" cx="21.8" cy="22.6" r="3.4"/><path fill="#e6e6e6" d="M12.2 40.8l.7.1-.3.2z"/><path class="st7" d="M34.3 34.1c0 9.3-7.6 16.9-16.9 16.9S.5 43.4.5 34.1c0-1.5.2-3 .6-4.3l4.3 4.3 6.3-3.8 5.7 3.8 5.7-3.8 5.9 3.4 4.7-4.1c.4 1.5.6 2.9.6 4.5zM35.3 13.5l-5.1 4.4-6.4-3.7-6.1 4.1-6.1-4.1-6.8 4.1L0 13.6c.1-.3.2-.6.3-1C2.7 5.3 9.6 0 17.7 0c8.2 0 15.2 5.5 17.5 13 0 .2.1.3.1.5z"/><circle class="st8" cx="13.5" cy="22.6" r="2.1"/><circle class="st8" cx="21.8" cy="22.6" r="2.3"/><circle cx="13.5" cy="22.6" r="1.5"/><circle class="st1" cx="14.4" cy="21.5" r="1"/><circle cx="21.8" cy="22.5" r="1.5"/><circle class="st1" cx="22.7" cy="21.6" r="1"/></svg>
