<svg version="1" id="Layer_1" xmlns="http://www.w3.org/2000/svg" xmlns:xlink="http://www.w3.org/1999/xlink" viewBox="0 0 153.7 93"><style>.st0{fill:none}.st1{enable-background:new}.st3{fill:#ed1c24}.st16{fill:#f7931e}.st44{fill:#8cc63f}.st70{fill:#29abe2}.st102{fill:none;stroke:#fff;stroke-miterlimit:10}.st103{fill:#fff}.st104{fill:#113540}.st105{fill:#375c62}</style><path transform="rotate(-54.1 97.8 74.8)" class="st0" d="M97 74.3h1.6v1H97z"/><g class="st1"><defs><path id="SVGID_1_" class="st1" d="M98 73.9l.3 1.1-.6.7-.3-1.1z"/></defs><clipPath id="SVGID_2_"><use xlink:href="#SVGID_1_" overflow="visible"/></clipPath><g clip-path="url(#SVGID_2_)"><path class="st3" d="M97.7 75.7l.6-.7-.3-1.1-.6.7.3 1.1"/></g></g><path transform="rotate(-25.7 100.2 70.3)" class="st0" d="M99.4 69.8h1.6v1h-1.6z"/><g class="st1"><defs><path id="SVGID_3_" class="st1" d="M100.8 69.6l-.3 1.1-.8.4.2-1.2z"/></defs><clipPath id="SVGID_4_"><use xlink:href="#SVGID_3_" overflow="visible"/></clipPath><g clip-path="url(#SVGID_4_)"><path class="st3" d="M99.7 71.1l.8-.4.3-1.1-.9.3-.2 1.2"/></g></g><path transform="rotate(-78.5 113.4 66)" class="st0" d="M112.6 65.6h1.6v1h-1.6z"/><g class="st1"><defs><path id="SVGID_5_" class="st1" d="M113.7 67l-.8-.9.2-.9.8.9z"/></defs><clipPath id="SVGID_6_"><use xlink:href="#SVGID_5_" overflow="visible"/></clipPath><g clip-path="url(#SVGID_6_)"><path class="st3" d="M113.1 65.2l-.2.9.8.9.2-.9-.8-.9"/></g></g><path transform="rotate(-16.7 97.3 46)" class="st0" d="M96.8 45.3h1v1.6h-1z"/><g class="st1"><defs><path id="SVGID_7_" class="st1" d="M96.7 45.4l1.1.4.2.9-1.1-.4z"/></defs><clipPath id="SVGID_8_"><use xlink:href="#SVGID_7_" overflow="visible"/></clipPath><g clip-path="url(#SVGID_8_)"><path class="st3" d="M98 46.7l-.2-.9-1.1-.4.2.9 1.1.4"/></g></g><path transform="rotate(-18.6 83.9 51.5)" class="st0" d="M83.1 51h1.6v1h-1.6z"/><g class="st1"><defs><path id="SVGID_9_" class="st1" d="M84.5 50.8l-.3 1.1-.9.2.3-1.1z"/></defs><clipPath id="SVGID_10_"><use xlink:href="#SVGID_9_" overflow="visible"/></clipPath><g clip-path="url(#SVGID_10_)"><path class="st3" d="M83.3 52.1l.9-.2.3-1.1-.9.2-.3 1.1"/></g></g><path transform="rotate(-65.3 74.7 46.8)" class="st0" d="M73.9 46.3h1.6v1h-1.6z"/><g class="st1"><defs><path id="SVGID_11_" class="st1" d="M74.7 45.9l.5 1-.4.9-.6-1.1z"/></defs><clipPath id="SVGID_12_"><use xlink:href="#SVGID_11_" overflow="visible"/></clipPath><g clip-path="url(#SVGID_12_)"><path class="st3" d="M74.8 47.8l.4-.9-.5-1-.5.8.6 1.1"/></g></g><g><path transform="rotate(-5.6 65.2 38)" class="st0" d="M64.7 37.2h1v1.6h-1z"/><g class="st1"><defs><path id="SVGID_13_" class="st1" d="M65.7 38.8l-1-.6v-1l1 .6z"/></defs><clipPath id="SVGID_14_"><use xlink:href="#SVGID_13_" overflow="visible"/></clipPath><g clip-path="url(#SVGID_14_)"><path class="st3" d="M64.7 37.2v1l1 .6v-1l-1-.6"/></g></g></g><g><path transform="rotate(-4.9 56.4 36.6) scale(1.00004)" class="st0" d="M55.9 35.8h1v1.6h-1z"/><g class="st1"><defs><path id="SVGID_15_" class="st1" d="M55.9 35.8l1 .6v.9l-1-.6z"/></defs><clipPath id="SVGID_16_"><use xlink:href="#SVGID_15_" overflow="visible"/></clipPath><g clip-path="url(#SVGID_16_)"><path class="st3" d="M56.9 37.3v-.9l-1-.6v.9l1 .6"/></g></g></g><g><path transform="rotate(-79.9 50.8 44.1)" class="st0" d="M50 43.6h1.6v1H50z"/><g class="st1"><defs><path id="SVGID_17_" class="st1" d="M51.1 45l-.8-.8.2-.9.8.8z"/></defs><clipPath id="SVGID_18_"><use xlink:href="#SVGID_17_" overflow="visible"/></clipPath><g clip-path="url(#SVGID_18_)"><path class="st3" d="M50.5 43.3l-.2.9.8.8.2-.9-.8-.8"/></g></g></g><g><path transform="rotate(-41.6 36.5 52.7)" class="st0" d="M36 51.9h1v1.6h-1z"/><g class="st1"><defs><path id="SVGID_19_" class="st1" d="M37.4 53l-1.1.1-.6-.7 1.1-.1z"/></defs><clipPath id="SVGID_20_"><use xlink:href="#SVGID_19_" overflow="visible"/></clipPath><g clip-path="url(#SVGID_20_)"><path class="st3" d="M35.7 52.4l.6.7 1.1-.1-.6-.7-1.1.1"/></g></g></g><g><path transform="rotate(-26.1 61.6 63.4)" class="st0" d="M61.1 62.6h1v1.6h-1z"/><g class="st1"><defs><path id="SVGID_21_" class="st1" d="M62.3 64l-1.1-.2-.4-.9 1.2.2z"/></defs><clipPath id="SVGID_22_"><use xlink:href="#SVGID_21_" overflow="visible"/></clipPath><g clip-path="url(#SVGID_22_)"><path class="st3" d="M60.8 62.9l.4.9 1.1.2-.3-.9-1.2-.2"/></g></g></g><g><path transform="rotate(-64.9 55.9 76)" class="st0" d="M55.4 75.2h1v1.6h-1z"/><g class="st1"><defs><path id="SVGID_23_" class="st1" d="M54.9 76.1l1.1-.6.8.5-1 .5z"/></defs><clipPath id="SVGID_24_"><use xlink:href="#SVGID_23_" overflow="visible"/></clipPath><g clip-path="url(#SVGID_24_)"><path class="st3" d="M56.8 76l-.8-.5-1.1.6.9.4 1-.5"/></g></g></g><g><path transform="rotate(-29.4 124.8 80.4)" class="st0" d="M124.3 79.5h1v1.6h-1z"/><g class="st1"><defs><path id="SVGID_25_" class="st1" d="M125.5 80.9l-1.1-.2-.4-.8 1.1.1z"/></defs><clipPath id="SVGID_26_"><use xlink:href="#SVGID_25_" overflow="visible"/></clipPath><g clip-path="url(#SVGID_26_)"><path class="st16" d="M124 79.9l.4.8 1.1.2-.4-.9-1.1-.1"/></g></g><path transform="scale(.99996) rotate(-4.7 112 62.4)" class="st0" d="M111.2 61.9h1.6v1h-1.6z"/><g class="st1"><defs><path id="SVGID_27_" class="st1" d="M111.3 62.9l.6-1h.9l-.6 1z"/></defs><clipPath id="SVGID_28_"><use xlink:href="#SVGID_27_" overflow="visible"/></clipPath><g clip-path="url(#SVGID_28_)"><path class="st16" d="M112.8 61.9h-.9l-.6 1h.9l.6-1"/></g></g><path transform="rotate(-13.2 128 68.6)" class="st0" d="M127.5 67.8h1v1.6h-1z"/><g class="st1"><defs><path id="SVGID_29_" class="st1" d="M128.6 69.3l-1.1-.5-.1-.9 1 .4z"/></defs><clipPath id="SVGID_30_"><use xlink:href="#SVGID_29_" overflow="visible"/></clipPath><g clip-path="url(#SVGID_30_)"><path class="st16" d="M127.4 67.9l.1.9 1.1.5-.2-1-1-.4"/></g></g><path transform="rotate(-40.3 129.6 71.9)" class="st0" d="M129.1 71h1v1.6h-1z"/><g class="st1"><defs><path id="SVGID_31_" class="st1" d="M130.4 72.2l-1.2.1-.5-.8 1.2-.1z"/></defs><clipPath id="SVGID_32_"><use xlink:href="#SVGID_31_" overflow="visible"/></clipPath><g clip-path="url(#SVGID_32_)"><path class="st16" d="M128.7 71.5l.5.8 1.2-.1-.5-.8-1.2.1"/></g></g><path transform="rotate(-86.2 122.2 61.7) scale(1.00005)" class="st0" d="M121.4 61.2h1.6v1h-1.6z"/><g class="st1"><defs><path id="SVGID_33_" class="st1" d="M122.6 62.5l-.9-.7.1-1 .9.8z"/></defs><clipPath id="SVGID_34_"><use xlink:href="#SVGID_33_" overflow="visible"/></clipPath><g clip-path="url(#SVGID_34_)"><path class="st16" d="M121.8 60.8l-.1 1 .9.7.1-.9-.9-.8"/></g></g><path transform="rotate(-50.9 116.7 54.2)" class="st0" d="M115.9 53.7h1.6v1h-1.6z"/><g class="st1"><defs><path id="SVGID_35_" class="st1" d="M116.9 53.3l.2 1.2-.6.7-.3-1.2z"/></defs><clipPath id="SVGID_36_"><use xlink:href="#SVGID_35_" overflow="visible"/></clipPath><g clip-path="url(#SVGID_36_)"><path class="st16" d="M116.5 55.2l.6-.7-.2-1.2-.7.7.3 1.2"/></g></g><path transform="rotate(-44.9 123.5 42)" class="st0" d="M122.6 41.5h1.6v1h-1.6z"/><g class="st1"><defs><path id="SVGID_37_" class="st1" d="M123.2 42.9l-.2-1.2.7-.6.2 1.2z"/></defs><clipPath id="SVGID_38_"><use xlink:href="#SVGID_37_" overflow="visible"/></clipPath><g clip-path="url(#SVGID_38_)"><path class="st16" d="M123.7 41.1l-.7.6.2 1.2.7-.6-.2-1.2"/></g></g><path transform="rotate(-41.3 120.4 40.7)" class="st0" d="M119.6 40.2h1.6v1h-1.6z"/><g class="st1"><defs><path id="SVGID_39_" class="st1" d="M120.1 41.6l-.1-1.2.7-.5.1 1.1z"/></defs><clipPath id="SVGID_40_"><use xlink:href="#SVGID_39_" overflow="visible"/></clipPath><g clip-path="url(#SVGID_40_)"><path class="st16" d="M120.7 39.9l-.7.5.1 1.2.7-.6-.1-1.1"/></g></g><path transform="rotate(-70 107.1 36.1)" class="st0" d="M106.6 35.3h1v1.6h-1z"/><g class="st1"><defs><path id="SVGID_41_" class="st1" d="M106.2 36.3l1-.7.8.4-1 .7z"/></defs><clipPath id="SVGID_42_"><use xlink:href="#SVGID_41_" overflow="visible"/></clipPath><g clip-path="url(#SVGID_42_)"><path class="st16" d="M108 36l-.8-.4-1 .7.8.4 1-.7"/></g></g><path transform="rotate(-31.1 107.3 28.8)" class="st0" d="M106.5 28.3h1.6v1h-1.6z"/><g class="st1"><defs><path id="SVGID_43_" class="st1" d="M107.8 28l-.1 1.2-.8.4.1-1.2z"/></defs><clipPath id="SVGID_44_"><use xlink:href="#SVGID_43_" overflow="visible"/></clipPath><g clip-path="url(#SVGID_44_)"><path class="st16" d="M106.9 29.6l.8-.4.1-1.2-.8.4-.1 1.2"/></g></g><path transform="rotate(-22.6 92.8 19.5)" class="st0" d="M91.9 19h1.6v1h-1.6z"/><g class="st1"><defs><path id="SVGID_45_" class="st1" d="M92.2 20.2l.3-1.1.8-.3-.2 1.1z"/></defs><clipPath id="SVGID_46_"><use xlink:href="#SVGID_45_" overflow="visible"/></clipPath><g clip-path="url(#SVGID_46_)"><path class="st16" d="M93.3 18.8l-.8.3-.3 1.1.9-.3.2-1.1"/></g></g><path transform="rotate(-63.8 100 22)" class="st0" d="M99.4 21.2h1v1.6h-1z"/><g class="st1"><defs><path id="SVGID_47_" class="st1" d="M99 22.1l1-.6.8.5-1 .5z"/></defs><clipPath id="SVGID_48_"><use xlink:href="#SVGID_47_" overflow="visible"/></clipPath><g clip-path="url(#SVGID_48_)"><path class="st16" d="M100.8 22l-.8-.5-1 .6.8.4 1-.5"/></g></g><path transform="rotate(-22.9 86.7 3.1)" class="st0" d="M85.9 2.6h1.6v1h-1.6z"/><g class="st1"><defs><path id="SVGID_49_" class="st1" d="M87.3 2.4L87 3.5l-.9.3.3-1.1z"/></defs><clipPath id="SVGID_50_"><use xlink:href="#SVGID_49_" overflow="visible"/></clipPath><g clip-path="url(#SVGID_50_)"><path class="st16" d="M86.1 3.8l.9-.3.3-1.1-.9.3-.3 1.1"/></g></g><path transform="rotate(-88.9 74 24.3) scale(.99998)" class="st0" d="M73.2 23.8h1.6v1h-1.6z"/><g class="st1"><defs><path id="SVGID_51_" class="st1" d="M73.6 23.5l.9.7-.1.9-.9-.7z"/></defs><clipPath id="SVGID_52_"><use xlink:href="#SVGID_51_" overflow="visible"/></clipPath><g clip-path="url(#SVGID_52_)"><path class="st16" d="M74.4 25.1l.1-.9-.9-.7-.1.9.9.7"/></g></g><g><path transform="matrix(.998 -.06373 .06373 .998 -.9 4)" class="st0" d="M62.6 15.3h1v1.6h-1z"/><g class="st1"><defs><path id="SVGID_53_" class="st1" d="M62.6 15.3l.9.6v1l-.9-.7z"/></defs><clipPath id="SVGID_54_"><use xlink:href="#SVGID_53_" overflow="visible"/></clipPath><g clip-path="url(#SVGID_54_)"><path class="st16" d="M63.5 16.9v-1l-.9-.6v.9l.9.7"/></g></g></g><g><path transform="rotate(-58.7 69 28.5)" class="st0" d="M68.2 28h1.6v1h-1.6z"/><g class="st1"><defs><path id="SVGID_55_" class="st1" d="M69.1 27.5l.4 1.1-.5.8-.4-1.1z"/></defs><clipPath id="SVGID_56_"><use xlink:href="#SVGID_55_" overflow="visible"/></clipPath><g clip-path="url(#SVGID_56_)"><path class="st16" d="M69 29.4l.5-.8-.4-1.1-.5.8.4 1.1"/></g></g></g><g><path transform="rotate(-48 61.8 37.5)" class="st0" d="M61 37h1.6v1H61z"/><g class="st1"><defs><path id="SVGID_57_" class="st1" d="M61.5 38.4l-.2-1.1.7-.7.2 1.2z"/></defs><clipPath id="SVGID_58_"><use xlink:href="#SVGID_57_" overflow="visible"/></clipPath><g clip-path="url(#SVGID_58_)"><path class="st16" d="M62 36.6l-.7.7.2 1.1.7-.6-.2-1.2"/></g></g></g><g><path transform="rotate(-26.5 52.1 16.6)" class="st0" d="M51.3 16.1h1.6v1h-1.6z"/><g class="st1"><defs><path id="SVGID_59_" class="st1" d="M52.6 15.9l-.2 1.1-.8.4.2-1.2z"/></defs><clipPath id="SVGID_60_"><use xlink:href="#SVGID_59_" overflow="visible"/></clipPath><g clip-path="url(#SVGID_60_)"><path class="st16" d="M51.6 17.4l.8-.4.2-1.1-.8.3-.2 1.2"/></g></g></g><g><path transform="rotate(-41.5 37.3 30.7)" class="st0" d="M36.5 30.2h1.6v1h-1.6z"/><g class="st1"><defs><path id="SVGID_61_" class="st1" d="M37 31.5l-.1-1.1.7-.6.1 1.2z"/></defs><clipPath id="SVGID_62_"><use xlink:href="#SVGID_61_" overflow="visible"/></clipPath><g clip-path="url(#SVGID_62_)"><path class="st16" d="M37.6 29.8l-.7.6.1 1.1.7-.5-.1-1.2"/></g></g></g><g><path transform="rotate(-22.5 23.2 28.4)" class="st0" d="M22.7 27.6h1v1.6h-1z"/><g class="st1"><defs><path id="SVGID_63_" class="st1" d="M23.9 29l-1.1-.3-.3-.8 1.1.2z"/></defs><clipPath id="SVGID_64_"><use xlink:href="#SVGID_63_" overflow="visible"/></clipPath><g clip-path="url(#SVGID_64_)"><path class="st16" d="M22.5 27.9l.3.8 1.1.3-.3-.9-1.1-.2"/></g></g></g><g><path transform="rotate(-40.5 21.5 42.7)" class="st0" d="M21 41.9h1v1.6h-1z"/><g class="st1"><defs><path id="SVGID_65_" class="st1" d="M20.6 42.3h1.2l.6.7-1.2.1z"/></defs><clipPath id="SVGID_66_"><use xlink:href="#SVGID_65_" overflow="visible"/></clipPath><g clip-path="url(#SVGID_66_)"><path class="st16" d="M22.4 43l-.6-.7h-1.2l.6.8 1.2-.1"/></g></g></g><g><path transform="rotate(-10.4 19.7 43.4)" class="st0" d="M18.9 42.9h1.6v1h-1.6z"/><g class="st1"><defs><path id="SVGID_67_" class="st1" d="M19 44l.5-1.1 1-.1-.6 1.1z"/></defs><clipPath id="SVGID_68_"><use xlink:href="#SVGID_67_" overflow="visible"/></clipPath><g clip-path="url(#SVGID_68_)"><path class="st16" d="M20.5 42.8l-1 .1L19 44l.9-.1.6-1.1"/></g></g></g><g><path transform="rotate(-79.8 17.4 55.2)" class="st0" d="M16.6 54.7h1.6v1h-1.6z"/><g class="st1"><defs><path id="SVGID_69_" class="st1" d="M17.7 56l-.8-.8.3-.9.7.8z"/></defs><clipPath id="SVGID_70_"><use xlink:href="#SVGID_69_" overflow="visible"/></clipPath><g clip-path="url(#SVGID_70_)"><path class="st16" d="M17.2 54.3l-.3.9.8.8.2-.9-.7-.8"/></g></g></g><g><path transform="rotate(-21.2 22.2 73.2)" class="st0" d="M21.7 72.4h1V74h-1z"/><g class="st1"><defs><path id="SVGID_71_" class="st1" d="M21.5 72.6l1.2.3.2.9-1.1-.3z"/></defs><clipPath id="SVGID_72_"><use xlink:href="#SVGID_71_" overflow="visible"/></clipPath><g clip-path="url(#SVGID_72_)"><path class="st16" d="M22.9 73.8l-.2-.9-1.2-.3.3.9 1.1.3"/></g></g></g><g><path transform="rotate(-7 20 64)" class="st0" d="M19.6 63.2h1v1.6h-1z"/><g class="st1"><defs><path id="SVGID_73_" class="st1" d="M20.6 64.7l-1-.6-.1-.9 1.1.6z"/></defs><clipPath id="SVGID_74_"><use xlink:href="#SVGID_73_" overflow="visible"/></clipPath><g clip-path="url(#SVGID_74_)"><path class="st16" d="M19.5 63.2l.1.9 1 .6v-.9l-1.1-.6"/></g></g></g><g><path transform="rotate(-60.1 29.4 76)" class="st0" d="M28.9 75.1h1v1.6h-1z"/><g class="st1"><defs><path id="SVGID_75_" class="st1" d="M28.4 75.9l1.1-.5.8.5-1.1.5z"/></defs><clipPath id="SVGID_76_"><use xlink:href="#SVGID_75_" overflow="visible"/></clipPath><g clip-path="url(#SVGID_76_)"><path class="st16" d="M30.3 75.9l-.8-.5-1.1.5.8.5 1.1-.5"/></g></g></g><g><path transform="rotate(-83.4 39.4 83.8)" class="st0" d="M38.6 83.3h1.6v1h-1.6z"/><g class="st1"><defs><path id="SVGID_77_" class="st1" d="M39.1 82.9l.8.8-.1 1-.9-.8z"/></defs><clipPath id="SVGID_78_"><use xlink:href="#SVGID_77_" overflow="visible"/></clipPath><g clip-path="url(#SVGID_78_)"><path class="st16" d="M39.8 84.7l.1-1-.8-.8-.2 1 .9.8"/></g></g></g></g><g><path transform="rotate(-28 129.8 62.8)" class="st0" d="M129.3 62.3h1v.8h-1z"/><g class="st1"><defs><path id="SVGID_79_" class="st1" d="M129.3 62.8l.5-.5.5.4-.5.5z"/></defs><clipPath id="SVGID_80_"><use xlink:href="#SVGID_79_" overflow="visible"/></clipPath><g clip-path="url(#SVGID_80_)"><path class="st44" d="M130.3 62.7l-.5-.4-.5.5.5.4.5-.5"/></g></g><path transform="rotate(-49.3 124.8 66.3)" class="st0" d="M124 65.4h1.5v1.8H124z"/><g class="st1"><defs><path id="SVGID_81_" class="st1" d="M124.3 65.5l1.3.5-.4 1.1-1.2-.5z"/></defs><clipPath id="SVGID_82_"><use xlink:href="#SVGID_81_" overflow="visible"/></clipPath><g clip-path="url(#SVGID_82_)"><path class="st44" d="M125.2 67.1l.4-1.1-1.3-.5-.3 1.1 1.2.5"/></g></g><path transform="rotate(-5.7 114.6 64.6) scale(1.00003)" class="st0" d="M114 64.1h1.3v1.2H114z"/><g class="st1"><defs><path id="SVGID_83_" class="st1" d="M113.9 64.5l1-.5.4.8-.9.4z"/></defs><clipPath id="SVGID_84_"><use xlink:href="#SVGID_83_" overflow="visible"/></clipPath><g clip-path="url(#SVGID_84_)"><path class="st44" d="M115.3 64.8l-.4-.8-1 .5.5.7.9-.4"/></g></g><path transform="rotate(-13.9 119 67)" class="st0" d="M118.3 66.3h1.3v1.5h-1.3z"/><g class="st1"><defs><path id="SVGID_85_" class="st1" d="M118.9 67.8l-.6-.9.8-.7.6 1z"/></defs><clipPath id="SVGID_86_"><use xlink:href="#SVGID_85_" overflow="visible"/></clipPath><g clip-path="url(#SVGID_86_)"><path class="st44" d="M119.1 66.2l-.8.7.6.9.8-.6-.6-1"/></g></g><path transform="rotate(-12.2 115 53.5)" class="st0" d="M114.3 52.7h1.3v1.5h-1.3z"/><g class="st1"><defs><path id="SVGID_87_" class="st1" d="M115.1 52.7l.6 1-.9.6-.6-1z"/></defs><clipPath id="SVGID_88_"><use xlink:href="#SVGID_87_" overflow="visible"/></clipPath><g clip-path="url(#SVGID_88_)"><path class="st44" d="M114.8 54.3l.9-.6-.6-1-.9.6.6 1"/></g></g><path transform="rotate(-49.2 118.6 45.4)" class="st0" d="M117.6 44.5h2.1v1.8h-2.1z"/><g class="st1"><defs><path id="SVGID_89_" class="st1" d="M117.6 46l.6-1.5 1.3.4-.5 1.5z"/></defs><clipPath id="SVGID_90_"><use xlink:href="#SVGID_89_" overflow="visible"/></clipPath><g clip-path="url(#SVGID_90_)"><path class="st44" d="M119.5 44.9l-1.3-.4-.6 1.5 1.4.4.5-1.5"/></g></g><path transform="rotate(-52.2 103 44.6)" class="st0" d="M102.3 43.9h1.2v1.4h-1.2z"/><g class="st1"><defs><path id="SVGID_91_" class="st1" d="M103.4 45.2l-1.1-.3.3-1 1 .4z"/></defs><clipPath id="SVGID_92_"><use xlink:href="#SVGID_91_" overflow="visible"/></clipPath><g clip-path="url(#SVGID_92_)"><path class="st44" d="M102.6 43.9l-.3 1 1.1.3.2-.9-1-.4"/></g></g><path transform="rotate(-61.3 90 40.3)" class="st0" d="M89.2 39.3h1.7v1.9h-1.7z"/><g class="st1"><defs><path id="SVGID_93_" class="st1" d="M90.7 41l-1.5-.2.1-1.3 1.5.2z"/></defs><clipPath id="SVGID_94_"><use xlink:href="#SVGID_93_" overflow="visible"/></clipPath><g clip-path="url(#SVGID_94_)"><path class="st44" d="M89.3 39.5l-.1 1.3 1.5.2.1-1.3-1.5-.2"/></g></g><path transform="rotate(-38.7 81.7 40)" class="st0" d="M81.2 39.4h1.1v1h-1.1z"/><g class="st1"><defs><path id="SVGID_95_" class="st1" d="M81.1 40.1l.5-.7.7.3-.5.8z"/></defs><clipPath id="SVGID_96_"><use xlink:href="#SVGID_95_" overflow="visible"/></clipPath><g clip-path="url(#SVGID_96_)"><path class="st44" d="M82.3 39.7l-.7-.3-.5.7.7.4.5-.8"/></g></g><path transform="rotate(-80.6 81 29)" class="st0" d="M80.1 28h1.7v1.9h-1.7z"/><g class="st1"><defs><path id="SVGID_97_" class="st1" d="M80.1 28.5l1.4-.3.4 1.3-1.5.2z"/></defs><clipPath id="SVGID_98_"><use xlink:href="#SVGID_97_" overflow="visible"/></clipPath><g clip-path="url(#SVGID_98_)"><path class="st44" d="M81.9 29.5l-.4-1.3-1.4.3.3 1.2 1.5-.2"/></g></g><path transform="rotate(-34.6 75 17.3)" class="st0" d="M74.5 16.8h.9v1h-.9z"/><g class="st1"><defs><path id="SVGID_99_" class="st1" d="M74.8 16.8l.6.4-.4.6-.6-.4z"/></defs><clipPath id="SVGID_100_"><use xlink:href="#SVGID_99_" overflow="visible"/></clipPath><g clip-path="url(#SVGID_100_)"><path class="st44" d="M75 17.8l.4-.6-.6-.4-.4.6.6.4"/></g></g><path transform="translate(0 .1)" class="st0" d="M65.9 16.5h1v1.2h-1z"/><g class="st1"><defs><path id="SVGID_101_" class="st1" d="M66.2 17.6l-.3-.8.7-.3.3.8z"/></defs><clipPath id="SVGID_102_"><use xlink:href="#SVGID_101_" overflow="visible"/></clipPath><g clip-path="url(#SVGID_102_)"><path class="st44" d="M66.6 16.5l-.7.3.3.8.7-.3-.3-.8"/></g></g><path transform="rotate(-78 60 21.5)" class="st0" d="M59.3 20.9h1.4v1.2h-1.4z"/><g class="st1"><defs><path id="SVGID_103_" class="st1" d="M59.6 22.1l-.1-1.1.9-.2.1 1.1z"/></defs><clipPath id="SVGID_104_"><use xlink:href="#SVGID_103_" overflow="visible"/></clipPath><g clip-path="url(#SVGID_104_)"><path class="st44" d="M60.4 20.8l-.9.2.1 1.1.9-.2-.1-1.1"/></g></g><g><path transform="rotate(-37.8 54.8 18)" class="st0" d="M54.1 17.4h1.4v1.2h-1.4z"/><g class="st1"><defs><path id="SVGID_105_" class="st1" d="M54 18.2l.7-.9.8.5-.6.9z"/></defs><clipPath id="SVGID_106_"><use xlink:href="#SVGID_105_" overflow="visible"/></clipPath><g clip-path="url(#SVGID_106_)"><path class="st44" d="M55.5 17.8l-.8-.5-.7.9.9.5.6-.9"/></g></g></g><g><path transform="rotate(-76.4 45.7 16)" class="st0" d="M45.3 15.6h1v.8h-1z"/><g class="st1"><defs><path id="SVGID_107_" class="st1" d="M45.5 16.5l-.1-.7.6-.2.1.8z"/></defs><clipPath id="SVGID_108_"><use xlink:href="#SVGID_107_" overflow="visible"/></clipPath><g clip-path="url(#SVGID_108_)"><path class="st44" d="M46 15.6l-.6.2.1.7.6-.1-.1-.8"/></g></g></g><g><path transform="rotate(-47.7 34.9 15.6)" class="st0" d="M34.3 15h1.1v1.3h-1.1z"/><g class="st1"><defs><path id="SVGID_109_" class="st1" d="M35.2 16.2l-.9-.4.3-.8.8.4z"/></defs><clipPath id="SVGID_110_"><use xlink:href="#SVGID_109_" overflow="visible"/></clipPath><g clip-path="url(#SVGID_110_)"><path class="st44" d="M34.6 15l-.3.8.9.4.2-.8-.8-.4"/></g></g></g><g><path transform="matrix(.9967 -.0816 .0816 .9967 -1.6 2)" class="st0" d="M23.3 20.2h1.6v1.9h-1.6z"/><g class="st1"><defs><path id="SVGID_111_" class="st1" d="M23.8 22.1l-.5-1.3 1.1-.6.6 1.3z"/></defs><clipPath id="SVGID_112_"><use xlink:href="#SVGID_111_" overflow="visible"/></clipPath><g clip-path="url(#SVGID_112_)"><path class="st44" d="M24.4 20.2l-1.1.6.5 1.3 1.2-.6-.6-1.3"/></g></g></g><g><path transform="rotate(-63.5 27.3 29)" class="st0" d="M26.5 28.4h1.6v1.4h-1.6z"/><g class="st1"><defs><path id="SVGID_113_" class="st1" d="M26.7 29.7l.1-1.3 1.1.1-.1 1.2z"/></defs><clipPath id="SVGID_114_"><use xlink:href="#SVGID_113_" overflow="visible"/></clipPath><g clip-path="url(#SVGID_114_)"><path class="st44" d="M27.9 28.5l-1.1-.1-.1 1.3h1.1l.1-1.2"/></g></g></g><g><path transform="rotate(-42.9 37.4 31)" class="st0" d="M36.7 30.1h1.4v1.6h-1.4z"/><g class="st1"><defs><path id="SVGID_115_" class="st1" d="M37.7 31.7l-1.1-.6.4-1 1.1.6z"/></defs><clipPath id="SVGID_116_"><use xlink:href="#SVGID_115_" overflow="visible"/></clipPath><g clip-path="url(#SVGID_116_)"><path class="st44" d="M37 30.1l-.4 1 1.1.6.4-1-1.1-.6"/></g></g></g><g><path transform="rotate(-74 33 40.4)" class="st0" d="M32.7 39.9h.9v1h-.9z"/><g class="st1"><defs><path id="SVGID_117_" class="st1" d="M32.7 40.1l.7-.1.1.7h-.7z"/></defs><clipPath id="SVGID_118_"><use xlink:href="#SVGID_117_" overflow="visible"/></clipPath><g clip-path="url(#SVGID_118_)"><path class="st44" d="M33.5 40.7l-.1-.7-.7.1.1.6h.7"/></g></g></g><g><path transform="rotate(-32.9 38.5 50.2)" class="st0" d="M37.9 49.6h1.3v1.1h-1.3z"/><g class="st1"><defs><path id="SVGID_119_" class="st1" d="M39.2 50l-.6.8-.8-.5.7-.7z"/></defs><clipPath id="SVGID_120_"><use xlink:href="#SVGID_119_" overflow="visible"/></clipPath><g clip-path="url(#SVGID_120_)"><path class="st44" d="M37.8 50.3l.8.5.6-.8-.7-.4-.7.7"/></g></g></g><g><path transform="rotate(-26.6 35.2 59.5)" class="st0" d="M34.4 58.8h1.5v1.3h-1.5z"/><g class="st1"><defs><path id="SVGID_121_" class="st1" d="M34.4 59.6l.8-.9.7.7-.8.8z"/></defs><clipPath id="SVGID_122_"><use xlink:href="#SVGID_121_" overflow="visible"/></clipPath><g clip-path="url(#SVGID_122_)"><path class="st44" d="M35.9 59.4l-.7-.7-.8.9.7.6.8-.8"/></g></g></g><g><path transform="rotate(-67.5 24 59.9)" class="st0" d="M23.6 59.3h1v1.2h-1z"/><g class="st1"><defs><path id="SVGID_123_" class="st1" d="M23.6 59.4l.9.1v.8l-.9-.1z"/></defs><clipPath id="SVGID_124_"><use xlink:href="#SVGID_123_" overflow="visible"/></clipPath><g clip-path="url(#SVGID_124_)"><path class="st44" d="M24.5 60.3v-.8l-.9-.1v.8l.9.1"/></g></g></g><g><path transform="rotate(-63.6 20 66)" class="st0" d="M19.3 65.2h1.3v1.5h-1.3z"/><g class="st1"><defs><path id="SVGID_125_" class="st1" d="M19.4 65.4l1.2.1-.1 1-1.1-.1z"/></defs><clipPath id="SVGID_126_"><use xlink:href="#SVGID_125_" overflow="visible"/></clipPath><g clip-path="url(#SVGID_126_)"><path class="st44" d="M20.5 66.5l.1-1-1.2-.1v1l1.1.1"/></g></g></g><g><path transform="rotate(-68.8 18.4 74.5)" class="st0" d="M17.5 73.8h1.6v1.4h-1.6z"/><g class="st1"><defs><path id="SVGID_127_" class="st1" d="M18.9 73.8v1.3h-1.1v-1.2z"/></defs><clipPath id="SVGID_128_"><use xlink:href="#SVGID_127_" overflow="visible"/></clipPath><g clip-path="url(#SVGID_128_)"><path class="st44" d="M17.8 75.1h1.1v-1.3l-1.1.1v1.2"/></g></g></g></g><g><path transform="rotate(-24.5 117.5 74)" class="st0" d="M116.8 73.2h1.4v1.6h-1.4z"/><g class="st1"><defs><path id="SVGID_129_" class="st1" d="M117.5 73.2l.8.9-.7.8-.8-.9z"/></defs><clipPath id="SVGID_130_"><use xlink:href="#SVGID_129_" overflow="visible"/></clipPath><g clip-path="url(#SVGID_130_)"><path class="st70" d="M117.6 74.9l.7-.8-.8-.9-.7.8.8.9"/></g></g><path transform="rotate(-63.2 125.5 77)" class="st0" d="M124.7 76.4h1.5v1.3h-1.5z"/><g class="st1"><defs><path id="SVGID_131_" class="st1" d="M126.1 76.5l-.2 1.1h-1l.1-1.2z"/></defs><clipPath id="SVGID_132_"><use xlink:href="#SVGID_131_" overflow="visible"/></clipPath><g clip-path="url(#SVGID_132_)"><path class="st70" d="M124.9 77.6h1l.2-1.1-1.1-.1-.1 1.2"/></g></g><path transform="rotate(-70.9 131.1 71.2)" class="st0" d="M130.5 70.5h1.2v1.4h-1.2z"/><g class="st1"><defs><path id="SVGID_133_" class="st1" d="M131.7 71.6h-1.1v-.9h1z"/></defs><clipPath id="SVGID_134_"><use xlink:href="#SVGID_133_" overflow="visible"/></clipPath><g clip-path="url(#SVGID_134_)"><path class="st70" d="M130.6 70.7v.9h1.1l-.1-.9h-1"/></g></g><path transform="rotate(-52.6 135.9 66)" class="st0" d="M135 65h1.7v2H135z"/><g class="st1"><defs><path id="SVGID_135_" class="st1" d="M135.3 65.1l1.5.5-.3 1.3-1.5-.5z"/></defs><clipPath id="SVGID_136_"><use xlink:href="#SVGID_135_" overflow="visible"/></clipPath><g clip-path="url(#SVGID_136_)"><path class="st70" d="M136.5 66.9l.3-1.3-1.5-.5-.3 1.3 1.5.5"/></g></g><path transform="rotate(-57.5 138.2 54.5)" class="st0" d="M137.6 53.7h1.3v1.5h-1.3z"/><g class="st1"><defs><path id="SVGID_137_" class="st1" d="M138.7 55.1l-1.1-.3.1-1 1.1.3z"/></defs><clipPath id="SVGID_138_"><use xlink:href="#SVGID_137_" overflow="visible"/></clipPath><g clip-path="url(#SVGID_138_)"><path class="st70" d="M137.7 53.8l-.1 1 1.1.3.1-1-1.1-.3"/></g></g><path transform="rotate(-62.7 140.5 46)" class="st0" d="M140.1 45.6h.8v1h-.8z"/><g class="st1"><defs><path id="SVGID_139_" class="st1" d="M140.2 45.7l.7.1-.1.6-.7-.1z"/></defs><clipPath id="SVGID_140_"><use xlink:href="#SVGID_139_" overflow="visible"/></clipPath><g clip-path="url(#SVGID_140_)"><path class="st70" d="M140.8 46.4l.1-.6-.7-.1-.1.6.7.1"/></g></g><path transform="rotate(-50.7 128.9 46.9)" class="st0" d="M128.4 46.4h.9v1.1h-.9z"/><g class="st1"><defs><path id="SVGID_141_" class="st1" d="M128.6 46.4l.8.3-.2.7-.8-.3z"/></defs><clipPath id="SVGID_142_"><use xlink:href="#SVGID_141_" overflow="visible"/></clipPath><g clip-path="url(#SVGID_142_)"><path class="st70" d="M129.2 47.4l.2-.7-.8-.3-.2.7.8.3"/></g></g><path transform="rotate(-44.3 121 51.6)" class="st0" d="M120.5 51h1.2v1.1h-1.2z"/><g class="st1"><defs><path id="SVGID_143_" class="st1" d="M120.5 51.8l.4-.8.8.3-.4.8z"/></defs><clipPath id="SVGID_144_"><use xlink:href="#SVGID_143_" overflow="visible"/></clipPath><g clip-path="url(#SVGID_144_)"><path class="st70" d="M121.7 51.3l-.8-.3-.4.8.8.3.4-.8"/></g></g><path transform="rotate(-29 116 50)" class="st0" d="M114.9 49.2h2v1.7h-2z"/><g class="st1"><defs><path id="SVGID_145_" class="st1" d="M117 49.9l-1 1.1-1.1-.8 1-1.2z"/></defs><clipPath id="SVGID_146_"><use xlink:href="#SVGID_145_" overflow="visible"/></clipPath><g clip-path="url(#SVGID_146_)"><path class="st70" d="M114.9 50.2l1.1.8 1-1.1-1.1-.9-1 1.2"/></g></g><path transform="rotate(-3.2 109.3 42.6) scale(.99996)" class="st0" d="M108.8 42h1.1v1.3h-1.1z"/><g class="st1"><defs><path id="SVGID_147_" class="st1" d="M109.1 43.3l-.4-1 .8-.4.4 1z"/></defs><clipPath id="SVGID_148_"><use xlink:href="#SVGID_147_" overflow="visible"/></clipPath><g clip-path="url(#SVGID_148_)"><path class="st70" d="M109.5 41.9l-.8.4.4 1 .8-.4-.4-1"/></g></g><path transform="rotate(-22 114.9 35.7)" class="st0" d="M114.1 34.7h1.7v1.9h-1.7z"/><g class="st1"><defs><path id="SVGID_149_" class="st1" d="M114.9 36.7l-.9-1.1.9-.9.9 1.1z"/></defs><clipPath id="SVGID_150_"><use xlink:href="#SVGID_149_" overflow="visible"/></clipPath><g clip-path="url(#SVGID_150_)"><path class="st70" d="M114.9 34.7l-.9.9.9 1.1.9-.9-.9-1.1"/></g></g><path transform="rotate(-75.9 116 24.4)" class="st0" d="M115.5 24h1v.9h-1z"/><g class="st1"><defs><path id="SVGID_151_" class="st1" d="M115.7 24.9l-.1-.8.7-.1.1.8z"/></defs><clipPath id="SVGID_152_"><use xlink:href="#SVGID_151_" overflow="visible"/></clipPath><g clip-path="url(#SVGID_152_)"><path class="st70" d="M116.3 24l-.7.1.1.8.7-.1-.1-.8"/></g></g><path transform="rotate(-7.9 106.4 24.4)" class="st0" d="M105.6 23.7h1.7v1.4h-1.7z"/><g class="st1"><defs><path id="SVGID_153_" class="st1" d="M105.5 24.3l1.2-.6.6.9-1.2.6z"/></defs><clipPath id="SVGID_154_"><use xlink:href="#SVGID_153_" overflow="visible"/></clipPath><g clip-path="url(#SVGID_154_)"><path class="st70" d="M107.3 24.6l-.6-.9-1.2.6.6.9 1.2-.6"/></g></g><path transform="rotate(-31.3 96.8 23)" class="st0" d="M96.3 22.5h1v.8h-1z"/><g class="st1"><defs><path id="SVGID_155_" class="st1" d="M97.3 22.8l-.5.6-.5-.4.5-.5z"/></defs><clipPath id="SVGID_156_"><use xlink:href="#SVGID_155_" overflow="visible"/></clipPath><g clip-path="url(#SVGID_156_)"><path class="st70" d="M96.3 23l.5.4.5-.6-.5-.3-.5.5"/></g></g><path transform="rotate(-76.6 87 32.7)" class="st0" d="M86.4 31.9h1.3v1.6h-1.3z"/><g class="st1"><defs><path id="SVGID_157_" class="st1" d="M87.7 33.1l-1.2.1-.2-1 1.2-.1z"/></defs><clipPath id="SVGID_158_"><use xlink:href="#SVGID_157_" overflow="visible"/></clipPath><g clip-path="url(#SVGID_158_)"><path class="st70" d="M86.3 32.2l.2 1 1.2-.1-.2-1-1.2.1"/></g></g><path transform="rotate(-6.1 81 33.8)" class="st0" d="M80 33h1.9v1.6H80z"/><g class="st1"><defs><path id="SVGID_159_" class="st1" d="M82 34.1l-1.4.6-.6-1.2 1.3-.6z"/></defs><clipPath id="SVGID_160_"><use xlink:href="#SVGID_159_" overflow="visible"/></clipPath><g clip-path="url(#SVGID_160_)"><path class="st70" d="M80 33.5l.6 1.2 1.4-.6-.7-1.2-1.3.6"/></g></g><g><path transform="rotate(-47.6 74.5 31.9)" class="st0" d="M74 31.4h1.1v.9H74z"/><g class="st1"><defs><path id="SVGID_161_" class="st1" d="M74 32.1l.3-.7.7.2-.3.7z"/></defs><clipPath id="SVGID_162_"><use xlink:href="#SVGID_161_" overflow="visible"/></clipPath><g clip-path="url(#SVGID_162_)"><path class="st70" d="M75 31.6l-.7-.2-.3.7.7.2.3-.7"/></g></g></g><g><path transform="rotate(-1.5 68.7 22.8) scale(.99995)" class="st0" d="M67.7 21.9h2.1v1.8h-2.1z"/><g class="st1"><defs><path id="SVGID_163_" class="st1" d="M67.7 22.4l1.4-.5.6 1.3-1.4.5z"/></defs><clipPath id="SVGID_164_"><use xlink:href="#SVGID_163_" overflow="visible"/></clipPath><g clip-path="url(#SVGID_164_)"><path class="st70" d="M69.7 23.2l-.6-1.3-1.4.5.6 1.3 1.4-.5"/></g></g></g><g><path transform="rotate(-46.5 60.3 20.9)" class="st0" d="M59.7 20.4h1.2v1h-1.2z"/><g class="st1"><defs><path id="SVGID_165_" class="st1" d="M59.8 21.2l.4-.9.7.3-.4.8z"/></defs><clipPath id="SVGID_166_"><use xlink:href="#SVGID_165_" overflow="visible"/></clipPath><g clip-path="url(#SVGID_166_)"><path class="st70" d="M60.9 20.6l-.7-.3-.4.9.7.2.4-.8"/></g></g></g><g><path transform="rotate(-30 56.3 20.2)" class="st0" d="M55.8 19.6h1.1v1.3h-1.1z"/><g class="st1"><defs><path id="SVGID_167_" class="st1" d="M56.2 19.6l.8.6-.6.7-.7-.6z"/></defs><clipPath id="SVGID_168_"><use xlink:href="#SVGID_167_" overflow="visible"/></clipPath><g clip-path="url(#SVGID_168_)"><path class="st70" d="M56.4 20.9l.6-.7-.8-.6-.5.7.7.6"/></g></g></g><g><path class="st0" d="M50.6 31.2h1.8v1.5h-1.8z"/><g class="st1"><defs><path id="SVGID_169_" class="st1" d="M52.4 32.3l-1.3.4-.5-1.1 1.3-.4z"/></defs><clipPath id="SVGID_170_"><use xlink:href="#SVGID_169_" overflow="visible"/></clipPath><g clip-path="url(#SVGID_170_)"><path class="st70" d="M50.6 31.6l.5 1.1 1.3-.4-.5-1.1-1.3.4"/></g></g></g><g><path transform="rotate(-15.5 50.4 38)" class="st0" d="M49.6 37.3h1.5v1.3h-1.5z"/><g class="st1"><defs><path id="SVGID_171_" class="st1" d="M49.5 37.9l1-.6.7.8-1 .6z"/></defs><clipPath id="SVGID_172_"><use xlink:href="#SVGID_171_" overflow="visible"/></clipPath><g clip-path="url(#SVGID_172_)"><path class="st70" d="M51.2 38.1l-.7-.8-1 .6.7.8 1-.6"/></g></g></g><g><path transform="rotate(-6.1 42.8 39)" class="st0" d="M42.1 38.3h1.3v1.5h-1.3z"/><g class="st1"><defs><path id="SVGID_173_" class="st1" d="M42.6 39.8l-.5-1 .9-.6.5 1.1z"/></defs><clipPath id="SVGID_174_"><use xlink:href="#SVGID_173_" overflow="visible"/></clipPath><g clip-path="url(#SVGID_174_)"><path class="st70" d="M43 38.2l-.9.6.5 1 .9-.5-.5-1.1"/></g></g></g><g><path transform="rotate(-57 32.4 44.6)" class="st0" d="M31.8 43.8h1.3v1.5h-1.3z"/><g class="st1"><defs><path id="SVGID_175_" class="st1" d="M32 43.9l1.1.3-.2 1.1-1.1-.3z"/></defs><clipPath id="SVGID_176_"><use xlink:href="#SVGID_175_" overflow="visible"/></clipPath><g clip-path="url(#SVGID_176_)"><path class="st70" d="M32.9 45.3l.2-1.1-1.1-.3-.2 1.1 1.1.3"/></g></g></g><g><path transform="rotate(-89.2 22.6 38.4)" class="st0" d="M22 37.9h1.3V39H22z"/><g class="st1"><defs><path id="SVGID_177_" class="st1" d="M22.9 37.8l.3.9-.8.4-.3-1z"/></defs><clipPath id="SVGID_178_"><use xlink:href="#SVGID_177_" overflow="visible"/></clipPath><g clip-path="url(#SVGID_178_)"><path class="st70" d="M22.4 39.1l.8-.4-.3-.9-.8.3.3 1"/></g></g></g><g><path transform="rotate(-23.3 25.1 53.5)" class="st0" d="M24.4 52.6H26v1.8h-1.6z"/><g class="st1"><defs><path id="SVGID_179_" class="st1" d="M25.1 52.5l.9 1-.8.9-.9-1z"/></defs><clipPath id="SVGID_180_"><use xlink:href="#SVGID_179_" overflow="visible"/></clipPath><g clip-path="url(#SVGID_180_)"><path class="st70" d="M25.2 54.4l.8-.9-.9-1-.8.9.9 1"/></g></g></g><g><path transform="rotate(-42.2 31.1 61.1)" class="st0" d="M30.4 60.5h1.5v1.3h-1.5z"/><g class="st1"><defs><path id="SVGID_181_" class="st1" d="M31.8 60.8l-.5 1-.9-.4.5-1z"/></defs><clipPath id="SVGID_182_"><use xlink:href="#SVGID_181_" overflow="visible"/></clipPath><g clip-path="url(#SVGID_182_)"><path class="st70" d="M30.4 61.4l.9.4.5-1-.9-.4-.5 1"/></g></g></g><g><path transform="rotate(-35 33 69.7)" class="st0" d="M32.1 69h1.7v1.5h-1.7z"/><g class="st1"><defs><path id="SVGID_183_" class="st1" d="M32.1 69.9l.8-1 1 .6-.8 1z"/></defs><clipPath id="SVGID_184_"><use xlink:href="#SVGID_183_" overflow="visible"/></clipPath><g clip-path="url(#SVGID_184_)"><path class="st70" d="M33.9 69.5l-1-.6-.8 1 1 .6.8-1"/></g></g></g><g><path transform="rotate(-18.1 38.5 72.7)" class="st0" d="M38 72.3h1v.9h-1z"/><g class="st1"><defs><path id="SVGID_185_" class="st1" d="M38 72.7l.6-.5.5.5-.6.5z"/></defs><clipPath id="SVGID_186_"><use xlink:href="#SVGID_185_" overflow="visible"/></clipPath><g clip-path="url(#SVGID_186_)"><path class="st70" d="M39.1 72.7l-.5-.5-.6.5.5.5.6-.5"/></g></g></g><g><path transform="rotate(-48.8 29.3 78.3)" class="st0" d="M28.6 77.6H30v1.2h-1.4z"/><g class="st1"><defs><path id="SVGID_187_" class="st1" d="M28.6 78.6l.4-1 .9.3-.4 1z"/></defs><clipPath id="SVGID_188_"><use xlink:href="#SVGID_187_" overflow="visible"/></clipPath><g clip-path="url(#SVGID_188_)"><path class="st70" d="M29.9 77.9l-.9-.3-.4 1 .9.3.4-1"/></g></g></g><g><path transform="rotate(-45.3 22.3 69)" class="st0" d="M21.8 68.3h1.1v1.3h-1.1z"/><g class="st1"><defs><path id="SVGID_189_" class="st1" d="M22.6 69.6l-.9-.5.3-.8.9.4z"/></defs><clipPath id="SVGID_190_"><use xlink:href="#SVGID_189_" overflow="visible"/></clipPath><g clip-path="url(#SVGID_190_)"><path class="st70" d="M22 68.3l-.3.8.9.5.3-.9-.9-.4"/></g></g></g><g><path transform="rotate(-12.8 9.7 75.8)" class="st0" d="M9 75h1.3v1.5H9z"/><g class="st1"><defs><path id="SVGID_191_" class="st1" d="M9.5 76.6l-.6-1 .9-.6.6 1z"/></defs><clipPath id="SVGID_192_"><use xlink:href="#SVGID_191_" overflow="visible"/></clipPath><g clip-path="url(#SVGID_192_)"><path class="st70" d="M9.8 75l-.9.6.6 1 .9-.6-.6-1"/></g></g></g></g><g><path class="st103" d="M64.3 53.2l-.1-.1h-.1l-.2.2.2.2.2-.2v-.1zM76.8 53.2l-.1-.1h-.1l-.2.2.2.2.2-.2v-.1z"/><path class="st104" d="M71.3 43.8s-1.1-1.1-2.1-1.3c.9.1 1.6.3 2 .5.6.2.8.5.8.5l-.7.3z"/><path class="st104" d="M71.6 43.3s.3-.9.8-1.2c-.5.3-.8.6-.9.8-.3.3-.3.5-.3.5l.4-.1z"/><ellipse transform="rotate(-23.2 54.1 65.2)" class="st105" cx="54.1" cy="65.2" rx="5.7" ry="16.3"/><ellipse transform="rotate(-56.8 87.6 67)" class="st105" cx="87.6" cy="67" rx="18" ry="5.7"/><path class="st104" d="M87 58.7V93H56.3V58.7a15.4 15.4 0 0 1 26.3-10.9c2.7 2.8 4.4 6.7 4.4 10.9z"/><path class="st103" d="M71.6 66.2c-5.8 0-10.4 5.2-10.4 11.5V93H82V77.7c.1-6.3-4.6-11.5-10.4-11.5z"/><path class="st16" d="M71.6 60.9l-4.2 1.6 4.2 1.6 4.3-1.6z"/><path fill="#fbb03b" d="M75 62.5h-6.7l3.4-1.2z"/><path opacity=".3" fill="#fff" d="M70.9 61.7l.8-.3.3.2z"/><circle class="st103" cx="65.5" cy="55.9" r="5"/><circle class="st103" cx="77.8" cy="55.9" r="5"/><path d="M68.7 55.7l-.1.9a3.2 3.2 0 0 0-6.2 0 3 3 0 0 1-.2-1c0-1.8 1.4-3.2 3.2-3.2 1.8.1 3.3 1.5 3.3 3.3zM81.1 55.7l-.1.9a3.2 3.2 0 0 0-6.2 0 3 3 0 0 1-.2-1c0-1.8 1.4-3.2 3.2-3.2 1.8.1 3.3 1.5 3.3 3.3z"/></g><g><path transform="scale(.99998) rotate(-86 126.5 79.1)" class="st0" d="M125.7 78.6h1.6v1h-1.6z"/><g class="st1"><defs><path id="SVGID_193_" class="st1" d="M126.1 78.3l.9.8-.2.9-.8-.8z"/></defs><clipPath id="SVGID_194_"><use xlink:href="#SVGID_193_" overflow="visible"/></clipPath><g clip-path="url(#SVGID_194_)"><path class="st3" d="M126.8 80l.2-.9-.9-.8-.1.9.8.8"/></g></g><path transform="rotate(-49.5 145 63)" class="st0" d="M144.6 62.1h1v1.6h-1z"/><g class="st1"><defs><path id="SVGID_195_" class="st1" d="M146 63.2l-1.2.2-.6-.6 1.1-.3z"/></defs><clipPath id="SVGID_196_"><use xlink:href="#SVGID_195_" overflow="visible"/></clipPath><g clip-path="url(#SVGID_196_)"><path class="st3" d="M144.2 62.8l.6.6 1.2-.2-.7-.7-1.1.3"/></g></g><path transform="rotate(-29.7 148.2 52.3)" class="st0" d="M147.4 51.7h1.6v1h-1.6z"/><g class="st1"><defs><path id="SVGID_197_" class="st1" d="M148.7 51.5l-.1 1.1-.8.4.1-1.1z"/></defs><clipPath id="SVGID_198_"><use xlink:href="#SVGID_197_" overflow="visible"/></clipPath><g clip-path="url(#SVGID_198_)"><path class="st3" d="M147.8 53l.8-.4.1-1.1-.8.4-.1 1.1"/></g></g><path transform="rotate(-73.8 142.5 41.5)" class="st0" d="M141.7 41h1.6v1h-1.6z"/><g class="st1"><defs><path id="SVGID_199_" class="st1" d="M142.3 40.6l.7.9-.3.9-.7-.9z"/></defs><clipPath id="SVGID_200_"><use xlink:href="#SVGID_199_" overflow="visible"/></clipPath><g clip-path="url(#SVGID_200_)"><path class="st3" d="M142.7 42.4l.3-.9-.7-.9-.3.9.7.9"/></g></g><path transform="matrix(.9979 -.06497 .06497 .9979 -1.9 8)" class="st0" d="M120.2 32h1v1.6h-1z"/><g class="st1"><defs><path id="SVGID_201_" class="st1" d="M120.2 32l1 .6v1l-1-.7z"/></defs><clipPath id="SVGID_202_"><use xlink:href="#SVGID_201_" overflow="visible"/></clipPath><g clip-path="url(#SVGID_202_)"><path class="st3" d="M121.2 33.6v-1l-1-.6v.9l1 .7"/></g></g><path transform="rotate(-50 119.2 43.2)" class="st0" d="M118.4 42.7h1.6v1h-1.6z"/><g class="st1"><defs><path id="SVGID_203_" class="st1" d="M119.1 44.1l-.3-1.1.6-.7.3 1.1z"/></defs><clipPath id="SVGID_204_"><use xlink:href="#SVGID_203_" overflow="visible"/></clipPath><g clip-path="url(#SVGID_204_)"><path class="st3" d="M119.4 42.3l-.6.7.3 1.1.6-.7-.3-1.1"/></g></g><path transform="rotate(-55 108.5 20.1)" class="st0" d="M107.6 19.6h1.6v1h-1.6z"/><g class="st1"><defs><path id="SVGID_205_" class="st1" d="M108.3 21.1l-.3-1.2.6-.7.3 1.1z"/></defs><clipPath id="SVGID_206_"><use xlink:href="#SVGID_205_" overflow="visible"/></clipPath><g clip-path="url(#SVGID_206_)"><path class="st3" d="M108.6 19.2l-.6.7.3 1.2.6-.8-.3-1.1"/></g></g><path transform="rotate(-84.7 101.5 23.5) scale(1.00003)" class="st0" d="M101 22.7h1v1.6h-1z"/><g class="st1"><defs><path id="SVGID_207_" class="st1" d="M100.6 23.8l.8-.8.9.1-.8.9z"/></defs><clipPath id="SVGID_208_"><use xlink:href="#SVGID_207_" overflow="visible"/></clipPath><g clip-path="url(#SVGID_208_)"><path class="st3" d="M102.3 23.1l-.9-.1-.8.8.9.2.8-.9"/></g></g><path transform="rotate(-14.5 90.5 18.5)" class="st0" d="M90 17.7h1v1.6h-1z"/><g class="st1"><defs><path id="SVGID_209_" class="st1" d="M91.1 19.2l-1-.5-.2-.9 1.1.5z"/></defs><clipPath id="SVGID_210_"><use xlink:href="#SVGID_209_" overflow="visible"/></clipPath><g clip-path="url(#SVGID_210_)"><path class="st3" d="M89.9 17.8l.2.9 1 .5-.1-.9-1.1-.5"/></g></g><path transform="rotate(-52.7 88.1 4.3)" class="st0" d="M87.3 3.8h1.6v1h-1.6z"/><g class="st1"><defs><path id="SVGID_211_" class="st1" d="M88 5.3l-.3-1.2.6-.7.3 1.2z"/></defs><clipPath id="SVGID_212_"><use xlink:href="#SVGID_211_" overflow="visible"/></clipPath><g clip-path="url(#SVGID_212_)"><path class="st3" d="M88.3 3.4l-.6.7.3 1.2.6-.7-.3-1.2"/></g></g><path transform="rotate(-24.3 70.3 18.9)" class="st0" d="M69.5 18.4h1.6v1h-1.6z"/><g class="st1"><defs><path id="SVGID_213_" class="st1" d="M70.9 18.2l-.3 1.1-.9.3.3-1.1z"/></defs><clipPath id="SVGID_214_"><use xlink:href="#SVGID_213_" overflow="visible"/></clipPath><g clip-path="url(#SVGID_214_)"><path class="st3" d="M69.7 19.6l.9-.3.3-1.1-.9.3-.3 1.1"/></g></g><path transform="rotate(-83.8 59.6 8.9)" class="st0" d="M59.1 8.1h1v1.6h-1z"/><g class="st1"><defs><path id="SVGID_215_" class="st1" d="M58.7 9.2l.8-.8.9.1-.8.9z"/></defs><clipPath id="SVGID_216_"><use xlink:href="#SVGID_215_" overflow="visible"/></clipPath><g clip-path="url(#SVGID_216_)"><path class="st3" d="M60.4 8.5l-.9-.1-.8.8.9.2.8-.9"/></g></g><g><path transform="rotate(-79.6 51.6 8.5)" class="st0" d="M51.1 7.7h1v1.6h-1z"/><g class="st1"><defs><path id="SVGID_217_" class="st1" d="M52.4 8.2l-.8.8-.9-.2.8-.8z"/></defs><clipPath id="SVGID_218_"><use xlink:href="#SVGID_217_" overflow="visible"/></clipPath><g clip-path="url(#SVGID_218_)"><path class="st3" d="M50.7 8.8l.9.2.8-.8-.9-.2-.8.8"/></g></g></g><g><path transform="rotate(-33.4 46.3 19)" class="st0" d="M45.5 18.4h1.6v1h-1.6z"/><g class="st1"><defs><path id="SVGID_219_" class="st1" d="M45.9 19.7v-1.1l.9-.5-.1 1.2z"/></defs><clipPath id="SVGID_220_"><use xlink:href="#SVGID_219_" overflow="visible"/></clipPath><g clip-path="url(#SVGID_220_)"><path class="st3" d="M46.8 18.1l-.9.5v1.1l.8-.4.1-1.2"/></g></g></g><g><path transform="rotate(-17.5 31.3 11.2)" class="st0" d="M30.8 10.4h1V12h-1z"/><g class="st1"><defs><path id="SVGID_221_" class="st1" d="M30.7 10.6l1.1.3.2 1-1.1-.4z"/></defs><clipPath id="SVGID_222_"><use xlink:href="#SVGID_221_" overflow="visible"/></clipPath><g clip-path="url(#SVGID_222_)"><path class="st3" d="M32 11.9l-.2-1-1.1-.3.2.9 1.1.4"/></g></g></g><g><path transform="rotate(-35.8 24 30.3)" class="st0" d="M23.5 29.4h1V31h-1z"/><g class="st1"><defs><path id="SVGID_223_" class="st1" d="M24.9 30.7l-1.2-.1-.5-.8 1.2.1z"/></defs><clipPath id="SVGID_224_"><use xlink:href="#SVGID_223_" overflow="visible"/></clipPath><g clip-path="url(#SVGID_224_)"><path class="st3" d="M23.2 29.8l.5.8 1.2.1-.5-.8-1.2-.1"/></g></g></g><g><path transform="rotate(-62.1 9.3 17)" class="st0" d="M8.4 16.4H10v1H8.4z"/><g class="st1"><defs><path id="SVGID_225_" class="st1" d="M9.3 17.9l-.5-1.1.5-.8.5 1.1z"/></defs><clipPath id="SVGID_226_"><use xlink:href="#SVGID_225_" overflow="visible"/></clipPath><g clip-path="url(#SVGID_226_)"><path class="st3" d="M9.3 16l-.5.8.5 1.1.5-.8-.5-1.1"/></g></g></g><g><path transform="matrix(.9986 -.0537 .0537 .9986 -2.4 .6)" class="st0" d="M8.6 43.9h1.6v1H8.6z"/><g class="st1"><defs><path id="SVGID_227_" class="st1" d="M8.6 44.8l.7-.9h.9l-.6 1z"/></defs><clipPath id="SVGID_228_"><use xlink:href="#SVGID_227_" overflow="visible"/></clipPath><g clip-path="url(#SVGID_228_)"><path class="st3" d="M10.2 43.9h-.9l-.7.9 1 .1.6-1"/></g></g></g><g><path transform="rotate(-52 29.7 41.5)" class="st0" d="M28.9 41h1.6v1h-1.6z"/><g class="st1"><defs><path id="SVGID_229_" class="st1" d="M29.6 42.4l-.3-1.2.6-.6.3 1.1z"/></defs><clipPath id="SVGID_230_"><use xlink:href="#SVGID_229_" overflow="visible"/></clipPath><g clip-path="url(#SVGID_230_)"><path class="st3" d="M29.9 40.6l-.6.6.3 1.2.6-.7-.3-1.1"/></g></g></g><g><path transform="rotate(-37.8 22.1 61.6)" class="st0" d="M21.6 60.8h1v1.6h-1z"/><g class="st1"><defs><path id="SVGID_231_" class="st1" d="M21.3 61.3l1.2-.1.5.8h-1.2z"/></defs><clipPath id="SVGID_232_"><use xlink:href="#SVGID_231_" overflow="visible"/></clipPath><g clip-path="url(#SVGID_232_)"><path class="st3" d="M23 62l-.5-.8-1.2.1.5.7H23"/></g></g></g><g><path transform="rotate(-25.3 4.8 59.3)" class="st0" d="M4 58.8h1.6v1H4z"/><g class="st1"><defs><path id="SVGID_233_" class="st1" d="M5.3 58.5l-.2 1.2-.9.3.3-1.1z"/></defs><clipPath id="SVGID_234_"><use xlink:href="#SVGID_233_" overflow="visible"/></clipPath><g clip-path="url(#SVGID_234_)"><path class="st3" d="M4.2 60l.9-.3.2-1.2-.8.4-.3 1.1"/></g></g></g><g><path transform="rotate(-8.5 25.9 60.5)" class="st0" d="M25.1 60h1.6v1h-1.6z"/><g class="st1"><defs><path id="SVGID_235_" class="st1" d="M25.1 61.1l.6-1 .9-.1-.5 1z"/></defs><clipPath id="SVGID_236_"><use xlink:href="#SVGID_235_" overflow="visible"/></clipPath><g clip-path="url(#SVGID_236_)"><path class="st3" d="M26.6 60l-.9.1-.6 1 1-.1.5-1"/></g></g></g><g><path transform="rotate(-24.1 31.1 70.7)" class="st0" d="M30.6 69.9h1v1.6h-1z"/><g class="st1"><defs><path id="SVGID_237_" class="st1" d="M30.4 70.1l1.1.3.4.8-1.2-.2z"/></defs><clipPath id="SVGID_238_"><use xlink:href="#SVGID_237_" overflow="visible"/></clipPath><g clip-path="url(#SVGID_238_)"><path class="st3" d="M31.9 71.2l-.4-.8-1.1-.3.3.9 1.2.2"/></g></g></g><g><path transform="rotate(-26.3 25.1 87.1)" class="st0" d="M24.6 86.3h1v1.6h-1z"/><g class="st1"><defs><path id="SVGID_239_" class="st1" d="M25.9 87.6l-1.2-.2-.3-.8 1.1.2z"/></defs><clipPath id="SVGID_240_"><use xlink:href="#SVGID_239_" overflow="visible"/></clipPath><g clip-path="url(#SVGID_240_)"><path class="st3" d="M24.4 86.6l.3.8 1.2.2-.4-.8-1.1-.2"/></g></g></g></g></svg>